<svg width="32" height="32" viewBox="0 0 32 32" fill="none" xmlns="http://www.w3.org/2000/svg">
<path d="M0 16C0 7.16344 7.16344 0 16 0C24.8366 0 32 7.16344 32 16C32 24.8366 24.8366 32 16 32C7.16344 32 0 24.8366 0 16Z" fill="#F3F5FF"/>
<path d="M6 13L6 19C6 21.5 6.5 23.25 7.62 24.38L14 18L6.27 10.27C6.09 11.06 6 11.96 6 13Z" stroke="#393C97" stroke-width="1.5" stroke-linecap="round" stroke-linejoin="round"/>
<path d="M6.27 10.27L21.73 25.73C24.74 25.04 26 22.96 26 19L26 13C26 8 24 6 19 6L13 6C9.04 6 6.96 7.26 6.27 10.27Z" stroke="#393C97" stroke-width="1.5" stroke-linecap="round" stroke-linejoin="round"/>
<path d="M7.61951 24.38C8.74951 25.5 10.4995 26 12.9995 26L18.9995 26C20.0395 26 20.9395 25.91 21.7295 25.73L13.9995 18L7.61951 24.38Z" stroke="#393C97" stroke-width="1.5" stroke-linecap="round" stroke-linejoin="round"/>
<path d="M21.7597 11.98C21.0797 9.04997 16.6798 9.04997 15.9998 11.98C15.6098 13.7 16.6898 15.16 17.6398 16.06C18.3297 16.72 19.4197 16.72 20.1197 16.06C21.0697 15.16 22.1597 13.7 21.7597 11.98Z" stroke="#393C97" stroke-width="1.5"/>
<path d="M18.9053 12.7L18.8963 12.7" stroke="#393C97" stroke-width="1.5" stroke-linecap="round" stroke-linejoin="round"/>
</svg>
