<svg width="24" height="24" viewBox="0 0 24 24" fill="none" xmlns="http://www.w3.org/2000/svg">
<path d="M2 9.00002L2 15C2 17.5 2.5 19.25 3.62 20.38L10 14L2.27 6.27002C2.09 7.06002 2 7.96002 2 9.00002Z" stroke="#393C97" stroke-width="1.5" stroke-linecap="round" stroke-linejoin="round"/>
<path d="M2.27 6.27L17.73 21.73C20.74 21.04 22 18.96 22 15L22 9C22 4 20 2 15 2L9 2C5.04 2 2.96 3.26 2.27 6.27Z" stroke="#393C97" stroke-width="1.5" stroke-linecap="round" stroke-linejoin="round"/>
<path d="M3.61951 20.38C4.74951 21.5 6.49951 22 8.99951 22L14.9995 22C16.0395 22 16.9395 21.91 17.7295 21.73L9.99951 14L3.61951 20.38Z" stroke="#393C97" stroke-width="1.5" stroke-linecap="round" stroke-linejoin="round"/>
<path d="M17.7597 7.97997C17.0797 5.04997 12.6798 5.04997 11.9998 7.97997C11.6098 9.69997 12.6898 11.16 13.6398 12.06C14.3297 12.72 15.4197 12.72 16.1197 12.06C17.0697 11.16 18.1597 9.69997 17.7597 7.97997Z" stroke="#393C97" stroke-width="1.5"/>
<path d="M14.9053 8.69995L14.8963 8.69995" stroke="#393C97" stroke-width="1.5" stroke-linecap="round" stroke-linejoin="round"/>
</svg>
