<svg width="32" height="33" viewBox="0 0 32 33" fill="none" xmlns="http://www.w3.org/2000/svg">
<circle cx="16" cy="16" r="16" transform="matrix(-1 0 0 1 32 0.5)" fill="#E2F6EE"/>
<g clip-path="url(#clip0_45_3478)">
<g clip-path="url(#clip1_45_3478)">
<path d="M8.55937 23.2053V22.3464C8.55937 20.9784 9.32177 19.7484 10.5487 19.1365L12.8777 17.9751V13.6373C12.8777 12.4937 13.4108 11.4466 14.3027 10.7763C14.2562 10.5236 14.1012 10.311 13.8997 10.2441C12.4272 9.75549 11.4383 8.38689 11.4383 6.83841C11.4383 4.62025 13.4256 2.93985 15.6362 3.29835C17.3457 3.57532 18.6355 5.1636 18.6355 6.99206V9.41814C20.4293 11.311 21.5142 13.8758 21.5142 16.6408V20.695C21.5142 21.7694 21.2138 22.7977 20.653 23.6847C21.9978 24.205 22.9536 25.5095 22.9536 27.0322V27.7499H9.27926C8.08879 27.7499 7.11999 26.7838 7.11999 25.5966C7.11954 25.1052 7.25329 24.623 7.50688 24.2017C7.76047 23.7804 8.12432 23.436 8.55937 23.2053ZM11.053 20.4965C10.3991 20.8836 9.99895 21.5789 9.99895 22.3464V22.6867L11.6293 22.1445L11.053 20.4965ZM17.1959 6.99206C17.1959 5.85989 16.426 4.8808 15.4049 4.71519C14.0238 4.49091 12.8777 5.55091 12.8777 6.83841C12.8772 7.2906 13.0195 7.73147 13.2846 8.09836C13.5496 8.46526 13.9238 8.73953 14.3541 8.8822C14.9221 9.07064 15.3637 9.50953 15.5895 10.0671L17.1959 9.26597V6.99206ZM20.0748 16.6408C20.0748 14.3863 19.2562 12.2567 17.7596 10.5901L15.5108 11.7113C14.7744 12.0782 14.3171 12.8166 14.3171 13.6373V18.8622L12.3494 19.8437L12.9948 21.6909L15.7565 20.7725V14.0164H17.1959V21.8072L15.0158 22.532C15.9758 23.5949 17.4954 24.0227 18.9123 23.5519L18.9578 23.5366C19.679 22.7608 20.0748 21.7587 20.0748 20.6949V16.6408ZM9.27926 26.3144H21.3909C21.1054 25.511 20.3545 24.9257 19.4631 24.8817C19.3992 24.8977 18.7241 25.1779 17.74 25.1779C16.0987 25.1779 14.5311 24.3874 13.5638 23.0145L9.43279 24.3878C9.17831 24.4722 8.95695 24.6344 8.80016 24.8514C8.64336 25.0684 8.55909 25.3291 8.55933 25.5966C8.55933 25.9923 8.88228 26.3144 9.27926 26.3144Z" fill="#E0AD70"/>
</g>
</g>
<defs>
<clipPath id="clip0_45_3478">
<rect width="28.0749" height="28" rx="14" transform="matrix(-1 0 0 1 29.0747 1.5)" fill="white"/>
</clipPath>
<clipPath id="clip1_45_3478">
<rect width="24.5655" height="24.5" fill="white" transform="matrix(-1 0 0 1 27.3198 3.25)"/>
</clipPath>
</defs>
</svg>
