<svg width="25" height="25" viewBox="0 0 25 25" fill="none" xmlns="http://www.w3.org/2000/svg">
<path d="M7.4155 19.1046V18.3684C7.4155 17.1957 8.06898 16.1415 9.12059 15.617L11.1169 14.6215V10.9034C11.1169 9.92317 11.5738 9.02563 12.3384 8.45108C12.2985 8.23448 12.1656 8.05228 11.9929 7.99498C10.7308 7.57613 9.88318 6.40304 9.88318 5.07578C9.88318 3.1745 11.5865 1.73415 13.4813 2.04144C14.9466 2.27884 16.0521 3.64023 16.0521 5.20748V7.28697C17.5897 8.90947 18.5197 11.1078 18.5197 13.4779V16.9528C18.5197 17.8738 18.2621 18.7551 17.7815 19.5155C18.9342 19.9615 19.7534 21.0796 19.7534 22.3847V22.9999H8.03254C7.01214 22.9999 6.18174 22.1718 6.18174 21.1542C6.18136 20.7331 6.296 20.3197 6.51336 19.9586C6.73072 19.5975 7.0426 19.3022 7.4155 19.1046ZM9.5529 16.7827C8.99237 17.1145 8.64942 17.7105 8.64942 18.3684V18.66L10.0469 18.1953L9.5529 16.7827ZM14.8182 5.20748C14.8182 4.23705 14.1583 3.39783 13.2831 3.25587C12.0993 3.06363 11.1169 3.97221 11.1169 5.07578C11.1165 5.46337 11.2385 5.84126 11.4657 6.15574C11.6928 6.47022 12.0136 6.70531 12.3824 6.8276C12.8693 6.98912 13.2478 7.36531 13.4413 7.84323L14.8182 7.15654V5.20748ZM17.2859 13.4779C17.2859 11.5454 16.5842 9.72002 15.3014 8.29153L13.3739 9.25252C12.7427 9.56699 12.3507 10.2 12.3507 10.9034V15.3819L10.6641 16.2232L11.2173 17.8065L13.5845 17.0193V11.2283H14.8183V17.9062L12.9496 18.5275C13.7724 19.4385 15.075 19.8052 16.2894 19.4016L16.3285 19.3885C16.9466 18.7235 17.2859 17.8646 17.2859 16.9528V13.4779ZM8.03254 21.7695H18.414C18.1693 21.0808 17.5256 20.5792 16.7616 20.5414C16.7068 20.5552 16.1281 20.7953 15.2846 20.7953C13.8778 20.7953 12.5342 20.1178 11.705 18.941L8.16414 20.1181C7.94601 20.1904 7.75628 20.3295 7.62188 20.5155C7.48749 20.7015 7.41526 20.925 7.41546 21.1542C7.41546 21.4934 7.69223 21.7695 8.0325 21.7695H8.03254Z" fill="#E0AD70"/>
</svg>
