<svg width="828" height="310" viewBox="0 0 828 310" fill="none" xmlns="http://www.w3.org/2000/svg">
<g clip-path="url(#clip0_6_412)">
<path d="M802.125 178.715C802.125 178.715 795.252 173.967 795.606 185.968C795.606 185.968 794.646 207.571 794.342 213.832C794.342 213.832 808.796 205.327 810.06 212.684C810.06 212.684 818.802 237.157 805.258 239.87C805.258 239.87 793.736 246.236 785.498 230.582C785.498 230.582 776.553 250.254 769.074 232.461C769.074 232.461 758.613 257.976 744.867 229.747C744.867 229.747 738.246 241.383 715.403 241.644L354.821 240.079L88.2884 240.496C88.2884 240.496 63.9295 210.545 42.4007 219.677C42.4007 219.677 30.9288 222.39 32.6976 243.053C32.6976 243.053 12.3817 263.977 0.909748 264.447C0.909748 264.447 -2.07194 270.239 2.93123 271.126C2.93123 271.126 22.8934 269.352 34.6685 251.193C34.6685 251.193 58.1683 290.693 85.9637 252.967L350.374 250.306L699.484 254.533C699.484 254.533 727.179 258.759 740.268 247.28C740.268 247.28 757.653 268.986 770.085 253.019C770.085 253.019 774.886 263.403 788.632 253.385C788.632 253.385 819.106 262.881 822.391 238.618C822.391 238.618 827.495 197.552 802.176 178.611L802.125 178.715ZM45.6856 233.087C65.6983 229.069 73.1273 249.836 73.1273 249.836C44.4222 258.811 45.6856 233.087 45.6856 233.087Z" fill="#70D1D0"/>
<path d="M95.4645 276.031C95.4645 276.031 100.569 270.239 92.028 270.813L62.4637 291.894L60.9476 292.99C60.9476 292.99 60.0885 301.078 68.0228 296.068L95.4645 276.031Z" fill="#70D1D0"/>
<path d="M99.1537 157.635C99.1537 157.635 100.72 151.06 94.2516 152.365C94.2516 152.365 69.6906 168.541 80.5561 197.448C80.5561 197.448 86.4184 225.782 133.923 200.266C133.923 200.266 150.601 184.403 163.437 185.447C163.437 185.447 179.002 191.656 178.901 196.822C178.901 196.822 191.839 191.187 189.868 182.316C189.868 182.316 173.595 176.107 170.916 167.967C170.916 167.967 164.903 147.251 195.528 147.877C195.528 147.877 187.695 185.238 221.251 182.264C221.251 182.264 249.097 179.916 253.494 172.611L277.701 173.863C277.701 173.863 284.271 165.932 276.488 162.07C276.488 162.07 243.841 154.035 236.21 145.06C236.21 145.06 221.352 140.363 218.32 147.616C218.32 147.616 212.458 154.869 221.049 155.026C221.049 155.026 236.059 151.634 242.325 160.609C242.325 160.609 245.509 169.271 233.582 169.532C233.582 169.532 214.277 171.828 209.375 168.071C209.375 168.071 194.669 153.774 207.101 138.589C207.101 138.589 194.972 128.049 180.064 136.554C180.064 136.554 162.83 142.816 160.051 175.167C160.051 175.167 128.263 196.561 118.307 196.352C118.307 196.352 96.829 201.57 90.6635 188.212C90.6635 188.212 80.2023 175.741 99.1032 157.739L99.1537 157.635Z" fill="#70D1D0"/>
<path d="M158.687 211.119C158.687 211.119 164.498 205.327 154.543 204.388L126.343 224.425C126.343 224.425 126.242 231.052 131.245 229.695L158.687 211.119Z" fill="#70D1D0"/>
<path d="M228.023 91.1589C228.023 91.1589 211.548 95.2289 217.512 80.6186C217.512 80.6186 229.843 70.5479 236.716 82.497C236.716 82.497 243.437 104.726 224.739 110.935C224.739 110.935 208.971 116.518 201.896 114.118C201.896 114.118 194.871 109.578 202.047 105.3C202.047 105.3 221.908 110.1 227.114 99.9251C227.114 99.9251 231.46 96.3247 227.973 91.1067L228.023 91.1589Z" fill="#70D1D0"/>
<path d="M198.358 223.695C198.358 223.695 186.078 232.252 180.67 218.164C180.67 218.164 180.215 205.641 197.095 215.555C197.095 215.555 202.098 215.659 205.787 209.137C205.787 209.137 217.158 210.859 216.956 221.869C216.956 221.869 217.512 230.687 205.484 225.312C205.484 225.312 201.997 220.825 198.409 223.695H198.358Z" fill="#70D1D0"/>
<path d="M280.531 213.623C280.531 213.623 282.755 207.779 277.803 206.944L242.477 226.825C242.477 226.825 242.325 234.913 247.379 232.095L280.531 213.676V213.623Z" fill="#70D1D0"/>
<path d="M309.792 63.346C309.792 63.346 312.016 58.2324 305.648 56.667L267.392 82.3916C267.392 82.3916 267.19 91.9405 274.416 88.3923C277.297 87.714 309.792 63.346 309.792 63.346Z" fill="#70D1D0"/>
<path d="M306.962 86.6179C306.962 86.6179 310.803 84.2698 313.128 86.2526C313.128 86.2526 321.264 108.012 301.858 105.142L286.646 105.298C286.646 105.298 279.116 101.228 284.625 88.0789C286.04 87.6093 288.921 86.2004 290.79 89.1747C290.79 89.1747 288.718 97.4713 291.599 97.5235C291.599 97.5235 293.418 101.489 295.895 96.6364L296.552 87.3484C296.552 87.3484 300.393 84.4785 301.302 86.931C301.302 86.931 300.14 97.2104 302.06 96.2711C302.06 96.2711 304.385 100.237 306.811 96.3755L307.013 86.5657L306.962 86.6179Z" fill="#70D1D0"/>
<path d="M542.516 89.489C542.516 89.489 546.357 87.1409 548.681 89.1237C548.681 89.1237 556.818 110.883 537.412 108.013L522.2 108.222C522.2 108.222 514.67 104.151 520.128 91.0022C521.593 90.5326 524.423 89.1237 526.293 92.098C526.293 92.098 524.221 100.395 527.051 100.447C527.051 100.447 528.871 104.412 531.347 99.5597L532.004 90.2717C532.004 90.2717 535.845 87.4018 536.754 89.9064C536.754 89.9064 535.592 100.186 537.513 99.2466C537.513 99.2466 539.787 103.212 542.263 99.351L542.465 89.5412L542.516 89.489Z" fill="#70D1D0"/>
<path d="M681.594 122.779C681.594 122.779 685.435 120.431 687.81 122.414C687.81 122.414 695.947 144.173 676.49 141.303L661.278 141.459C661.278 141.459 653.799 137.389 659.257 124.24C660.672 123.77 663.552 122.362 665.422 125.336C665.422 125.336 663.35 133.632 666.231 133.685C666.231 133.685 668.05 137.65 670.527 132.798L671.184 123.51C671.184 123.51 675.024 120.64 675.934 123.144C675.934 123.144 674.772 133.424 676.692 132.484C676.692 132.484 678.966 136.45 681.443 132.589L681.645 122.779H681.594Z" fill="#70D1D0"/>
<path d="M333.697 78.3221C333.697 78.3221 342.642 71.904 339.256 60.7897L324.549 35.9521L325.055 107.595C325.055 107.595 321.416 147.721 297.209 121.736C297.209 121.736 287.758 118.605 294.177 131.493C294.177 131.493 303.728 155.235 297.36 162.958C297.36 162.958 294.126 183.517 232.926 201.884C232.926 201.884 231.864 208.719 237.524 208.824C237.524 208.824 279.47 201.832 300.847 177.777C300.847 177.777 306.861 162.175 311.005 144.643C311.005 144.643 329.148 141.094 332.484 114.639C332.484 114.639 337.335 81.6616 333.646 78.3743L333.697 78.3221Z" fill="#70D1D0"/>
<path d="M461.707 18.2108C461.707 18.2108 448.365 21.3416 451.953 5.73983C451.953 5.73983 458.372 -6.36588 470.046 4.64405C470.046 4.64405 483.792 18.1586 470.753 29.6903C470.753 29.6903 466.963 39.9176 437.5 42.2657C437.5 42.2657 430.02 37.2042 438.561 35.4301C438.561 35.4301 461.505 28.0728 462.667 16.3323" fill="#70D1D0"/>
<path d="M361.795 174.593C361.745 178.663 364.828 182.002 368.769 182.107C372.711 182.211 375.946 178.976 376.047 174.906C376.148 170.836 373.015 167.496 369.073 167.392C365.131 167.288 361.896 170.523 361.795 174.593Z" fill="#70D1D0"/>
<path d="M480.001 154.922C484.095 155.026 487.43 156.852 487.38 158.992C487.38 161.183 483.994 162.853 479.799 162.801C475.706 162.697 472.37 160.87 472.421 158.731C472.421 156.539 475.807 154.87 480.001 154.922ZM483.943 196.248C447.506 213.154 439.269 197.24 439.269 197.24C447.91 192.543 447.304 173.863 447.304 173.863C449.325 167.027 463.627 166.349 463.627 166.349C467.165 181.116 485.257 178.559 485.257 178.559C505.219 178.037 499.155 150.382 499.155 150.382C497.487 136.659 477.525 137.181 477.525 137.181C471.916 131.18 484.398 124.605 484.398 124.605C507.443 112.343 517.348 141.929 517.348 141.929C521.341 182.212 483.994 196.196 483.994 196.196L483.943 196.248ZM488.492 107.073C488.492 107.073 462.819 108.482 460.191 147.669C460.191 147.669 450.286 166.088 432.648 145.164C432.648 145.164 423.299 140.103 429.667 152.991C429.667 152.991 439.572 183.099 432.8 188.891C432.8 188.891 422.035 204.806 411.119 179.133C411.119 179.133 397.07 156.278 417.992 117.457C417.992 117.457 426.483 121.579 430.172 126.536C430.172 126.536 435.731 132.537 434.063 122.727C434.063 122.727 421.025 107.699 445.131 90.5319C445.131 90.5319 482.478 74.6692 487.279 74.7214C487.279 74.7214 493.192 63.0853 481.821 61.833C481.821 61.833 435.781 71.695 410.26 66.0074C410.26 66.0074 385.699 72.582 399.496 94.4454C399.496 94.4454 417.234 110.517 405.661 119.074C405.661 119.074 387.165 142.242 396.009 175.741C396.009 175.741 400.406 196.457 407.834 204.44C407.834 204.44 378.068 219.52 353.558 211.172C353.558 211.172 326.116 204.753 324.6 184.09C324.6 184.09 325.004 165.462 339.559 149.078C339.559 149.078 343.501 142.346 334.909 143.077C334.909 143.077 312.825 157.374 315.958 189.778C315.958 189.778 318.99 231.052 371.296 227.243C371.296 227.243 397.828 231.678 421.025 211.589C421.025 211.589 441.088 229.904 487.936 216.129C487.936 216.129 529.781 192.7 528.517 155.861C528.517 155.861 531.448 103.89 488.593 106.969L488.492 107.073ZM408.138 86.7749C408.138 86.7749 402.528 82.7571 416.83 80.0959L428.201 82.2875C428.201 82.2875 433.861 83.3833 432.85 87.2446L429.717 91.3668C429.717 91.3668 424.158 95.9064 421.227 97.8371L408.138 86.7228V86.7749Z" fill="#70D1D0"/>
<path d="M547.367 61.1543C547.367 61.1543 548.479 53.3273 541.758 56.145L514.67 81.087C514.67 81.087 514.518 87.9225 520.279 86.0962L547.367 61.1543Z" fill="#70D1D0"/>
<path d="M567.885 81.1926C567.885 81.1926 578.448 74.5658 573.849 66.6344C573.849 66.6344 561.669 56.5637 561.063 39.8662C561.063 39.8662 550.501 45.5538 557.424 80.9839L563.135 130.137C563.135 130.137 550.602 139.686 542.263 127.737C542.263 127.737 531.954 121.632 537.361 136.451C537.361 136.451 554.443 162.332 545.194 173.864C545.194 173.864 509.161 219.26 504.815 221.608C504.815 221.608 499.458 227.87 510.981 221.243C510.981 221.243 552.118 205.902 561.316 172.716C561.316 172.716 551.309 150.435 569.553 140.991C569.553 140.991 569.553 89.9588 567.835 81.0882L567.885 81.1926Z" fill="#70D1D0"/>
<path d="M596.287 85.7308C596.287 85.7308 606.597 83.1219 603.261 68.1984C603.261 68.1984 599.724 55.6231 592.194 50.3008C592.194 50.3008 586.281 60.9455 586.079 70.7553L592.8 166.088C592.8 166.088 595.479 174.958 602.402 162.383L596.287 85.7308Z" fill="#70D1D0"/>
<path d="M580.368 171.724C580.368 171.724 578.65 160.923 575.618 171.62C575.618 171.62 568.189 186.909 574.405 198.127C574.405 198.127 578.549 216.86 604.222 203.919C604.222 203.919 627.873 172.768 628.833 169.846C628.833 169.846 636.515 166.089 637.222 178.873C637.222 178.873 637.424 218.112 656.527 212.633C656.527 212.633 670.779 211.955 673.811 202.197C673.811 202.197 691.499 220.199 703.123 209.659C703.123 209.659 719.497 199.223 712.32 176.473L703.173 156.645C703.173 156.645 694.683 153.514 694.582 159.41C694.582 159.41 706.307 193.014 700.596 193.849C700.596 193.849 689.023 203.398 681.745 185.604C681.745 185.604 677.197 174.751 675.681 155.079C675.681 155.079 668.252 148.087 667.039 159.827C667.039 159.827 669.313 189.309 662.592 193.118C662.592 193.118 651.019 202.667 647.633 180.073C647.633 180.073 651.979 150.696 638.637 152.418C638.637 152.418 622.617 145.217 608.719 175.325C608.719 175.325 607.405 193.953 586.635 189.622C586.635 189.622 576.224 187.431 580.318 171.829L580.368 171.724Z" fill="#70D1D0"/>
<path d="M632.017 205.118C632.017 205.118 635.049 196.352 627.418 197.187L602.251 221.19C602.251 221.19 601.088 230.008 606.85 229.121L632.017 205.118Z" fill="#70D1D0"/>
<path d="M731.525 167.967C731.525 167.967 739.257 161.236 738.499 151.426L728.543 134.311C728.543 134.311 719.143 118.344 718.941 130.45L726.926 210.076C726.926 210.076 729.604 218.999 733.597 207.259L731.525 167.967Z" fill="#70D1D0"/>
<path d="M771.196 179.55C771.196 179.55 756.945 181.22 757.096 171.41C757.096 171.41 759.27 158.678 776.25 164.94C776.25 164.94 788.884 174.489 778.575 191.969C778.575 191.969 770.691 205.066 755.53 204.753L746.029 204.544C746.029 204.544 737.539 201.466 747.141 197.709C747.141 197.709 775.745 190.456 771.247 179.55H771.196Z" fill="#70D1D0"/>
<path d="M644.348 106.29L644.601 92.5672C644.601 92.5672 648.543 85.7838 652.131 95.698C652.131 95.698 660.267 116.935 642.984 126.901C642.984 126.901 635.302 130.658 642.175 120.014C642.175 120.014 651.727 117.3 644.348 106.343V106.29Z" fill="#70D1D0"/>
<path d="M791.259 275.144C791.158 279.997 794.898 284.067 799.649 284.119C804.348 284.223 808.29 280.362 808.391 275.457C808.492 270.604 804.753 266.534 800.002 266.43C795.302 266.325 791.36 270.239 791.259 275.092V275.144Z" fill="#70D1D0"/>
<path d="M826.029 294.45C826.029 294.45 831.942 283.805 823.401 281.666C823.401 281.666 790.805 295.702 787.823 302.538C787.823 302.538 783.83 312.296 794.342 309.53L825.978 294.45H826.029Z" fill="#70D1D0"/>
<path d="M365.08 298.729C365.08 298.729 358.308 305.46 359.521 289.806L397.98 266.064C397.98 266.064 408.34 269.195 398.738 274.935L365.029 298.781L365.08 298.729Z" fill="#70D1D0"/>
<path d="M357.954 28.8033C357.954 28.8033 370.74 30.9948 373.217 51.658C373.217 51.658 365.131 53.4321 366.192 70.1297L364.676 147.617C364.676 147.617 359.824 151.426 357.601 145.477L357.954 28.7511V28.8033Z" fill="#70D1D0"/>
</g>
<defs>
<clipPath id="clip0_6_412">
<rect width="828" height="310" fill="white"/>
</clipPath>
</defs>
</svg>
