<svg width="24" height="24" viewBox="0 0 24 24" fill="none" xmlns="http://www.w3.org/2000/svg">
<path d="M22 2L2 2M16 22L12 20M12 20L12 17M12 20L8 22M18.1 17L5.91 17C4.01 17 3.01 16 3.01 14.1L3.01 2L21.01 2L21.01 14.1C21 16 20 17 18.1 17Z" stroke="#393C97" stroke-width="1.5" stroke-miterlimit="10" stroke-linecap="round" stroke-linejoin="round"/>
<path d="M16.5 11L13.35 8.37C13.1 8.16 12.77 8.22 12.6 8.5L11.4 10.5C11.23 10.78 10.9 10.83 10.65 10.63L7.5 8" stroke="#393C97" stroke-width="1.5" stroke-miterlimit="10" stroke-linecap="round" stroke-linejoin="round"/>
</svg>
