<svg width="32" height="32" viewBox="0 0 32 32" fill="none" xmlns="http://www.w3.org/2000/svg">
<path d="M0 16C0 7.16344 7.16344 0 16 0C24.8366 0 32 7.16344 32 16C32 24.8366 24.8366 32 16 32C7.16344 32 0 24.8366 0 16Z" fill="#F3F5FF"/>
<path d="M26 6L6 6M20 26L16 24M16 24L16 21M16 24L12 26M22.1 21L9.91 21C8.01 21 7.01 20 7.01 18.1L7.01 6L25.01 6L25.01 18.1C25 20 24 21 22.1 21Z" stroke="#393C97" stroke-width="1.5" stroke-miterlimit="10" stroke-linecap="round" stroke-linejoin="round"/>
<path d="M20.5 15L17.35 12.37C17.1 12.16 16.77 12.22 16.6 12.5L15.4 14.5C15.23 14.78 14.9 14.83 14.65 14.63L11.5 12" stroke="#393C97" stroke-width="1.5" stroke-miterlimit="10" stroke-linecap="round" stroke-linejoin="round"/>
</svg>
