<svg width="170" height="40" viewBox="0 0 170 40" fill="none" xmlns="http://www.w3.org/2000/svg">
<path d="M0 4C0 1.79086 1.79086 0 4 0H166C168.209 0 170 1.79086 170 4V36C170 38.2091 168.209 40 166 40H4C1.79086 40 0 38.2091 0 36V4Z" fill="#D8DBF0"/>
<path d="M19.3625 23.5C18.9052 23.5 18.5085 23.4253 18.1725 23.276C17.8458 23.1267 17.5705 22.8933 17.3465 22.576C16.7865 22.744 16.2452 22.828 15.7225 22.828C14.8825 22.828 14.1918 22.6273 13.6505 22.226C13.1185 21.8153 12.8525 21.26 12.8525 20.56C12.8525 19.748 13.1512 19.062 13.7485 18.502C14.3458 17.942 15.1485 17.4567 16.1565 17.046L16.0585 16.206L17.6825 15.856C17.8972 17.8533 18.0465 19.1693 18.1305 19.804C18.1865 20.2707 18.2518 20.616 18.3265 20.84C18.4105 21.064 18.5272 21.218 18.6765 21.302C18.8352 21.3767 19.0638 21.414 19.3625 21.414H19.6145L19.7265 22.464L19.6145 23.5H19.3625ZM14.3925 20.168C14.3645 20.364 14.4625 20.532 14.6865 20.672C14.9198 20.812 15.2278 20.882 15.6105 20.882C15.9185 20.882 16.2685 20.826 16.6605 20.714C16.6325 20.574 16.5998 20.364 16.5625 20.084L16.3945 18.866C15.8625 19.034 15.4005 19.244 15.0085 19.496C14.6165 19.7387 14.4112 19.9627 14.3925 20.168ZM19.3146 21.414H19.3986C20.2386 21.414 20.8639 21.372 21.2746 21.288C21.6853 21.1947 21.9559 21.0593 22.0866 20.882C22.2173 20.7047 22.2826 20.448 22.2826 20.112C22.2826 19.8413 22.2359 19.398 22.1426 18.782L23.5846 18.502C23.7153 19.1833 23.7806 19.9533 23.7806 20.812C23.8179 20.9707 23.9206 21.1107 24.0886 21.232C24.2566 21.3533 24.5039 21.414 24.8306 21.414H24.9006L25.0126 22.464L24.9006 23.5H24.8166C24.4433 23.5 24.0979 23.4113 23.7806 23.234C23.4633 23.0567 23.1926 22.8233 22.9686 22.534C22.6979 22.8793 22.2873 23.1267 21.7366 23.276C21.1859 23.4253 20.4066 23.5 19.3986 23.5H19.3006L19.3146 21.414ZM20.4066 15.156L21.5826 16.332L20.4066 17.522L19.2166 16.332L20.4066 15.156ZM22.8706 15.156L24.0466 16.332L22.8706 17.522L21.6806 16.332L22.8706 15.156ZM24.6157 21.414H24.8257C25.9363 21.414 26.8183 21.3627 27.4717 21.26C28.1343 21.148 28.6243 20.952 28.9417 20.672C28.6803 20.6907 28.489 20.7 28.3677 20.7C27.6957 20.7 27.0983 20.5833 26.5757 20.35C26.0623 20.1167 25.6937 19.776 25.4697 19.328C25.3017 18.964 25.2177 18.5627 25.2177 18.124C25.2177 17.592 25.3297 17.074 25.5537 16.57C25.7777 16.066 26.0903 15.6553 26.4917 15.338C26.893 15.0113 27.3363 14.848 27.8217 14.848C28.3723 14.848 28.867 15.0673 29.3057 15.506C29.7443 15.9353 30.085 16.5047 30.3277 17.214C30.5797 17.9233 30.7057 18.6747 30.7057 19.468C30.7057 20.756 30.2203 21.75 29.2497 22.45C28.2883 23.15 26.8043 23.5 24.7977 23.5H24.6157V21.414ZM26.7017 12.244C26.9817 11.9547 27.2663 11.67 27.5557 11.39C27.9943 11.81 28.4237 12.2393 28.8437 12.678C28.5637 12.9673 28.279 13.252 27.9897 13.532L27.5557 13.966L26.2677 12.678L26.7017 12.244ZM26.7157 18.18C26.8557 18.3573 27.1077 18.502 27.4717 18.614C27.8357 18.7167 28.2463 18.768 28.7037 18.768C28.825 18.768 29.007 18.7587 29.2497 18.74C29.1283 18.1427 28.923 17.6433 28.6337 17.242C28.3443 16.8313 28.0223 16.626 27.6677 16.626C27.3783 16.626 27.131 16.7567 26.9257 17.018C26.7203 17.27 26.6177 17.536 26.6177 17.816C26.6177 17.9653 26.6503 18.0867 26.7157 18.18ZM35.383 23.5C35.0843 23.5 34.809 23.444 34.557 23.332C34.501 24.2093 34.1183 25.0167 33.409 25.754C32.6996 26.5007 31.7616 27.112 30.595 27.588L29.741 25.824C30.357 25.572 30.9216 25.278 31.435 24.942C31.9483 24.6153 32.3496 24.2887 32.639 23.962C32.9376 23.6353 33.087 23.3553 33.087 23.122C33.087 22.7393 32.8396 21.6987 32.345 20L32.275 19.72L33.843 19.104C33.9456 19.3933 34.067 19.8087 34.207 20.35C34.3283 20.7327 34.4776 21.008 34.655 21.176C34.8416 21.3347 35.0843 21.414 35.383 21.414H35.523L35.635 22.464L35.523 23.5H35.383ZM46.7258 23.5C45.9792 23.5 45.3678 23.192 44.8918 22.576C44.6678 22.8653 44.4018 23.0893 44.0938 23.248C43.7858 23.4067 43.4592 23.4907 43.1138 23.5H43.0718H43.0298C42.6005 23.4907 42.2318 23.3833 41.9238 23.178C41.6158 22.9727 41.3778 22.6833 41.2098 22.31C40.6872 23.094 40.0665 23.4907 39.3478 23.5H39.2778C38.8765 23.5 38.5265 23.3927 38.2278 23.178C37.9292 22.9633 37.7192 22.6787 37.5978 22.324C37.2992 22.7067 36.9538 23.0007 36.5618 23.206C36.1792 23.402 35.7685 23.5 35.3298 23.5H35.2878L35.1758 22.464L35.2878 21.414H35.3578C35.6472 21.414 35.9318 21.3533 36.2118 21.232C36.4918 21.1013 36.7018 20.9427 36.8418 20.756C37.0378 20.532 37.1872 20.28 37.2898 20C37.3925 19.72 37.4858 19.4213 37.5698 19.104L39.0258 19.258C39.0165 19.3047 38.9652 19.4913 38.8718 19.818C38.7785 20.1353 38.7318 20.4247 38.7318 20.686C38.7318 21.1713 38.9278 21.414 39.3198 21.414H39.3478C39.8332 21.414 40.2065 21.1573 40.4678 20.644C40.6825 20.2147 40.8365 19.6687 40.9298 19.006L42.3858 19.076C42.3485 19.2253 42.3112 19.44 42.2738 19.72C42.2458 19.9907 42.2318 20.2147 42.2318 20.392C42.2318 21.0733 42.5118 21.414 43.0718 21.414C43.2958 21.414 43.5058 21.372 43.7018 21.288C43.9072 21.204 44.0658 21.0967 44.1778 20.966C44.0938 20.6207 43.9678 19.9907 43.7998 19.076L45.2418 18.684C45.3538 19.2813 45.4425 19.7387 45.5078 20.056C45.5732 20.3733 45.6338 20.6113 45.6898 20.77C45.7645 20.9847 45.8812 21.148 46.0398 21.26C46.2078 21.3627 46.4365 21.414 46.7258 21.414H46.8098L46.9218 22.464L46.7958 23.5H46.7258ZM40.4958 15.394L41.6158 16.5C41.6158 16.5 41.3685 16.7473 40.8738 17.242L40.4958 17.62L39.3898 16.5L40.4958 15.394ZM43.1418 15.394L44.2478 16.5L43.1418 17.62L42.0218 16.5L43.1418 15.394ZM40.8318 14.848C41.0465 14.624 41.2658 14.4047 41.4898 14.19L41.8118 13.868C42.1478 14.1853 42.4745 14.512 42.7918 14.848L41.8118 15.842L40.8318 14.848ZM46.5358 21.414H46.6198C47.4598 21.414 48.0852 21.372 48.4958 21.288C48.9065 21.1947 49.1772 21.0593 49.3078 20.882C49.4385 20.7047 49.5038 20.448 49.5038 20.112C49.5038 19.8413 49.4572 19.398 49.3638 18.782L50.8058 18.502C50.9365 19.1833 51.0018 19.9533 51.0018 20.812C51.0392 20.9707 51.1418 21.1107 51.3098 21.232C51.4778 21.3533 51.7252 21.414 52.0518 21.414H52.1218L52.2338 22.464L52.1218 23.5H52.0378C51.6645 23.5 51.3192 23.4113 51.0018 23.234C50.6845 23.0567 50.4138 22.8233 50.1898 22.534C49.9192 22.8793 49.5085 23.1267 48.9578 23.276C48.4072 23.4253 47.6278 23.5 46.6198 23.5H46.5218L46.5358 21.414ZM48.9718 27.042L47.7958 25.866L48.9718 24.676L49.3638 25.068L50.1618 25.866L48.9718 27.042ZM46.5078 27.042L45.3318 25.866L46.5078 24.676L46.8998 25.068L47.6978 25.866L46.5078 27.042ZM51.8229 21.414H52.5089C53.4329 21.414 54.0862 21.3347 54.4689 21.176C54.8516 21.0173 55.0429 20.7747 55.0429 20.448C55.0336 20.2427 54.9262 19.8507 54.7209 19.272C54.5156 18.684 54.3662 18.292 54.2729 18.096L55.7569 17.284C55.9436 17.676 56.1302 18.1987 56.3169 18.852C56.5036 19.496 56.5969 20.0607 56.5969 20.546C56.5876 21.498 56.2656 22.2307 55.6309 22.744C54.9962 23.248 54.0582 23.5 52.8169 23.5H51.8369L51.8229 21.414ZM54.7349 26.692L53.6149 25.586L54.7349 24.452C54.8282 24.5547 55.1082 24.8393 55.5749 25.306C55.5749 25.306 55.6682 25.3993 55.8549 25.586L54.7349 26.692ZM52.0889 26.692L50.9829 25.586C50.9829 25.586 51.1322 25.4367 51.4309 25.138L52.0889 24.452C52.0889 24.452 52.3409 24.704 52.8449 25.208L53.2229 25.586L52.0889 26.692ZM53.4189 28.218L52.4389 27.238L53.4189 26.244C53.4189 26.244 53.6382 26.4633 54.0769 26.902L54.4129 27.238L53.4189 28.218ZM64.718 26.846C63.8313 26.846 63.0473 26.6733 62.366 26.328C61.6847 25.9827 61.1573 25.4693 60.784 24.788C60.42 24.116 60.2707 23.3087 60.336 22.366C60.392 21.47 60.7093 20.3827 61.288 19.104L62.646 19.72C62.394 20.2893 62.2027 20.784 62.072 21.204C61.9507 21.6147 61.89 22.0347 61.89 22.464C61.89 23.2387 62.128 23.8173 62.604 24.2C63.0893 24.5827 63.794 24.774 64.718 24.774C65.474 24.774 66.1507 24.6387 66.748 24.368C67.3453 24.1067 67.7747 23.7753 68.036 23.374C68.0453 23.346 67.7513 23.2573 67.154 23.108L66.412 22.898C65.6747 22.6833 65.152 22.4267 64.844 22.128C64.536 21.8293 64.382 21.4093 64.382 20.868C64.382 20.112 64.5733 19.3887 64.956 18.698C65.3387 18.0073 65.8427 17.4473 66.468 17.018C67.0933 16.5887 67.756 16.374 68.456 16.374C68.736 16.374 69.0207 16.416 69.31 16.5C69.5993 16.5747 69.8 16.668 69.912 16.78L69.324 18.586C69.2307 18.5487 69.0953 18.516 68.918 18.488C68.7407 18.46 68.582 18.446 68.442 18.446C68.0593 18.446 67.6907 18.53 67.336 18.698C66.9907 18.8567 66.6967 19.0713 66.454 19.342C66.2113 19.6033 66.048 19.888 65.964 20.196C65.9547 20.2333 65.95 20.28 65.95 20.336C65.95 20.4947 66.0573 20.6347 66.272 20.756C66.496 20.868 66.9113 20.994 67.518 21.134C68.3673 21.33 68.9413 21.5773 69.24 21.876C69.548 22.1653 69.702 22.506 69.702 22.898C69.702 23.5793 69.4827 24.2233 69.044 24.83C68.6053 25.4367 68.0033 25.922 67.238 26.286C66.482 26.6593 65.642 26.846 64.718 26.846ZM70.8298 25.782C72.1084 25.502 73.1024 25.18 73.8118 24.816C74.5211 24.4613 74.9878 24.0273 75.2118 23.514C74.1851 23.4953 73.3544 23.3927 72.7198 23.206C72.0851 23.01 71.6418 22.6413 71.3898 22.1C71.2218 21.736 71.1378 21.3347 71.1378 20.896C71.1378 20.3453 71.2544 19.7993 71.4878 19.258C71.7211 18.7073 72.0431 18.2593 72.4538 17.914C72.8644 17.5593 73.3124 17.382 73.7978 17.382C74.2831 17.382 74.7311 17.564 75.1418 17.928C75.5524 18.292 75.8931 18.782 76.1638 19.398C76.4438 20.014 76.6304 20.686 76.7238 21.414H77.3118L77.4238 22.464L77.3118 23.5H76.6818C76.4484 24.536 75.8791 25.4087 74.9738 26.118C74.0778 26.8273 72.9111 27.3173 71.4738 27.588L70.8298 25.782ZM72.6778 20.924C72.8084 21.1013 73.0931 21.2273 73.5318 21.302C73.9704 21.3673 74.5398 21.4047 75.2398 21.414C75.1091 20.798 74.8991 20.2847 74.6098 19.874C74.3204 19.454 73.9938 19.244 73.6298 19.244C73.4431 19.244 73.2658 19.314 73.0978 19.454C72.9391 19.5847 72.8131 19.7527 72.7198 19.958C72.6264 20.1633 72.5798 20.3593 72.5798 20.546C72.5798 20.7047 72.6124 20.8307 72.6778 20.924ZM87.5777 23.5C85.8137 23.4907 84.6377 22.9213 84.0497 21.792C82.8364 22.408 81.7677 22.8467 80.8437 23.108C79.9197 23.36 78.8417 23.4907 77.6097 23.5H76.9797V21.414H78.0297C79.0844 21.414 80.0737 21.3067 80.9977 21.092C81.9217 20.868 82.897 20.4947 83.9237 19.972C83.6717 19.8693 83.3404 19.7153 82.9297 19.51C82.1084 19.09 81.3944 18.88 80.7877 18.88C80.433 18.88 80.1157 18.978 79.8357 19.174C79.565 19.3607 79.355 19.5753 79.2057 19.818L78.0297 18.964C78.739 17.5733 79.677 16.878 80.8437 16.878C81.2357 16.878 81.6137 16.9433 81.9777 17.074C82.3417 17.2047 82.8737 17.4473 83.5737 17.802C84.115 18.082 84.5724 18.2967 84.9457 18.446C85.3284 18.5953 85.7484 18.7167 86.2057 18.81L86.2757 20.686C86.0984 20.7327 85.8464 20.84 85.5197 21.008C85.949 21.2787 86.453 21.414 87.0317 21.414H87.7177L87.8297 22.464L87.7177 23.5H87.5777ZM81.7397 24.55C82.029 24.83 82.3137 25.1147 82.5937 25.404L83.0277 25.838L81.7397 27.126L80.4377 25.838L81.7397 24.55ZM87.4497 21.414H87.5337C88.3737 21.414 88.9991 21.372 89.4097 21.288C89.8204 21.1947 90.0911 21.0593 90.2217 20.882C90.3524 20.7047 90.4177 20.448 90.4177 20.112C90.4177 19.8413 90.3711 19.398 90.2777 18.782L91.7197 18.502C91.8504 19.1833 91.9157 19.9533 91.9157 20.812C91.9531 20.9707 92.0557 21.1107 92.2237 21.232C92.3917 21.3533 92.6391 21.414 92.9657 21.414H93.0357L93.1477 22.464L93.0357 23.5H92.9517C92.5784 23.5 92.2331 23.4113 91.9157 23.234C91.5984 23.0567 91.3277 22.8233 91.1037 22.534C90.8331 22.8793 90.4224 23.1267 89.8717 23.276C89.3211 23.4253 88.5417 23.5 87.5337 23.5H87.4357L87.4497 21.414ZM88.5417 15.156L89.7177 16.332L88.5417 17.522L87.3517 16.332L88.5417 15.156ZM91.0057 15.156L92.1817 16.332L91.0057 17.522L89.8157 16.332L91.0057 15.156ZM104.231 23.5C103.484 23.5 102.873 23.192 102.397 22.576C102.173 22.8653 101.907 23.0893 101.599 23.248C101.291 23.4067 100.964 23.4907 100.619 23.5H100.577H100.535C100.105 23.4907 99.7368 23.3833 99.4288 23.178C99.1208 22.9727 98.8828 22.6833 98.7148 22.31C98.1921 23.094 97.5715 23.4907 96.8528 23.5H96.7828C96.3815 23.5 96.0315 23.3927 95.7328 23.178C95.4341 22.9633 95.2241 22.6787 95.1028 22.324C94.8041 22.7067 94.4588 23.0007 94.0668 23.206C93.6841 23.402 93.2735 23.5 92.8348 23.5H92.7928L92.6808 22.464L92.7928 21.414H92.8628C93.1521 21.414 93.4368 21.3533 93.7168 21.232C93.9968 21.1013 94.2068 20.9427 94.3468 20.756C94.5428 20.532 94.6921 20.28 94.7948 20C94.8975 19.72 94.9908 19.4213 95.0748 19.104L96.5308 19.258C96.5215 19.3047 96.4701 19.4913 96.3768 19.818C96.2835 20.1353 96.2368 20.4247 96.2368 20.686C96.2368 21.1713 96.4328 21.414 96.8248 21.414H96.8528C97.3381 21.414 97.7115 21.1573 97.9728 20.644C98.1875 20.2147 98.3415 19.6687 98.4348 19.006L99.8908 19.076C99.8535 19.2253 99.8161 19.44 99.7788 19.72C99.7508 19.9907 99.7368 20.2147 99.7368 20.392C99.7368 21.0733 100.017 21.414 100.577 21.414C100.801 21.414 101.011 21.372 101.207 21.288C101.412 21.204 101.571 21.0967 101.683 20.966C101.599 20.6207 101.473 19.9907 101.305 19.076L102.747 18.684C102.859 19.2813 102.947 19.7387 103.013 20.056C103.078 20.3733 103.139 20.6113 103.195 20.77C103.269 20.9847 103.386 21.148 103.545 21.26C103.713 21.3627 103.941 21.414 104.231 21.414H104.315L104.427 22.464L104.301 23.5H104.231ZM104.013 21.414H105.063C106.117 21.414 107.107 21.3067 108.031 21.092C108.955 20.868 109.93 20.4947 110.957 19.972C110.705 19.8693 110.373 19.7153 109.963 19.51C109.141 19.09 108.427 18.88 107.821 18.88C107.466 18.88 107.149 18.978 106.869 19.174C106.598 19.3607 106.388 19.5753 106.239 19.818L105.063 18.964C105.772 17.5733 106.71 16.878 107.877 16.878C108.269 16.878 108.647 16.9433 109.011 17.074C109.375 17.2047 109.907 17.4473 110.607 17.802C111.148 18.082 111.605 18.2967 111.979 18.446C112.361 18.5953 112.781 18.7167 113.239 18.81L113.309 20.686C113.057 20.7607 112.562 20.9987 111.825 21.4C111.769 21.4373 111.717 21.47 111.671 21.498C111.624 21.5167 111.582 21.5353 111.545 21.554C110.621 22.0393 109.818 22.4173 109.137 22.688C108.455 22.9587 107.76 23.164 107.051 23.304C106.341 23.4347 105.539 23.5 104.643 23.5H104.013V21.414ZM108.773 24.564C109.062 24.844 109.347 25.1287 109.627 25.418L110.061 25.852L108.773 27.14L107.471 25.852L108.773 24.564Z" fill="#393C97"/>
<line x1="124.5" y1="8" x2="124.5" y2="32" stroke="#A3A6D2"/>
<path d="M153 30V19" stroke="#393C97" stroke-width="1.5" stroke-miterlimit="10" stroke-linecap="round" stroke-linejoin="round"/>
<path d="M153 15V10" stroke="#393C97" stroke-width="1.5" stroke-miterlimit="10" stroke-linecap="round" stroke-linejoin="round"/>
<path d="M146 30V25" stroke="#393C97" stroke-width="1.5" stroke-miterlimit="10" stroke-linecap="round" stroke-linejoin="round"/>
<path d="M146 21V10" stroke="#393C97" stroke-width="1.5" stroke-miterlimit="10" stroke-linecap="round" stroke-linejoin="round"/>
<path d="M139 30V19" stroke="#393C97" stroke-width="1.5" stroke-miterlimit="10" stroke-linecap="round" stroke-linejoin="round"/>
<path d="M139 15V10" stroke="#393C97" stroke-width="1.5" stroke-miterlimit="10" stroke-linecap="round" stroke-linejoin="round"/>
<path d="M137 19H141" stroke="#393C97" stroke-width="1.5" stroke-miterlimit="10" stroke-linecap="round" stroke-linejoin="round"/>
<path d="M151 19H155" stroke="#393C97" stroke-width="1.5" stroke-miterlimit="10" stroke-linecap="round" stroke-linejoin="round"/>
<path d="M144 21H148" stroke="#393C97" stroke-width="1.5" stroke-miterlimit="10" stroke-linecap="round" stroke-linejoin="round"/>
</svg>
