<svg width="40" height="40" viewBox="0 0 40 40" fill="none" xmlns="http://www.w3.org/2000/svg">
<path d="M0 4C0 1.79086 1.79086 0 4 0H36C38.2091 0 40 1.79086 40 4V36C40 38.2091 38.2091 40 36 40H4C1.79086 40 0 38.2091 0 36V4Z" fill="#393C97"/>
<path d="M19.5 29C24.7467 29 29 24.7467 29 19.5C29 14.2533 24.7467 10 19.5 10C14.2533 10 10 14.2533 10 19.5C10 24.7467 14.2533 29 19.5 29Z" stroke="#F3F5FF" stroke-width="1.5" stroke-linecap="round" stroke-linejoin="round"/>
<path opacity="0.4" d="M30 30L28 28" stroke="#F3F5FF" stroke-width="1.5" stroke-linecap="round" stroke-linejoin="round"/>
</svg>
