<svg width="142" height="40" viewBox="0 0 142 40" fill="none" xmlns="http://www.w3.org/2000/svg">
<path d="M0 4C0 1.79086 1.79086 0 4 0H138C140.209 0 142 1.79086 142 4V36C142 38.2091 140.209 40 138 40H4C1.79086 40 0 38.2091 0 36V4Z" fill="#D8DBF0"/>
<path d="M19.1098 23.5C18.6525 23.5 18.2558 23.4253 17.9198 23.276C17.5932 23.1267 17.3178 22.8933 17.0938 22.576C16.5338 22.744 15.9925 22.828 15.4698 22.828C14.6298 22.828 13.9392 22.6273 13.3978 22.226C12.8658 21.8153 12.5998 21.26 12.5998 20.56C12.5998 19.748 12.8985 19.062 13.4958 18.502C14.0932 17.942 14.8958 17.4567 15.9038 17.046L15.8058 16.206L17.4298 15.856C17.6445 17.8533 17.7938 19.1693 17.8778 19.804C17.9338 20.2707 17.9992 20.616 18.0738 20.84C18.1578 21.064 18.2745 21.218 18.4238 21.302C18.5825 21.3767 18.8112 21.414 19.1098 21.414H19.3618L19.4738 22.464L19.3618 23.5H19.1098ZM14.1398 20.168C14.1118 20.364 14.2098 20.532 14.4338 20.672C14.6672 20.812 14.9752 20.882 15.3578 20.882C15.6658 20.882 16.0158 20.826 16.4078 20.714C16.3798 20.574 16.3472 20.364 16.3098 20.084L16.1418 18.866C15.6098 19.034 15.1478 19.244 14.7558 19.496C14.3638 19.7387 14.1585 19.9627 14.1398 20.168ZM19.0479 21.414H19.3419C20.0606 21.414 20.6579 20.9753 21.1339 20.098C21.6099 19.2393 22.0673 18.5907 22.5059 18.152C22.9446 17.7133 23.4253 17.494 23.9479 17.494C24.5173 17.494 24.9839 17.6807 25.3479 18.054C25.7119 18.4273 26.0153 18.9733 26.2579 19.692C26.4726 20.3453 26.6499 20.798 26.7899 21.05C26.9393 21.2927 27.1166 21.414 27.3219 21.414H27.4899L27.6019 22.464L27.4899 23.5H27.3219C27.0326 23.5 26.7666 23.4253 26.5239 23.276C26.2813 23.1173 26.0759 22.898 25.9079 22.618C25.8426 22.7767 25.7493 22.9213 25.6279 23.052C25.5066 23.1827 25.3713 23.29 25.2219 23.374C25.0259 23.5047 24.7739 23.57 24.4659 23.57C23.7566 23.57 22.8093 23.1967 21.6239 22.45C21.3346 22.8047 20.9939 23.0707 20.6019 23.248C20.2099 23.416 19.7806 23.5 19.3139 23.5H19.0479V21.414ZM25.1099 21.764C25.1193 21.7173 25.1239 21.638 25.1239 21.526C25.1239 21.2367 25.0726 20.924 24.9699 20.588C24.8766 20.252 24.7319 19.9673 24.5359 19.734C24.3493 19.4913 24.1299 19.37 23.8779 19.37C23.4579 19.37 23.0006 19.846 22.5059 20.798C22.9726 21.134 23.4253 21.3813 23.8639 21.54C24.3119 21.6987 24.6713 21.778 24.9419 21.778C25.0259 21.778 25.0819 21.7733 25.1099 21.764ZM27.2208 21.414H27.4448C27.9114 21.414 28.2521 21.4093 28.4668 21.4C28.1868 20.9893 28.0468 20.5647 28.0468 20.126C28.0468 20.0233 28.0654 19.8693 28.1028 19.664C28.2241 19.0667 28.4481 18.516 28.7748 18.012C28.6534 17.984 28.5088 17.9467 28.3408 17.9L29.1108 15.968C30.9494 16.528 32.3868 17.0647 33.4228 17.578C34.4588 18.082 35.1868 18.5813 35.6068 19.076C36.0268 19.5707 36.2368 20.1073 36.2368 20.686C36.2368 21.0407 36.1574 21.4793 35.9988 22.002C35.8494 22.4873 35.5228 22.8513 35.0188 23.094C34.5148 23.3367 33.9128 23.458 33.2128 23.458C32.4381 23.458 31.6868 23.332 30.9588 23.08C30.1094 23.36 28.9381 23.5 27.4448 23.5H27.2208V21.414ZM29.5588 19.846C29.5588 20.294 29.9694 20.7047 30.7908 21.078C31.5654 20.826 31.9528 20.4387 31.9528 19.916C31.9528 19.6827 31.8874 19.4633 31.7568 19.258C31.6261 19.0433 31.4534 18.8847 31.2388 18.782L30.9028 18.67C30.8748 18.6607 30.8281 18.656 30.7628 18.656C30.4641 18.656 30.1888 18.7773 29.9368 19.02C29.6848 19.2627 29.5588 19.538 29.5588 19.846ZM32.8068 21.61C33.0308 21.638 33.2408 21.652 33.4368 21.652C33.7728 21.652 34.0481 21.6147 34.2628 21.54C34.4868 21.456 34.6268 21.3347 34.6828 21.176C34.7108 21.1013 34.7248 21.036 34.7248 20.98C34.7248 20.5507 34.2348 20.0933 33.2548 19.608C33.2641 19.804 33.2548 20.028 33.2268 20.28C33.1428 20.8027 33.0028 21.246 32.8068 21.61ZM42.6061 23.556C41.7381 23.556 41.0614 23.3227 40.5761 22.856C40.1001 22.3893 39.8621 21.7873 39.8621 21.05C39.8621 20.7607 39.9041 20.4573 39.9881 20.14C40.1748 19.3747 40.5854 18.6187 41.2201 17.872L40.7441 17.578L41.8081 15.996C43.0401 16.7427 43.9688 17.4987 44.5941 18.264C45.2194 19.02 45.5321 19.8227 45.5321 20.672C45.5321 21.2413 45.4014 21.7453 45.1401 22.184C44.8881 22.6133 44.5381 22.9493 44.0901 23.192C43.6514 23.4347 43.1568 23.556 42.6061 23.556ZM41.3321 20.518C41.3134 20.8353 41.4208 21.0827 41.6541 21.26C41.8874 21.4373 42.2374 21.526 42.7041 21.526C43.0774 21.526 43.3854 21.456 43.6281 21.316C43.8801 21.176 44.0294 20.994 44.0761 20.77C44.0108 20.462 43.8428 20.1447 43.5721 19.818C43.3108 19.482 42.9374 19.1227 42.4521 18.74C41.7148 19.4307 41.3414 20.0233 41.3321 20.518ZM53.8423 23.5C53.4316 23.5 53.063 23.4253 52.7363 23.276C52.419 23.1173 52.1296 22.884 51.8683 22.576C51.187 23.2387 50.3423 23.57 49.3343 23.57C48.1956 23.57 47.127 23.1967 46.1283 22.45L46.8843 20.98C47.183 21.1387 47.5096 21.2833 47.8643 21.414C48.219 21.5353 48.639 21.596 49.1243 21.596C49.8616 21.596 50.501 21.4233 51.0423 21.078L49.1243 16.696L50.5663 15.912L52.4843 20.448C52.6336 20.8213 52.8063 21.078 53.0023 21.218C53.1983 21.3487 53.4783 21.414 53.8423 21.414H54.0243L54.1363 22.464L54.0243 23.5H53.8423ZM53.7447 21.414H53.9687C54.4354 21.414 54.7761 21.4093 54.9907 21.4C54.7107 20.9893 54.5707 20.5647 54.5707 20.126C54.5707 20.0233 54.5894 19.8693 54.6267 19.664C54.7481 19.0667 54.9721 18.516 55.2987 18.012C55.1774 17.984 55.0327 17.9467 54.8647 17.9L55.6347 15.968C57.4734 16.528 58.9107 17.0647 59.9467 17.578C60.9827 18.082 61.7107 18.5813 62.1307 19.076C62.5507 19.5707 62.7607 20.1073 62.7607 20.686C62.7607 21.0407 62.6814 21.4793 62.5227 22.002C62.3734 22.4873 62.0467 22.8513 61.5427 23.094C61.0387 23.3367 60.4367 23.458 59.7367 23.458C58.9621 23.458 58.2107 23.332 57.4827 23.08C56.6334 23.36 55.4621 23.5 53.9687 23.5H53.7447V21.414ZM56.0827 19.846C56.0827 20.294 56.4934 20.7047 57.3147 21.078C58.0894 20.826 58.4767 20.4387 58.4767 19.916C58.4767 19.6827 58.4114 19.4633 58.2807 19.258C58.1501 19.0433 57.9774 18.8847 57.7627 18.782L57.4267 18.67C57.3987 18.6607 57.3521 18.656 57.2867 18.656C56.9881 18.656 56.7127 18.7773 56.4607 19.02C56.2087 19.2627 56.0827 19.538 56.0827 19.846ZM59.3307 21.61C59.5547 21.638 59.7647 21.652 59.9607 21.652C60.2967 21.652 60.5721 21.6147 60.7867 21.54C61.0107 21.456 61.1507 21.3347 61.2067 21.176C61.2347 21.1013 61.2487 21.036 61.2487 20.98C61.2487 20.5507 60.7587 20.0933 59.7787 19.608C59.7881 19.804 59.7787 20.028 59.7507 20.28C59.6667 20.8027 59.5267 21.246 59.3307 21.61ZM66.9867 23.5C65.96 23.5 65.218 23.206 64.7607 22.618C64.3127 22.03 64.0887 21.134 64.0887 19.93C64.0793 18.782 64.042 17.62 63.9767 16.444C63.9207 15.2587 63.8367 14.2833 63.7247 13.518L65.4607 13.14C65.554 13.8213 65.6287 14.7453 65.6847 15.912C65.7407 17.0693 65.7687 18.1427 65.7687 19.132V19.664C65.7593 20.14 65.7827 20.4993 65.8387 20.742C65.8947 20.9847 66.0067 21.1573 66.1747 21.26C66.352 21.3627 66.6227 21.414 66.9867 21.414H67.0567L67.1687 22.464L67.0567 23.5H66.9867ZM78.2608 23.5C77.5142 23.5 76.9028 23.192 76.4268 22.576C76.2028 22.8653 75.9368 23.0893 75.6288 23.248C75.3208 23.4067 74.9942 23.4907 74.6488 23.5H74.6068H74.5648C74.1355 23.4907 73.7668 23.3833 73.4588 23.178C73.1508 22.9727 72.9128 22.6833 72.7448 22.31C72.2222 23.094 71.6015 23.4907 70.8828 23.5H70.8128C70.4115 23.5 70.0615 23.3927 69.7628 23.178C69.4642 22.9633 69.2542 22.6787 69.1328 22.324C68.8342 22.7067 68.4888 23.0007 68.0968 23.206C67.7142 23.402 67.3035 23.5 66.8648 23.5H66.8228L66.7108 22.464L66.8228 21.414H66.8928C67.1822 21.414 67.4668 21.3533 67.7468 21.232C68.0268 21.1013 68.2368 20.9427 68.3768 20.756C68.5728 20.532 68.7222 20.28 68.8248 20C68.9275 19.72 69.0208 19.4213 69.1048 19.104L70.5608 19.258C70.5515 19.3047 70.5002 19.4913 70.4068 19.818C70.3135 20.1353 70.2668 20.4247 70.2668 20.686C70.2668 21.1713 70.4628 21.414 70.8548 21.414H70.8828C71.3682 21.414 71.7415 21.1573 72.0028 20.644C72.2175 20.2147 72.3715 19.6687 72.4648 19.006L73.9208 19.076C73.8835 19.2253 73.8462 19.44 73.8088 19.72C73.7808 19.9907 73.7668 20.2147 73.7668 20.392C73.7668 21.0733 74.0468 21.414 74.6068 21.414C74.8308 21.414 75.0408 21.372 75.2368 21.288C75.4422 21.204 75.6008 21.0967 75.7128 20.966C75.6288 20.6207 75.5028 19.9907 75.3348 19.076L76.7768 18.684C76.8888 19.2813 76.9775 19.7387 77.0428 20.056C77.1082 20.3733 77.1688 20.6113 77.2248 20.77C77.2995 20.9847 77.4162 21.148 77.5748 21.26C77.7428 21.3627 77.9715 21.414 78.2608 21.414H78.3448L78.4568 22.464L78.3308 23.5H78.2608ZM72.0308 15.394L73.1508 16.5C73.1508 16.5 72.9035 16.7473 72.4088 17.242L72.0308 17.62L70.9248 16.5L72.0308 15.394ZM74.6768 15.394L75.7828 16.5L74.6768 17.62L73.5568 16.5L74.6768 15.394ZM72.3668 14.848C72.5815 14.624 72.8008 14.4047 73.0248 14.19L73.3468 13.868C73.6828 14.1853 74.0095 14.512 74.3268 14.848L73.3468 15.842L72.3668 14.848ZM78.0988 21.414H78.3508C79.0788 21.414 79.6762 20.9753 80.1428 20.098C80.6095 19.23 81.0575 18.5813 81.4868 18.152C81.9162 17.7133 82.3968 17.494 82.9288 17.494C83.4328 17.494 83.8762 17.6573 84.2588 17.984C84.6415 18.3013 84.9308 18.7167 85.1268 19.23C85.3322 19.734 85.4348 20.266 85.4348 20.826C85.4348 21.3673 85.3322 21.8713 85.1268 22.338C84.9215 22.7953 84.6228 23.1407 84.2308 23.374C84.0255 23.5047 83.7735 23.57 83.4748 23.57C82.7562 23.57 81.8042 23.1967 80.6188 22.45C80.0402 23.15 79.2748 23.5 78.3228 23.5H78.0568L78.0988 21.414ZM81.5148 20.798C81.9535 21.0687 82.3502 21.2833 82.7048 21.442C83.0595 21.5913 83.3302 21.666 83.5168 21.666C83.6102 21.666 83.6755 21.652 83.7128 21.624C83.8062 21.5587 83.8762 21.4653 83.9228 21.344C83.9788 21.2133 84.0068 21.064 84.0068 20.896C84.0068 20.5227 83.9042 20.1773 83.6988 19.86C83.4935 19.5333 83.2228 19.37 82.8868 19.37C82.4668 19.37 82.0095 19.846 81.5148 20.798Z" fill="#393C97"/>
<line x1="96.5" y1="8" x2="96.5" y2="32" stroke="#A3A6D2"/>
<g clip-path="url(#clip0_6_449)">
<path d="M124.321 11.1632L122.094 12.054L121.659 11.0586L120.671 11.1656C119.679 11.2727 118.816 11.6309 117.99 12.2828C117.164 11.6293 116.307 11.2714 115.329 11.1656L114.341 11.0586L113.906 12.054L111.678 11.1632L107.5 20.913L109.995 21.8645V28.9411L117.99 24.9439L125.984 28.9411V21.871L128.5 20.9133L124.321 11.1632ZM111.225 26.9511V22.334L116.463 24.3322L111.225 26.9511ZM117.375 23.3633L109.135 20.22L112.336 12.7506L113.413 13.1815L110.663 19.4702L117.375 22.0514L117.375 23.3633ZM117.375 20.7333L112.743 18.952C113.534 18.5476 114.474 18.4952 115.331 18.8442L117.375 19.7387L117.375 20.7333ZM117.375 18.3961L115.804 17.7084C114.83 17.3099 113.781 17.2826 112.828 17.5892L115.106 12.3788C115.233 12.411 116.209 12.3799 117.375 13.3692V18.3961ZM118.605 13.37C119.749 12.4041 120.829 12.3953 120.894 12.3788L123.163 17.569C122.265 17.2829 121.289 17.3215 120.343 17.7084L118.605 18.4202V13.37ZM118.605 19.7494L120.809 18.8469C121.642 18.5055 122.512 18.5502 123.267 18.947L118.605 20.7346V19.7494ZM124.754 26.951L119.518 24.3326L124.754 22.3391V26.951ZM118.605 23.3641V22.0517L125.337 19.4706L122.587 13.1815L123.664 12.7507L126.865 20.2196L118.605 23.3641Z" fill="#393C97"/>
</g>
<defs>
<clipPath id="clip0_6_449">
<rect width="21" height="21" fill="white" transform="translate(107.5 9.5)"/>
</clipPath>
</defs>
</svg>
