<svg width="94" height="40" viewBox="0 0 94 40" fill="none" xmlns="http://www.w3.org/2000/svg">
<path d="M4.1416 0.5H89.1416C91.0746 0.5 92.6416 2.067 92.6416 4V36C92.6416 37.933 91.0746 39.5 89.1416 39.5H4.1416C2.20861 39.5 0.641602 37.933 0.641602 36V4C0.641602 2.067 2.20861 0.5 4.1416 0.5Z" fill="white"/>
<path d="M4.1416 0.5H89.1416C91.0746 0.5 92.6416 2.067 92.6416 4V36C92.6416 37.933 91.0746 39.5 89.1416 39.5H4.1416C2.20861 39.5 0.641602 37.933 0.641602 36V4C0.641602 2.067 2.20861 0.5 4.1416 0.5Z" stroke="#898BC4"/>
<path d="M17.8439 23.5C17.5452 23.5 17.2699 23.444 17.0179 23.332C16.9619 24.2093 16.5792 25.0167 15.8699 25.754C15.1605 26.5007 14.2225 27.112 13.0559 27.588L12.2019 25.824C12.8179 25.572 13.3825 25.278 13.8959 24.942C14.4092 24.6153 14.8105 24.2887 15.0999 23.962C15.3985 23.6353 15.5479 23.3553 15.5479 23.122C15.5479 22.7393 15.3005 21.6987 14.8059 20L14.7359 19.72L16.3039 19.104C16.4065 19.3933 16.5279 19.8087 16.6679 20.35C16.7892 20.7327 16.9385 21.008 17.1159 21.176C17.3025 21.3347 17.5452 21.414 17.8439 21.414H17.9839L18.0959 22.464L17.9839 23.5H17.8439ZM17.7207 21.414H17.8047C18.6447 21.414 19.2701 21.372 19.6807 21.288C20.0914 21.1947 20.3621 21.0593 20.4927 20.882C20.6234 20.7047 20.6887 20.448 20.6887 20.112C20.6887 19.8413 20.6421 19.398 20.5487 18.782L21.9907 18.502C22.1214 19.1833 22.1867 19.9533 22.1867 20.812C22.2241 20.9707 22.3267 21.1107 22.4947 21.232C22.6627 21.3533 22.9101 21.414 23.2367 21.414H23.3067L23.4187 22.464L23.3067 23.5H23.2227C22.8494 23.5 22.5041 23.4113 22.1867 23.234C21.8694 23.0567 21.5987 22.8233 21.3747 22.534C21.1041 22.8793 20.6934 23.1267 20.1427 23.276C19.5921 23.4253 18.8127 23.5 17.8047 23.5H17.7067L17.7207 21.414ZM18.8127 15.156L19.9887 16.332L18.8127 17.522L17.6227 16.332L18.8127 15.156ZM21.2767 15.156L22.4527 16.332L21.2767 17.522L20.0867 16.332L21.2767 15.156ZM27.2498 23.5C26.8951 23.5 26.5498 23.4067 26.2138 23.22C25.8871 23.0333 25.5978 22.7767 25.3458 22.45C25.1311 22.7767 24.8511 23.0333 24.5058 23.22C24.1698 23.4067 23.7871 23.5 23.3578 23.5H23.0218V21.414H23.3158C23.7825 21.414 24.1185 21.33 24.3238 21.162C24.5385 20.9847 24.6458 20.6907 24.6458 20.28V20.252C24.6178 19.5893 24.5618 18.474 24.4778 16.906C24.3938 15.338 24.3191 14.218 24.2538 13.546L26.0038 13.154C26.0785 13.91 26.1578 15.6227 26.2418 18.292L26.3258 20.266C26.3445 20.6767 26.4285 20.9707 26.5778 21.148C26.7365 21.3253 26.9605 21.414 27.2498 21.414H27.4038L27.5158 22.464L27.4038 23.5H27.2498ZM27.1204 21.414H27.2044C28.0444 21.414 28.6697 21.372 29.0804 21.288C29.4911 21.1947 29.7617 21.0593 29.8924 20.882C30.0231 20.7047 30.0884 20.448 30.0884 20.112C30.0884 19.8413 30.0417 19.398 29.9484 18.782L31.3904 18.502C31.5211 19.1833 31.5864 19.9533 31.5864 20.812C31.6237 20.9707 31.7264 21.1107 31.8944 21.232C32.0624 21.3533 32.3097 21.414 32.6364 21.414H32.7064L32.8184 22.464L32.7064 23.5H32.6224C32.2491 23.5 31.9037 23.4113 31.5864 23.234C31.2691 23.0567 30.9984 22.8233 30.7744 22.534C30.5037 22.8793 30.0931 23.1267 29.5424 23.276C28.9917 23.4253 28.2124 23.5 27.2044 23.5H27.1064L27.1204 21.414ZM29.5564 27.042L28.3804 25.866L29.5564 24.676L29.9484 25.068L30.7464 25.866L29.5564 27.042ZM27.0924 27.042L25.9164 25.866L27.0924 24.676L27.4844 25.068L28.2824 25.866L27.0924 27.042ZM32.4215 21.414H32.6315C33.7422 21.414 34.6242 21.3627 35.2775 21.26C35.9402 21.148 36.4302 20.952 36.7475 20.672C36.4862 20.6907 36.2948 20.7 36.1735 20.7C35.5015 20.7 34.9042 20.5833 34.3815 20.35C33.8682 20.1167 33.4995 19.776 33.2755 19.328C33.1075 18.964 33.0235 18.5627 33.0235 18.124C33.0235 17.592 33.1355 17.074 33.3595 16.57C33.5835 16.066 33.8962 15.6553 34.2975 15.338C34.6988 15.0113 35.1422 14.848 35.6275 14.848C36.1782 14.848 36.6728 15.0673 37.1115 15.506C37.5502 15.9353 37.8908 16.5047 38.1335 17.214C38.3855 17.9233 38.5115 18.6747 38.5115 19.468C38.5115 20.756 38.0262 21.75 37.0555 22.45C36.0942 23.15 34.6102 23.5 32.6035 23.5H32.4215V21.414ZM34.5075 12.244C34.7875 11.9547 35.0722 11.67 35.3615 11.39C35.8002 11.81 36.2295 12.2393 36.6495 12.678C36.3695 12.9673 36.0848 13.252 35.7955 13.532L35.3615 13.966L34.0735 12.678L34.5075 12.244ZM34.5215 18.18C34.6615 18.3573 34.9135 18.502 35.2775 18.614C35.6415 18.7167 36.0522 18.768 36.5095 18.768C36.6308 18.768 36.8128 18.7587 37.0555 18.74C36.9342 18.1427 36.7288 17.6433 36.4395 17.242C36.1502 16.8313 35.8282 16.626 35.4735 16.626C35.1842 16.626 34.9368 16.7567 34.7315 17.018C34.5262 17.27 34.4235 17.536 34.4235 17.816C34.4235 17.9653 34.4562 18.0867 34.5215 18.18Z" fill="#393C97"/>
<line x1="47.6416" y1="8" x2="47.6416" y2="32" stroke="#A3A6D2"/>
<path d="M76.1416 30V19" stroke="#393C97" stroke-width="1.5" stroke-miterlimit="10" stroke-linecap="round" stroke-linejoin="round"/>
<path d="M76.1416 15V10" stroke="#393C97" stroke-width="1.5" stroke-miterlimit="10" stroke-linecap="round" stroke-linejoin="round"/>
<path d="M69.1416 30V25" stroke="#393C97" stroke-width="1.5" stroke-miterlimit="10" stroke-linecap="round" stroke-linejoin="round"/>
<path d="M69.1416 21V10" stroke="#393C97" stroke-width="1.5" stroke-miterlimit="10" stroke-linecap="round" stroke-linejoin="round"/>
<path d="M62.1416 30V19" stroke="#393C97" stroke-width="1.5" stroke-miterlimit="10" stroke-linecap="round" stroke-linejoin="round"/>
<path d="M62.1416 15V10" stroke="#393C97" stroke-width="1.5" stroke-miterlimit="10" stroke-linecap="round" stroke-linejoin="round"/>
<path d="M60.1416 19H64.1416" stroke="#393C97" stroke-width="1.5" stroke-miterlimit="10" stroke-linecap="round" stroke-linejoin="round"/>
<path d="M74.1416 19H78.1416" stroke="#393C97" stroke-width="1.5" stroke-miterlimit="10" stroke-linecap="round" stroke-linejoin="round"/>
<path d="M67.1416 21H71.1416" stroke="#393C97" stroke-width="1.5" stroke-miterlimit="10" stroke-linecap="round" stroke-linejoin="round"/>
</svg>
