<svg width="112" height="40" viewBox="0 0 112 40" fill="none" xmlns="http://www.w3.org/2000/svg">
<path d="M4 0.5H108C109.933 0.5 111.5 2.067 111.5 4V36C111.5 37.933 109.933 39.5 108 39.5H4C2.067 39.5 0.5 37.933 0.5 36V4C0.5 2.067 2.067 0.5 4 0.5Z" fill="white"/>
<path d="M4 0.5H108C109.933 0.5 111.5 2.067 111.5 4V36C111.5 37.933 109.933 39.5 108 39.5H4C2.067 39.5 0.5 37.933 0.5 36V4C0.5 2.067 2.067 0.5 4 0.5Z" stroke="#D8DBF0"/>
<path d="M18.3033 23.668C16.6513 23.668 15.3539 23.4113 14.4113 22.898C13.4686 22.3847 12.9553 21.6707 12.8713 20.756C12.8619 20.6813 12.8573 20.5693 12.8573 20.42C12.8573 20.0187 12.9133 19.5847 13.0253 19.118C13.1373 18.6513 13.2726 18.236 13.4313 17.872L14.7753 18.516C14.5046 19.3653 14.3833 19.9767 14.4113 20.35C14.4766 20.7047 14.8499 20.9987 15.5313 21.232C16.2126 21.456 17.1459 21.5727 18.3313 21.582C19.5353 21.5727 20.4686 21.4933 21.1313 21.344C21.7939 21.1853 22.3026 20.9333 22.6573 20.588C23.0119 20.2427 23.3106 19.7433 23.5533 19.09L25.0093 19.258C24.8319 19.8087 24.7433 20.2287 24.7433 20.518C24.7433 20.8353 24.8179 21.064 24.9673 21.204C25.1259 21.344 25.3593 21.414 25.6673 21.414L25.7793 22.464L25.6673 23.5C25.1446 23.5 24.6826 23.3507 24.2813 23.052C23.8893 22.744 23.6513 22.3427 23.5673 21.848C22.9886 22.5293 22.2793 23.0053 21.4393 23.276C20.6086 23.5373 19.5633 23.668 18.3033 23.668ZM17.5613 16.444L18.7373 17.62L17.5613 18.81L16.3713 17.62L17.5613 16.444ZM20.0253 16.444L21.2013 17.62L20.0253 18.81L18.8353 17.62L20.0253 16.444ZM36.87 23.5C36.1233 23.5 35.512 23.192 35.036 22.576C34.812 22.8653 34.546 23.0893 34.238 23.248C33.93 23.4067 33.6033 23.4907 33.258 23.5H33.216H33.174C32.7447 23.4907 32.376 23.3833 32.068 23.178C31.76 22.9727 31.522 22.6833 31.354 22.31C30.8313 23.094 30.2107 23.4907 29.492 23.5H29.422C29.0207 23.5 28.6707 23.3927 28.372 23.178C28.0733 22.9633 27.8633 22.6787 27.742 22.324C27.4433 22.7067 27.098 23.0007 26.706 23.206C26.3233 23.402 25.9127 23.5 25.474 23.5H25.432L25.32 22.464L25.432 21.414H25.502C25.7913 21.414 26.076 21.3533 26.356 21.232C26.636 21.1013 26.846 20.9427 26.986 20.756C27.182 20.532 27.3313 20.28 27.434 20C27.5367 19.72 27.63 19.4213 27.714 19.104L29.17 19.258C29.1607 19.3047 29.1093 19.4913 29.016 19.818C28.9227 20.1353 28.876 20.4247 28.876 20.686C28.876 21.1713 29.072 21.414 29.464 21.414H29.492C29.9773 21.414 30.3507 21.1573 30.612 20.644C30.8267 20.2147 30.9807 19.6687 31.074 19.006L32.53 19.076C32.4927 19.2253 32.4553 19.44 32.418 19.72C32.39 19.9907 32.376 20.2147 32.376 20.392C32.376 21.0733 32.656 21.414 33.216 21.414C33.44 21.414 33.65 21.372 33.846 21.288C34.0513 21.204 34.21 21.0967 34.322 20.966C34.238 20.6207 34.112 19.9907 33.944 19.076L35.386 18.684C35.498 19.2813 35.5867 19.7387 35.652 20.056C35.7173 20.3733 35.778 20.6113 35.834 20.77C35.9087 20.9847 36.0253 21.148 36.184 21.26C36.352 21.3627 36.5807 21.414 36.87 21.414H36.954L37.066 22.464L36.94 23.5H36.87ZM30.64 15.394L31.76 16.5C31.76 16.5 31.5127 16.7473 31.018 17.242L30.64 17.62L29.534 16.5L30.64 15.394ZM33.286 15.394L34.392 16.5L33.286 17.62L32.166 16.5L33.286 15.394ZM30.976 14.848C31.1907 14.624 31.41 14.4047 31.634 14.19L31.956 13.868C32.292 14.1853 32.6187 14.512 32.936 14.848L31.956 15.842L30.976 14.848ZM36.666 21.414H37.142C37.9353 21.414 38.5887 21.3533 39.102 21.232C39.6153 21.1107 39.9607 20.9473 40.138 20.742C40.0073 19.874 39.0367 18.726 37.226 17.298L37.408 15.478L42.616 13.28L43.176 14.946L39.13 16.668C39.7273 17.1813 40.3013 17.8067 40.852 18.544C41.4027 19.2813 41.678 20.014 41.678 20.742C41.678 20.9007 41.6547 21.0733 41.608 21.26C41.4213 22.016 40.9313 22.5807 40.138 22.954C39.3447 23.318 38.346 23.5 37.142 23.5H36.666V21.414ZM37.562 13.784L42.112 11.922L42.35 12.594L37.478 14.624L37.562 13.784ZM41.9691 25.824C42.5851 25.572 43.1497 25.278 43.6631 24.942C44.1764 24.6153 44.5777 24.2887 44.8671 23.962C45.1657 23.6353 45.3151 23.3553 45.3151 23.122C45.3151 22.7393 45.0677 21.6987 44.5731 20L44.5031 19.72L46.0711 19.104C46.2951 19.748 46.4724 20.4387 46.6031 21.176C46.7337 21.904 46.7991 22.5527 46.7991 23.122C46.7991 24.0367 46.4397 24.8813 45.7211 25.656C45.0024 26.44 44.0364 27.084 42.8231 27.588L41.9691 25.824ZM45.0631 15.254C45.3431 15.5433 45.6277 15.828 45.9171 16.108L46.3511 16.542C46.1364 16.7567 46.0291 16.864 46.0291 16.864C45.4877 17.4053 45.1657 17.732 45.0631 17.844L43.7611 16.542L45.0631 15.254ZM51.1355 23.5C50.1088 23.5 49.3668 23.206 48.9095 22.618C48.4615 22.03 48.2375 21.134 48.2375 19.93C48.2281 18.782 48.1908 17.62 48.1255 16.444C48.0695 15.2587 47.9855 14.2833 47.8735 13.518L49.6095 13.14C49.7028 13.8213 49.7775 14.7453 49.8335 15.912C49.8895 17.0693 49.9175 18.1427 49.9175 19.132V19.664C49.9081 20.14 49.9315 20.4993 49.9875 20.742C50.0435 20.9847 50.1555 21.1573 50.3235 21.26C50.5008 21.3627 50.7715 21.414 51.1355 21.414H51.2055L51.3175 22.464L51.2055 23.5H51.1355ZM50.9296 21.414H51.6716C52.3343 21.414 52.8149 21.3393 53.1136 21.19C53.4123 21.0407 53.5616 20.8167 53.5616 20.518C53.5616 20.322 53.4636 19.9393 53.2676 19.37C53.0716 18.7913 52.9176 18.3667 52.8056 18.096L54.2756 17.284C54.4529 17.676 54.6349 18.2033 54.8216 18.866C55.0176 19.5193 55.1156 20.0933 55.1156 20.588C55.1156 21.54 54.8169 22.2633 54.2196 22.758C53.6316 23.2527 52.7823 23.5 51.6716 23.5H50.9296V21.414ZM52.0216 24.606C52.3109 24.886 52.5956 25.1707 52.8756 25.46L53.3096 25.894L52.0216 27.182L50.7196 25.894L52.0216 24.606Z" fill="#393C97"/>
<line x1="66.5" y1="8" x2="66.5" y2="32" stroke="#A3A6D2"/>
<path d="M85.57 13.9302L79.5 20.0002L85.57 26.0702M96.5 20.0002H79.67" stroke="#393C97" stroke-width="1.5" stroke-miterlimit="10" stroke-linecap="round" stroke-linejoin="round"/>
</svg>
