<svg width="24" height="24" viewBox="0 0 24 24" fill="none" xmlns="http://www.w3.org/2000/svg">
<path d="M15.5 10.5001L8.5 10.5001M17 18.4301L13 18.4301L8.55 21.3901C8.39982 21.4902 8.22528 21.5476 8.045 21.5563C7.86472 21.565 7.68547 21.5246 7.52635 21.4394C7.36724 21.3542 7.23424 21.2274 7.14154 21.0725C7.04885 20.9177 6.99993 20.7405 7 20.5601L7 18.4301C4 18.4301 2 16.4301 2 13.4301L2 7.43006C2 4.43006 4 2.43006 7 2.43006L17 2.43005C20 2.43005 22 4.43005 22 7.43005L22 13.4301C22 16.4301 20 18.4301 17 18.4301Z" stroke="#393C97" stroke-width="1.5" stroke-miterlimit="10" stroke-linecap="round" stroke-linejoin="round"/>
</svg>
