<svg width="32" height="32" viewBox="0 0 32 32" fill="none" xmlns="http://www.w3.org/2000/svg">
<path d="M32 16C32 24.8366 24.8366 32 16 32C7.16344 32 -3.8147e-06 24.8366 -3.8147e-06 16C-3.8147e-06 7.16344 7.16344 -3.8147e-06 16 -3.8147e-06C24.8366 -3.8147e-06 32 7.16344 32 16Z" fill="#F3F5FF"/>
<path d="M19.5 14.5001L12.5 14.5001M21 22.4301L17 22.4301L12.55 25.3901C12.3998 25.4902 12.2253 25.5476 12.045 25.5563C11.8647 25.565 11.6855 25.5246 11.5264 25.4394C11.3672 25.3542 11.2342 25.2274 11.1415 25.0725C11.0488 24.9177 10.9999 24.7405 11 24.5601L11 22.4301C8 22.4301 6 20.4301 6 17.4301L6 11.4301C6 8.43006 8 6.43006 11 6.43006L21 6.43005C24 6.43005 26 8.43005 26 11.4301L26 17.4301C26 20.4301 24 22.4301 21 22.4301Z" stroke="#393C97" stroke-width="1.5" stroke-miterlimit="10" stroke-linecap="round" stroke-linejoin="round"/>
</svg>
