<svg width="32" height="32" viewBox="0 0 32 32" fill="none" xmlns="http://www.w3.org/2000/svg">
<path d="M32 16C32 24.8366 24.8366 32 16 32C7.16344 32 -3.8147e-06 24.8366 -3.8147e-06 16C-3.8147e-06 7.16344 7.16344 -3.8147e-06 16 -3.8147e-06C24.8366 -3.8147e-06 32 7.16344 32 16Z" fill="#F3F5FF"/>
<path d="M6.03 22.3301C6.03 22.6901 6.11 23.0601 6.28 23.4201C6.45 23.7801 6.67 24.1201 6.96 24.4401C7.45 24.9801 7.99 25.3701 8.6 25.6201C9.2 25.8701 9.85 26.0001 10.55 26.0001C11.57 26.0001 12.66 25.7601 13.81 25.2701C14.96 24.7801 16.11 24.1201 17.25 23.2901C18.4119 22.4402 19.5083 21.5043 20.53 20.4901C21.5412 19.4721 22.4739 18.379 23.32 17.2201C24.14 16.0801 24.8 14.9401 25.28 13.8101C25.76 12.6701 26 11.5801 26 10.5401C26 9.86012 25.88 9.21012 25.64 8.61012C25.4 8.00012 25.02 7.44012 24.49 6.94012C23.85 6.31012 23.15 6.00012 22.41 6.00012C22.13 6.00012 21.85 6.06012 21.6 6.18012C21.34 6.30012 21.11 6.48012 20.93 6.74012L18.61 10.0101C18.43 10.2601 18.3 10.4901 18.21 10.7101C18.12 10.9201 18.07 11.1301 18.07 11.3201C18.07 11.5601 18.14 11.8001 18.28 12.0301C18.41 12.2601 18.6 12.5001 18.84 12.7401L19.6 13.5301C19.71 13.6401 19.76 13.7701 19.76 13.9301C19.76 14.0101 19.75 14.0801 19.73 14.1601C19.7 14.2401 19.67 14.3001 19.65 14.3601C19.47 14.6901 19.16 15.1201 18.72 15.6401C18.27 16.1601 17.79 16.6901 17.27 17.2201C16.73 17.7501 16.21 18.2401 15.68 18.6901C15.16 19.1301 14.73 19.4301 14.39 19.6101C14.34 19.6301 14.28 19.6601 14.21 19.6901C14.13 19.7201 14.05 19.7301 13.96 19.7301C13.79 19.7301 13.66 19.6701 13.55 19.5601L12.79 18.8101C12.54 18.5601 12.3 18.3701 12.07 18.2501C11.84 18.1101 11.61 18.0401 11.36 18.0401C11.17 18.0401 10.97 18.0801 10.75 18.1701C10.53 18.2601 10.3 18.3901 10.05 18.5601L6.74 20.9101C6.48 21.0901 6.3 21.3001 6.19 21.5501C6.09 21.8001 6.03 22.0501 6.03 22.3301Z" stroke="#393C97" stroke-width="1.5" stroke-miterlimit="10"/>
</svg>
