<svg width="24" height="24" viewBox="0 0 24 24" fill="none" xmlns="http://www.w3.org/2000/svg">
<path d="M2.03 18.3301C2.03 18.6901 2.11 19.0601 2.28 19.4201C2.45 19.7801 2.67 20.1201 2.96 20.4401C3.45 20.9801 3.99 21.3701 4.6 21.6201C5.2 21.8701 5.85 22.0001 6.55 22.0001C7.57 22.0001 8.66 21.7601 9.81 21.2701C10.96 20.7801 12.11 20.1201 13.25 19.2901C14.4119 18.4402 15.5083 17.5043 16.53 16.4901C17.5412 15.4721 18.4739 14.379 19.32 13.2201C20.14 12.0801 20.8 10.9401 21.28 9.81012C21.76 8.67012 22 7.58012 22 6.54012C22 5.86012 21.88 5.21012 21.64 4.61012C21.4 4.00012 21.02 3.44012 20.49 2.94012C19.85 2.31012 19.15 2.00012 18.41 2.00012C18.13 2.00012 17.85 2.06012 17.6 2.18012C17.34 2.30012 17.11 2.48012 16.93 2.74012L14.61 6.01012C14.43 6.26012 14.3 6.49012 14.21 6.71012C14.12 6.92012 14.07 7.13012 14.07 7.32012C14.07 7.56012 14.14 7.80012 14.28 8.03012C14.41 8.26012 14.6 8.50012 14.84 8.74012L15.6 9.53012C15.71 9.64012 15.76 9.77012 15.76 9.93012C15.76 10.0101 15.75 10.0801 15.73 10.1601C15.7 10.2401 15.67 10.3001 15.65 10.3601C15.47 10.6901 15.16 11.1201 14.72 11.6401C14.27 12.1601 13.79 12.6901 13.27 13.2201C12.73 13.7501 12.21 14.2401 11.68 14.6901C11.16 15.1301 10.73 15.4301 10.39 15.6101C10.34 15.6301 10.28 15.6601 10.21 15.6901C10.13 15.7201 10.05 15.7301 9.96 15.7301C9.79 15.7301 9.66 15.6701 9.55 15.5601L8.79 14.8101C8.54 14.5601 8.3 14.3701 8.07 14.2501C7.84 14.1101 7.61 14.0401 7.36 14.0401C7.17 14.0401 6.97 14.0801 6.75 14.1701C6.53 14.2601 6.3 14.3901 6.05 14.5601L2.74 16.9101C2.48 17.0901 2.3 17.3001 2.19 17.5501C2.09 17.8001 2.03 18.0501 2.03 18.3301Z" stroke="#393C97" stroke-width="1.5" stroke-miterlimit="10"/>
</svg>
