<svg width="29" height="28" viewBox="0 0 29 28" fill="none" xmlns="http://www.w3.org/2000/svg">
<path d="M11.7628 2.95256L4.73953 7.53756C2.48786 9.00756 2.48786 12.2976 4.73953 13.7676L11.7628 18.3526C13.0228 19.1809 15.0995 19.1809 16.3595 18.3526L23.3478 13.7676C25.5878 12.2976 25.5878 9.01923 23.3478 7.54923L16.3595 2.96423C15.0995 2.12423 13.0228 2.12423 11.7628 2.95256Z" stroke="#37BEC1" stroke-width="1.75" stroke-linecap="round" stroke-linejoin="round"/>
<path opacity="0.4" d="M6.60737 15.2578L6.5957 20.7295C6.5957 22.2111 7.73904 23.7978 9.13904 24.2645L12.8607 25.5011C13.5024 25.7111 14.564 25.7111 15.2174 25.5011L18.939 24.2645C20.339 23.7978 21.4824 22.2111 21.4824 20.7295V15.3161" stroke="#37BEC1" stroke-width="1.75" stroke-linecap="round" stroke-linejoin="round"/>
<path opacity="0.4" d="M25.0029 17.5V10.5" stroke="#37BEC1" stroke-width="1.75" stroke-linecap="round" stroke-linejoin="round"/>
</svg>
