<svg width="24" height="24" viewBox="0 0 24 24" fill="none" xmlns="http://www.w3.org/2000/svg">
<path d="M12.0091 1.2597C11.3791 1.2597 10.7591 1.4697 10.2691 1.8897L8.68914 3.2397C8.52914 3.3797 8.12914 3.5197 7.91914 3.5197L6.16914 3.5197C4.68914 3.5197 3.48914 4.7197 3.48914 6.1997L3.48914 7.9097C3.48914 8.1197 3.34914 8.5197 3.21914 8.6697L1.85914 10.2697C1.03914 11.2397 1.03914 12.7597 1.85914 13.7397L3.21914 15.3397C3.34914 15.4897 3.48914 15.8897 3.48914 16.0997L3.48914 17.7997C3.48914 19.2797 4.68914 20.4797 6.16914 20.4797L7.89914 20.4797C8.10914 20.4797 8.49914 20.6297 8.66914 20.7697L10.2491 22.1197C11.2291 22.9497 12.7591 22.9497 13.7391 22.1197L15.3191 20.7697C15.4791 20.6297 15.8891 20.4897 16.0991 20.4897L17.7991 20.4897C19.2791 20.4897 20.4791 19.2897 20.4791 17.8097L20.4791 16.1097C20.4791 15.8997 20.6291 15.5097 20.7691 15.3397L22.1191 13.7597C22.9591 12.7697 22.9491 11.2397 22.1191 10.2697L20.7691 8.6897C20.6291 8.5197 20.4891 8.1297 20.4891 7.9197L20.4891 6.2197C20.4891 4.7397 19.2891 3.5397 17.8091 3.5397L16.1091 3.5397C15.8991 3.5397 15.5091 3.3897 15.3291 3.2497L13.7491 1.8997C13.2591 1.4697 12.6291 1.2597 12.0091 1.2597ZM6.16914 18.9797C5.51914 18.9797 4.98914 18.4497 4.98914 17.7997L4.98914 16.0997C4.98914 15.5297 4.72914 14.8097 4.35914 14.3697L2.99914 12.7697C2.65914 12.3597 2.65914 11.6397 2.99914 11.2397L4.34914 9.6497C4.70914 9.2397 4.97914 8.4897 4.97914 7.9197L4.97914 6.2097C4.97914 5.5597 5.50914 5.0297 6.15914 5.0297L7.89914 5.0297C8.45914 5.0297 9.19914 4.7597 9.63914 4.3897L11.2291 3.0297C11.6391 2.6797 12.3591 2.6797 12.7691 3.0297L14.3491 4.3797C14.7991 4.7597 15.5291 5.0197 16.0891 5.0197L17.7891 5.0197C18.4391 5.0197 18.9691 5.5497 18.9691 6.1997L18.9691 7.8997C18.9691 8.4597 19.2391 9.1897 19.6091 9.6397L20.9691 11.2297C21.3191 11.6397 21.3191 12.3597 20.9691 12.7697L19.6191 14.3497C19.2391 14.7997 18.9791 15.5297 18.9791 16.0897L18.9791 17.7997C18.9791 18.4497 18.4491 18.9797 17.7991 18.9797L16.0991 18.9797C15.5291 18.9797 14.7891 19.2497 14.3491 19.6197L12.7591 20.9797C12.3491 21.3297 11.6391 21.3297 11.2191 20.9797L9.64914 19.6197C9.19914 19.2497 8.46914 18.9797 7.89914 18.9797L6.16914 18.9797Z" fill="#393C97"/>
<path d="M12 7.12891C11.45 7.12891 11 7.57891 11 8.12891C11 8.67891 11.44 9.12891 12 9.12891C12.55 9.12891 13 8.67891 13 8.12891C13 7.57891 12.56 7.12891 12 7.12891Z" fill="#393C97"/>
<path d="M12 10.2811C11.59 10.2811 11.25 10.6211 11.25 11.0311L11.25 15.8711C11.25 16.2811 11.59 16.6211 12 16.6211C12.41 16.6211 12.75 16.2811 12.75 15.8711L12.75 11.0411C12.75 10.6211 12.42 10.2811 12 10.2811Z" fill="#393C97"/>
</svg>
