<svg width="32" height="32" viewBox="0 0 32 32" fill="none" xmlns="http://www.w3.org/2000/svg">
<path d="M0 16C0 7.16345 7.16345 0 16 0V0C24.8366 0 32 7.16345 32 16V16C32 24.8366 24.8366 32 16 32V32C7.16345 32 0 24.8366 0 16V16Z" fill="#F3F5FF"/>
<path d="M16.0091 5.2597C15.3791 5.2597 14.7591 5.4697 14.2691 5.8897L12.6891 7.2397C12.5291 7.3797 12.1291 7.5197 11.9191 7.5197L10.1691 7.5197C8.68914 7.5197 7.48914 8.7197 7.48914 10.1997L7.48914 11.9097C7.48914 12.1197 7.34914 12.5197 7.21914 12.6697L5.85914 14.2697C5.03914 15.2397 5.03914 16.7597 5.85914 17.7397L7.21914 19.3397C7.34914 19.4897 7.48914 19.8897 7.48914 20.0997L7.48914 21.7997C7.48914 23.2797 8.68914 24.4797 10.1691 24.4797L11.8991 24.4797C12.1091 24.4797 12.4991 24.6297 12.6691 24.7697L14.2491 26.1197C15.2291 26.9497 16.7591 26.9497 17.7391 26.1197L19.3191 24.7697C19.4791 24.6297 19.8891 24.4897 20.0991 24.4897L21.7991 24.4897C23.2791 24.4897 24.4791 23.2897 24.4791 21.8097L24.4791 20.1097C24.4791 19.8997 24.6291 19.5097 24.7691 19.3397L26.1191 17.7597C26.9591 16.7697 26.9491 15.2397 26.1191 14.2697L24.7691 12.6897C24.6291 12.5197 24.4891 12.1297 24.4891 11.9197L24.4891 10.2197C24.4891 8.7397 23.2891 7.5397 21.8091 7.5397L20.1091 7.5397C19.8991 7.5397 19.5091 7.3897 19.3291 7.2497L17.7491 5.8997C17.2591 5.4697 16.6291 5.2597 16.0091 5.2597ZM10.1691 22.9797C9.51914 22.9797 8.98914 22.4497 8.98914 21.7997L8.98914 20.0997C8.98914 19.5297 8.72914 18.8097 8.35914 18.3697L6.99914 16.7697C6.65914 16.3597 6.65914 15.6397 6.99914 15.2397L8.34914 13.6497C8.70914 13.2397 8.97914 12.4897 8.97914 11.9197L8.97914 10.2097C8.97914 9.5597 9.50914 9.0297 10.1591 9.0297L11.8991 9.0297C12.4591 9.0297 13.1991 8.7597 13.6391 8.3897L15.2291 7.0297C15.6391 6.6797 16.3591 6.6797 16.7691 7.0297L18.3491 8.3797C18.7991 8.7597 19.5291 9.0197 20.0891 9.0197L21.7891 9.0197C22.4391 9.0197 22.9691 9.5497 22.9691 10.1997L22.9691 11.8997C22.9691 12.4597 23.2391 13.1897 23.6091 13.6397L24.9691 15.2297C25.3191 15.6397 25.3191 16.3597 24.9691 16.7697L23.6191 18.3497C23.2391 18.7997 22.9791 19.5297 22.9791 20.0897L22.9791 21.7997C22.9791 22.4497 22.4491 22.9797 21.7991 22.9797L20.0991 22.9797C19.5291 22.9797 18.7891 23.2497 18.3491 23.6197L16.7591 24.9797C16.3491 25.3297 15.6391 25.3297 15.2191 24.9797L13.6491 23.6197C13.1991 23.2497 12.4691 22.9797 11.8991 22.9797L10.1691 22.9797Z" fill="#393C97"/>
<path d="M16 11.1289C15.45 11.1289 15 11.5789 15 12.1289C15 12.6789 15.44 13.1289 16 13.1289C16.55 13.1289 17 12.6789 17 12.1289C17 11.5789 16.56 11.1289 16 11.1289Z" fill="#393C97"/>
<path d="M16 14.2811C15.59 14.2811 15.25 14.6211 15.25 15.0311L15.25 19.8711C15.25 20.2811 15.59 20.6211 16 20.6211C16.41 20.6211 16.75 20.2811 16.75 19.8711L16.75 15.0411C16.75 14.6211 16.42 14.2811 16 14.2811Z" fill="#393C97"/>
</svg>
