<svg width="24" height="25" viewBox="0 0 24 25" fill="none" xmlns="http://www.w3.org/2000/svg">
<path d="M23.3914 7.82045V7.8221V17.8781C23.3914 19.9427 22.7781 21.5186 21.7185 22.5778C20.6589 23.6369 19.0823 24.2501 17.0167 24.2501H6.96883C4.90326 24.2501 3.32683 23.637 2.2673 22.5765C1.20772 21.516 0.594141 19.9371 0.594141 17.8661V7.8221C0.594141 5.75749 1.20746 4.18161 2.26704 3.12244C3.32664 2.06325 4.90324 1.4501 6.96883 1.4501H17.0287C19.0944 1.4501 20.6708 2.0633 21.7287 3.12218C22.7865 4.1809 23.3971 5.75622 23.3914 7.82045ZM19.2547 7.54815L19.2782 7.52703L19.2993 7.50356C19.4511 7.33502 19.5723 7.14574 19.6594 6.93694C19.745 6.73152 19.8016 6.49712 19.8016 6.2501C19.8016 6.0061 19.7464 5.77442 19.6625 5.57081C19.569 5.3311 19.439 5.15174 19.2993 4.99663L19.2665 4.96016L19.2281 4.92951C19.2162 4.91999 19.2092 4.91385 19.1973 4.90347C19.1874 4.89483 19.1741 4.88326 19.1519 4.86437C19.1199 4.83717 19.0642 4.79064 18.9959 4.74808C18.9002 4.68527 18.7974 4.63161 18.6877 4.59116C18.5801 4.54119 18.4652 4.50406 18.3365 4.48352C17.75 4.36311 17.1338 4.56467 16.7246 4.97375L16.7134 4.98491L16.7029 4.99663C16.5632 5.15174 16.4332 5.3311 16.3397 5.57081C16.2558 5.77442 16.2006 6.0061 16.2006 6.2501C16.2006 6.49712 16.2572 6.73152 16.3428 6.93694C16.4299 7.14574 16.5511 7.33502 16.7029 7.50356L16.7134 7.51529L16.7246 7.52644C17.0694 7.87107 17.5239 8.0501 18.0011 8.0501C18.2481 8.0501 18.4826 7.99353 18.688 7.90798C18.8968 7.82101 19.0861 7.69986 19.2547 7.54815ZM6.74097 12.8501C6.74097 15.7497 9.09863 18.1061 11.9988 18.1061C14.8989 18.1061 17.2566 15.7497 17.2566 12.8501C17.2566 9.95051 14.8989 7.5941 11.9988 7.5941C9.09863 7.5941 6.74097 9.95051 6.74097 12.8501Z" fill="white" stroke="white" stroke-width="1.2"/>
</svg>
