<svg width="711" height="705" viewBox="0 0 711 705" fill="none" xmlns="http://www.w3.org/2000/svg">
<mask id="path-1-inside-1_6_547" fill="white">
<path d="M538.908 200.86H531.654C529.16 187.52 518.733 177.704 506.038 177.704H488.809C488.809 177.704 500.37 160.084 497.196 127.111C494.023 94.1376 454.351 70.4773 396.544 40.021C353.925 17.3676 348.484 0 348.484 0C348.484 0 340.097 18.6261 300.425 40.021C242.844 70.9807 202.946 94.1376 199.772 127.111C196.598 160.084 208.16 177.704 208.16 177.704H190.931C178.236 177.704 167.808 187.772 165.314 200.86H158.06C136.071 200.86 118.388 220.745 118.388 244.909V286.109L118.297 287.47C118.259 288.036 118.454 288.594 118.837 289.014C119.131 289.336 119.317 289.742 119.367 290.175L120.109 296.487C120.171 297.015 120.317 297.53 120.539 298.013L122.265 301.752C122.709 302.714 123.444 303.512 124.366 304.033L133.007 308.916C133.313 309.089 133.636 309.229 133.971 309.335L136.692 310.195C139.533 311.092 140.862 314.348 139.46 316.976C138.846 318.129 138.731 319.483 139.144 320.723L142.021 329.355C142.111 329.624 142.178 329.901 142.221 330.182L142.27 330.497C142.708 333.337 140.692 335.969 137.837 336.287L137.042 336.376C135.638 336.532 134.364 337.269 133.528 338.408L128.448 345.331C128.137 345.756 127.761 346.129 127.334 346.437L122.156 350.178C121.191 350.875 120.503 351.891 120.214 353.046L119.361 356.454C119.023 357.807 119.258 359.239 120.012 360.412L121.263 362.357C122.296 363.963 122.334 366.014 121.363 367.658L119.231 371.265C117.951 373.431 118.461 376.209 120.425 377.78L120.944 378.195C121.362 378.529 121.724 378.928 122.017 379.376L129.1 390.208C129.266 390.463 129.456 390.702 129.665 390.923L135.822 397.404C137.083 398.732 137.143 400.798 135.959 402.196L135.233 403.054C134.1 404.393 134.52 406.439 136.088 407.224L136.224 407.292C137.057 407.709 137.584 408.56 137.584 409.492C137.584 410.505 138.204 411.415 139.148 411.784L147.226 414.945C147.806 415.172 148.339 415.504 148.798 415.925L158.732 425.032C158.962 425.243 159.172 425.474 159.356 425.726C160.265 426.974 163.05 430.913 162.281 431.297C161.775 431.55 164.91 431.103 167.811 430.653C170.383 430.254 172.855 431.845 173.526 434.36L174.173 436.786L175.213 441.987C175.429 443.064 175.99 444.042 176.811 444.772L182.395 449.734C183.289 450.528 183.871 451.613 184.04 452.796L184.425 455.49C184.597 456.7 184.326 457.931 183.66 458.956L179.564 465.259C179.032 466.078 178.748 467.034 178.748 468.011V478.308C178.748 480.749 180.494 482.84 182.895 483.277L184.309 483.535C186.864 483.999 188.649 486.325 188.44 488.912L187.626 498.946C187.506 500.424 188.042 501.88 189.091 502.928L189.288 503.125C190.159 503.995 190.682 505.154 190.759 506.383L191.435 517.214C191.506 518.352 192.286 519.322 193.382 519.636C194.24 519.882 195.164 519.687 195.849 519.115L196.137 518.875C196.99 518.164 198.137 517.914 199.209 518.206L202.532 519.112L203.699 519.446C204.979 519.813 206.358 519.559 207.423 518.76L208.307 518.097C208.977 517.594 209.865 517.488 210.635 517.818C211.745 518.293 213.035 517.847 213.613 516.786L214.201 515.709C214.893 514.44 216.262 513.692 217.704 513.794L220.354 513.983C221.261 514.047 222.134 514.356 222.881 514.875L229.798 519.688C231.316 520.744 233.289 520.887 234.942 520.06L241.947 516.557C244.246 515.408 247.041 516.168 248.441 518.322L257.874 532.834L265.049 541.208C265.736 542.009 266.154 543.005 266.245 544.056L266.786 550.253C266.933 551.94 267.927 553.436 269.426 554.225L272.241 555.706C273.928 556.594 274.22 558.887 272.81 560.169C271.65 561.224 271.608 563.035 272.716 564.144L276.786 568.213C277.284 568.711 277.672 569.308 277.926 569.964L284.829 587.829C285.148 588.655 285.679 589.383 286.369 589.94L298.387 599.634C299.111 600.218 299.982 600.591 300.905 600.711L307.554 601.578C309.105 601.781 310.475 602.69 311.264 604.041L312.097 605.47C312.81 606.692 314.004 607.559 315.387 607.86L321.373 609.161C322.867 609.485 324.134 610.47 324.818 611.838L326.89 615.982C327.178 616.558 326.992 617.259 326.456 617.617C325.645 618.158 325.713 619.37 326.579 619.817L351.752 632.809C352.574 633.234 353.264 633.875 353.746 634.664L356.709 639.514C357.545 640.883 358.983 641.773 360.582 641.912L378.938 643.507C378.992 643.512 379.026 643.45 378.993 643.406C378.953 643.352 379.015 643.28 379.074 643.313L390.226 649.508C390.711 649.778 391.266 649.896 391.818 649.846L410.137 648.22C411.062 648.138 411.946 647.802 412.693 647.25L432.16 632.859C432.446 632.648 432.709 632.406 432.944 632.14L437.668 626.787C438.782 625.524 440.453 624.899 442.123 625.122L458.022 627.242C459.312 627.414 460.486 628.077 461.299 629.094L468.346 637.901C468.894 638.587 469.254 639.403 469.391 640.269L470.347 646.32C470.483 647.183 470.393 648.065 470.087 648.882L469.972 649.189C469.469 650.529 469.559 652.019 470.218 653.29L480.435 672.97C481.128 674.305 482.381 675.262 483.851 675.579L497.139 678.452C497.999 678.638 498.796 679.046 499.45 679.634L501.03 681.056C502.279 682.179 504.004 682.608 505.634 682.201L512.954 680.371C513.647 680.198 514.369 680.173 515.072 680.3L531.398 683.232C531.693 683.284 531.992 683.311 532.291 683.311H542.46C542.699 683.311 542.938 683.328 543.175 683.362L552.422 684.683L561.572 685.142L574.501 684.737C575.607 684.702 576.693 685.031 577.594 685.674L578.457 686.291C579.083 686.737 579.803 687.035 580.561 687.162L595.876 689.714L604.106 690.628L610.509 691.545L611.939 691.748C613.086 691.911 614.254 691.675 615.247 691.079L618.07 689.387C619.618 688.459 620.554 686.774 620.523 684.968L620.129 662.223C620.12 661.65 620.207 661.081 620.388 660.538L623.364 651.611C623.905 649.988 625.231 648.749 626.887 648.319L634.278 646.402C635.737 646.024 636.951 645.014 637.588 643.649L638.784 641.084C639.416 639.729 640.616 638.724 642.06 638.339L646.643 637.116L654.418 635.285L661.366 634.338C663.274 634.078 664.867 632.756 665.476 630.93L667.682 624.311L669.115 618.287C669.623 616.154 668.691 613.938 666.811 612.81C665.892 612.258 664.82 612.014 663.753 612.114L656.553 612.789C653.494 613.076 650.89 610.589 651.036 607.52L651.646 594.7C651.664 594.317 651.639 593.934 651.57 593.557L649.453 581.913C649.129 580.13 647.874 578.657 646.165 578.054L641.884 576.542C641.4 576.372 640.945 576.128 640.534 575.82L636.463 572.767C635.936 572.371 635.337 572.083 634.699 571.918L623.318 568.968L617.709 566.725C616.888 566.396 616.168 565.858 615.62 565.165L609.595 557.532L605.478 550.67L600.805 540.899C600.568 540.403 600.252 539.95 599.87 539.557L587.424 526.757C585.702 524.986 585.514 522.229 586.979 520.24L610.053 488.925L611.659 485.982C612.38 484.66 612.474 483.085 611.915 481.687L607.578 470.844C606.855 469.037 605.159 467.806 603.217 467.679L587.064 466.625C585.956 466.553 584.903 466.118 584.067 465.387L579.7 461.567C578.639 460.639 578.015 459.31 577.976 457.901L577.592 443.7C577.582 443.36 577.608 443.02 577.667 442.685L578.633 437.212C578.838 436.05 578.63 434.853 578.044 433.828L575.522 429.414C575.369 429.146 575.241 428.864 575.139 428.572L569.245 411.677C568.731 410.205 568.926 408.578 569.773 407.269L575.038 399.133C576.805 396.402 575.568 392.737 572.508 391.636L569.857 390.682C568.13 390.06 566.876 388.55 566.582 386.738L564.772 375.58C564.488 373.826 565.146 372.051 566.506 370.907L570.537 367.513C572.006 366.276 572.503 364.229 571.765 362.456C571.124 360.918 571.408 359.15 572.497 357.888L578.508 350.927C579.098 350.245 579.494 349.417 579.655 348.53L581.051 340.857C581.175 340.173 581.157 339.472 580.998 338.795L580.14 335.154C579.693 333.256 580.379 331.269 581.903 330.051L582.364 329.683C583.402 328.853 584.071 327.647 584.226 326.327L584.74 321.952C584.843 321.074 584.714 320.185 584.366 319.373L581.12 311.799C580.896 311.275 580.761 310.716 580.723 310.146L580.322 304.145L580.742 296.195C580.768 295.705 580.722 295.214 580.606 294.738L578.723 286.973C578.628 286.583 578.58 286.183 578.58 285.782V245.16C578.58 220.745 560.671 201.112 538.908 201.112V200.86Z"/>
</mask>
<path d="M538.908 200.86H531.654C529.16 187.52 518.733 177.704 506.038 177.704H488.809C488.809 177.704 500.37 160.084 497.196 127.111C494.023 94.1376 454.351 70.4773 396.544 40.021C353.925 17.3676 348.484 0 348.484 0C348.484 0 340.097 18.6261 300.425 40.021C242.844 70.9807 202.946 94.1376 199.772 127.111C196.598 160.084 208.16 177.704 208.16 177.704H190.931C178.236 177.704 167.808 187.772 165.314 200.86H158.06C136.071 200.86 118.388 220.745 118.388 244.909V286.109L118.297 287.47C118.259 288.036 118.454 288.594 118.837 289.014C119.131 289.336 119.317 289.742 119.367 290.175L120.109 296.487C120.171 297.015 120.317 297.53 120.539 298.013L122.265 301.752C122.709 302.714 123.444 303.512 124.366 304.033L133.007 308.916C133.313 309.089 133.636 309.229 133.971 309.335L136.692 310.195C139.533 311.092 140.862 314.348 139.46 316.976C138.846 318.129 138.731 319.483 139.144 320.723L142.021 329.355C142.111 329.624 142.178 329.901 142.221 330.182L142.27 330.497C142.708 333.337 140.692 335.969 137.837 336.287L137.042 336.376C135.638 336.532 134.364 337.269 133.528 338.408L128.448 345.331C128.137 345.756 127.761 346.129 127.334 346.437L122.156 350.178C121.191 350.875 120.503 351.891 120.214 353.046L119.361 356.454C119.023 357.807 119.258 359.239 120.012 360.412L121.263 362.357C122.296 363.963 122.334 366.014 121.363 367.658L119.231 371.265C117.951 373.431 118.461 376.209 120.425 377.78L120.944 378.195C121.362 378.529 121.724 378.928 122.017 379.376L129.1 390.208C129.266 390.463 129.456 390.702 129.665 390.923L135.822 397.404C137.083 398.732 137.143 400.798 135.959 402.196L135.233 403.054C134.1 404.393 134.52 406.439 136.088 407.224L136.224 407.292C137.057 407.709 137.584 408.56 137.584 409.492C137.584 410.505 138.204 411.415 139.148 411.784L147.226 414.945C147.806 415.172 148.339 415.504 148.798 415.925L158.732 425.032C158.962 425.243 159.172 425.474 159.356 425.726C160.265 426.974 163.05 430.913 162.281 431.297C161.775 431.55 164.91 431.103 167.811 430.653C170.383 430.254 172.855 431.845 173.526 434.36L174.173 436.786L175.213 441.987C175.429 443.064 175.99 444.042 176.811 444.772L182.395 449.734C183.289 450.528 183.871 451.613 184.04 452.796L184.425 455.49C184.597 456.7 184.326 457.931 183.66 458.956L179.564 465.259C179.032 466.078 178.748 467.034 178.748 468.011V478.308C178.748 480.749 180.494 482.84 182.895 483.277L184.309 483.535C186.864 483.999 188.649 486.325 188.44 488.912L187.626 498.946C187.506 500.424 188.042 501.88 189.091 502.928L189.288 503.125C190.159 503.995 190.682 505.154 190.759 506.383L191.435 517.214C191.506 518.352 192.286 519.322 193.382 519.636C194.24 519.882 195.164 519.687 195.849 519.115L196.137 518.875C196.99 518.164 198.137 517.914 199.209 518.206L202.532 519.112L203.699 519.446C204.979 519.813 206.358 519.559 207.423 518.76L208.307 518.097C208.977 517.594 209.865 517.488 210.635 517.818C211.745 518.293 213.035 517.847 213.613 516.786L214.201 515.709C214.893 514.44 216.262 513.692 217.704 513.794L220.354 513.983C221.261 514.047 222.134 514.356 222.881 514.875L229.798 519.688C231.316 520.744 233.289 520.887 234.942 520.06L241.947 516.557C244.246 515.408 247.041 516.168 248.441 518.322L257.874 532.834L265.049 541.208C265.736 542.009 266.154 543.005 266.245 544.056L266.786 550.253C266.933 551.94 267.927 553.436 269.426 554.225L272.241 555.706C273.928 556.594 274.22 558.887 272.81 560.169C271.65 561.224 271.608 563.035 272.716 564.144L276.786 568.213C277.284 568.711 277.672 569.308 277.926 569.964L284.829 587.829C285.148 588.655 285.679 589.383 286.369 589.94L298.387 599.634C299.111 600.218 299.982 600.591 300.905 600.711L307.554 601.578C309.105 601.781 310.475 602.69 311.264 604.041L312.097 605.47C312.81 606.692 314.004 607.559 315.387 607.86L321.373 609.161C322.867 609.485 324.134 610.47 324.818 611.838L326.89 615.982C327.178 616.558 326.992 617.259 326.456 617.617C325.645 618.158 325.713 619.37 326.579 619.817L351.752 632.809C352.574 633.234 353.264 633.875 353.746 634.664L356.709 639.514C357.545 640.883 358.983 641.773 360.582 641.912L378.938 643.507C378.992 643.512 379.026 643.45 378.993 643.406C378.953 643.352 379.015 643.28 379.074 643.313L390.226 649.508C390.711 649.778 391.266 649.896 391.818 649.846L410.137 648.22C411.062 648.138 411.946 647.802 412.693 647.25L432.16 632.859C432.446 632.648 432.709 632.406 432.944 632.14L437.668 626.787C438.782 625.524 440.453 624.899 442.123 625.122L458.022 627.242C459.312 627.414 460.486 628.077 461.299 629.094L468.346 637.901C468.894 638.587 469.254 639.403 469.391 640.269L470.347 646.32C470.483 647.183 470.393 648.065 470.087 648.882L469.972 649.189C469.469 650.529 469.559 652.019 470.218 653.29L480.435 672.97C481.128 674.305 482.381 675.262 483.851 675.579L497.139 678.452C497.999 678.638 498.796 679.046 499.45 679.634L501.03 681.056C502.279 682.179 504.004 682.608 505.634 682.201L512.954 680.371C513.647 680.198 514.369 680.173 515.072 680.3L531.398 683.232C531.693 683.284 531.992 683.311 532.291 683.311H542.46C542.699 683.311 542.938 683.328 543.175 683.362L552.422 684.683L561.572 685.142L574.501 684.737C575.607 684.702 576.693 685.031 577.594 685.674L578.457 686.291C579.083 686.737 579.803 687.035 580.561 687.162L595.876 689.714L604.106 690.628L610.509 691.545L611.939 691.748C613.086 691.911 614.254 691.675 615.247 691.079L618.07 689.387C619.618 688.459 620.554 686.774 620.523 684.968L620.129 662.223C620.12 661.65 620.207 661.081 620.388 660.538L623.364 651.611C623.905 649.988 625.231 648.749 626.887 648.319L634.278 646.402C635.737 646.024 636.951 645.014 637.588 643.649L638.784 641.084C639.416 639.729 640.616 638.724 642.06 638.339L646.643 637.116L654.418 635.285L661.366 634.338C663.274 634.078 664.867 632.756 665.476 630.93L667.682 624.311L669.115 618.287C669.623 616.154 668.691 613.938 666.811 612.81C665.892 612.258 664.82 612.014 663.753 612.114L656.553 612.789C653.494 613.076 650.89 610.589 651.036 607.52L651.646 594.7C651.664 594.317 651.639 593.934 651.57 593.557L649.453 581.913C649.129 580.13 647.874 578.657 646.165 578.054L641.884 576.542C641.4 576.372 640.945 576.128 640.534 575.82L636.463 572.767C635.936 572.371 635.337 572.083 634.699 571.918L623.318 568.968L617.709 566.725C616.888 566.396 616.168 565.858 615.62 565.165L609.595 557.532L605.478 550.67L600.805 540.899C600.568 540.403 600.252 539.95 599.87 539.557L587.424 526.757C585.702 524.986 585.514 522.229 586.979 520.24L610.053 488.925L611.659 485.982C612.38 484.66 612.474 483.085 611.915 481.687L607.578 470.844C606.855 469.037 605.159 467.806 603.217 467.679L587.064 466.625C585.956 466.553 584.903 466.118 584.067 465.387L579.7 461.567C578.639 460.639 578.015 459.31 577.976 457.901L577.592 443.7C577.582 443.36 577.608 443.02 577.667 442.685L578.633 437.212C578.838 436.05 578.63 434.853 578.044 433.828L575.522 429.414C575.369 429.146 575.241 428.864 575.139 428.572L569.245 411.677C568.731 410.205 568.926 408.578 569.773 407.269L575.038 399.133C576.805 396.402 575.568 392.737 572.508 391.636L569.857 390.682C568.13 390.06 566.876 388.55 566.582 386.738L564.772 375.58C564.488 373.826 565.146 372.051 566.506 370.907L570.537 367.513C572.006 366.276 572.503 364.229 571.765 362.456C571.124 360.918 571.408 359.15 572.497 357.888L578.508 350.927C579.098 350.245 579.494 349.417 579.655 348.53L581.051 340.857C581.175 340.173 581.157 339.472 580.998 338.795L580.14 335.154C579.693 333.256 580.379 331.269 581.903 330.051L582.364 329.683C583.402 328.853 584.071 327.647 584.226 326.327L584.74 321.952C584.843 321.074 584.714 320.185 584.366 319.373L581.12 311.799C580.896 311.275 580.761 310.716 580.723 310.146L580.322 304.145L580.742 296.195C580.768 295.705 580.722 295.214 580.606 294.738L578.723 286.973C578.628 286.583 578.58 286.183 578.58 285.782V245.16C578.58 220.745 560.671 201.112 538.908 201.112V200.86Z" fill="url(#paint0_radial_6_547)" stroke="white" stroke-width="12" mask="url(#path-1-inside-1_6_547)"/>
<path d="M341.269 80.7246C341.269 80.7246 341.269 80.7246 341.42 80.7246C341.723 80.7246 342.025 80.7246 342.177 80.4675C342.177 80.4675 344.143 77.7687 343.235 75.7125C342.177 73.6562 338.697 73.0137 338.546 73.0137C338.244 73.0137 337.941 73.0137 337.639 73.2707C337.639 73.2707 335.672 75.9695 336.58 78.0258C337.639 80.082 341.118 80.7246 341.269 80.7246ZM338.697 74.4273C339.605 74.6844 341.118 75.1984 341.571 76.2265C342.025 77.1261 341.572 78.5398 340.966 79.1824C340.059 78.9254 338.546 78.2828 338.092 77.3832C337.639 76.4836 338.092 75.1984 338.697 74.4273Z" fill="white"/>
<path d="M328.26 88.4338C328.714 88.5624 329.319 88.6909 329.773 88.6909C331.739 88.6909 333.706 87.6628 333.706 87.5342C334.008 87.4057 334.16 87.1487 334.008 86.7632C334.008 86.7632 333.252 83.6788 330.832 82.7792C328.411 81.8796 325.386 83.5503 325.235 83.6788C324.932 83.8073 324.781 84.0643 324.932 84.4499C324.932 84.4499 325.688 87.5342 328.109 88.4338H328.26ZM330.378 84.1929C331.437 84.5784 332.193 85.8635 332.496 86.6346C331.588 87.0202 330.075 87.5342 329.016 87.1487C327.958 86.7632 327.201 85.478 326.899 84.7069C327.655 84.3214 329.319 83.8073 330.378 84.1929Z" fill="white"/>
<path d="M369.102 83.8077C369.102 83.8077 365.925 82.1371 363.505 82.9081C361.084 83.8078 360.328 86.7636 360.328 86.8921C360.328 87.1491 360.328 87.4062 360.631 87.6632C360.631 87.6632 362.597 88.8198 364.564 88.8198C366.53 88.8198 365.622 88.8198 366.076 88.5628C368.497 87.6632 369.253 84.7073 369.253 84.5788C369.253 84.3218 369.253 84.0648 368.95 83.8077H369.102ZM365.623 87.1491C364.564 87.5347 363.051 87.1491 362.143 86.6351C362.446 85.864 363.051 84.5788 364.261 84.1933C365.32 83.8078 366.984 84.1933 367.74 84.7073C367.438 85.4784 366.681 86.7636 365.623 87.1491Z" fill="white"/>
<path d="M355.941 73.0131C355.941 73.0131 352.31 73.6556 351.251 75.7119C350.192 77.7681 352.159 80.3384 352.31 80.4669C352.462 80.724 352.764 80.7239 353.067 80.7239C353.369 80.7239 353.067 80.7239 353.218 80.7239C353.218 80.7239 356.848 80.0814 357.907 78.0251C358.966 75.9689 357 73.3986 356.848 73.2701C356.697 73.0131 356.394 72.8845 355.941 73.0131ZM356.243 77.5111C355.789 78.4107 354.277 79.0533 353.369 79.3103C352.915 78.6677 352.31 77.254 352.764 76.3544C353.218 75.4548 354.731 74.8123 355.638 74.5552C356.092 75.1978 356.697 76.6115 356.243 77.5111Z" fill="white"/>
<path d="M368.042 108.483C373.488 94.9887 373.488 83.8079 368.042 70.3138C370.009 69.7998 371.37 68.3861 371.522 66.5869C371.522 65.4303 371.219 64.1451 370.16 63.374C369.253 62.4744 367.891 61.9604 366.379 61.9604H365.168C366.53 60.5467 368.194 57.9764 367.286 54.2495C365.622 47.4382 354.277 43.0687 349.588 41.655C350.042 41.141 350.495 40.6269 350.495 39.8558C350.495 38.6992 349.588 37.7996 348.378 37.4141V6.95605C348.378 6.57051 348.075 6.31348 347.621 6.31348C347.167 6.31348 346.865 6.57051 346.865 6.95605V37.4141C345.655 37.6711 344.747 38.6992 344.747 39.8558C344.747 41.0125 345.05 41.141 345.655 41.655C341.117 43.1972 329.772 47.8238 327.956 54.2495C326.746 57.9764 328.562 60.6752 330.074 62.0889H328.713C327.351 62.0889 325.99 62.603 324.931 63.5026C324.023 64.4022 323.418 65.5588 323.57 66.7154C323.721 68.5146 325.234 69.9283 327.2 70.4424C321.452 84.1934 321.301 94.9887 327.2 108.611C325.385 109.125 323.872 110.539 323.721 112.338C323.721 113.495 324.023 114.78 325.082 115.551C325.99 116.451 327.351 116.965 328.864 116.965H330.074C328.713 118.378 327.049 120.949 327.956 124.676C329.923 133.029 346.865 137.656 347.621 137.913C347.621 137.913 347.773 137.913 347.924 137.913C348.075 137.913 348.075 137.913 348.226 137.913C348.983 137.656 365.471 132.515 367.74 124.804C368.95 121.077 367.135 118.378 365.622 116.965H366.984C368.345 116.965 369.706 116.451 370.765 115.551C371.673 114.651 372.278 113.495 372.127 112.338C371.975 110.667 370.614 109.254 368.799 108.611L368.042 108.483ZM324.175 88.4344C324.931 88.6915 325.536 89.077 325.839 89.5911C325.839 89.8481 326.292 89.9766 326.595 89.9766L329.318 92.0328L326.595 94.0891C326.292 94.0891 325.99 94.2176 325.839 94.4746C325.536 94.9887 325.234 95.2457 324.629 95.5027C324.175 93.061 324.023 90.6192 324.175 88.3059V88.4344ZM327.049 74.2978L328.562 74.6833C328.713 74.6833 328.864 74.6833 329.015 74.6833H329.318C329.62 74.5548 330.225 74.4263 330.679 74.2978C332.192 74.0408 333.553 74.5548 334.158 75.5829C334.461 76.2255 334.612 76.7396 334.158 77.3822C334.158 77.6392 334.158 77.8962 334.31 78.1532V81.2376H330.831C330.528 80.8521 330.225 80.8521 329.923 80.9806C329.167 81.2376 328.562 81.1091 327.805 80.9806C326.595 80.4665 325.99 79.3099 326.292 78.0247C326.292 77.6392 326.444 77.2536 326.595 76.8681V76.6111C326.595 76.4826 326.595 76.354 326.595 76.2255L326.292 75.5829C326.292 75.1974 326.595 74.6833 326.746 74.2978H327.049ZM368.194 75.4544L367.891 76.097C367.891 76.2255 367.891 76.354 367.891 76.4826V76.7396C368.043 76.9966 368.194 77.5107 368.345 77.8962C368.648 79.1814 368.042 80.338 366.832 80.8521C366.076 81.1091 365.471 81.2376 364.715 80.8521C364.412 80.8521 364.11 80.8521 363.807 80.9806H360.177V78.0247H360.328C360.63 77.7677 360.63 77.5107 360.479 77.2536C360.177 76.6111 360.328 76.097 360.479 75.4544C361.084 74.4263 362.446 73.9123 363.958 74.1693C364.412 74.1693 364.866 74.2978 365.32 74.4263H365.622C365.773 74.4263 365.925 74.4263 366.076 74.4263L367.589 73.9123C367.589 74.2978 367.891 74.6833 368.042 75.0689L368.194 75.4544ZM370.16 95.7598C369.555 95.5027 369.101 95.2457 368.95 94.7317C368.95 94.4746 368.496 94.3461 368.194 94.3461L365.471 92.2899L368.194 90.2336C368.496 90.2336 368.799 90.1051 368.95 89.8481C369.253 89.2055 369.858 88.82 370.463 88.6915C370.463 91.1332 370.463 93.4465 370.009 95.8883L370.16 95.7598ZM335.974 106.812C335.974 106.812 335.974 106.555 336.125 106.427V102.314C336.276 102.314 336.276 102.314 336.276 102.314L343.386 100.001L346.562 106.169L344.293 108.226H342.932C342.932 108.226 342.932 108.097 342.932 107.969C343.991 105.912 342.024 103.342 341.873 103.214C341.722 102.957 341.419 102.828 340.965 102.957C340.965 102.957 337.335 103.599 336.276 105.655C335.822 106.427 335.974 107.326 336.276 108.097H335.671C335.671 107.583 335.671 107.198 335.671 106.684L335.974 106.812ZM343.386 89.2055C343.84 89.2055 344.142 88.9485 344.142 88.5629L344.445 85.9926L346.865 87.6633C347.016 87.6633 347.167 87.7918 347.319 87.7918C347.47 87.7918 347.621 87.7919 347.773 87.6633L350.193 85.9926L350.495 88.5629C350.495 88.9485 350.798 89.2055 351.252 89.2055L354.277 89.4625L352.311 91.5188C352.008 91.7758 352.008 92.1614 352.311 92.4184L354.277 94.4746L351.252 94.7317C350.798 94.7317 350.495 94.9887 350.495 95.3742L350.193 97.9445L347.773 96.2738C347.47 96.0168 347.016 96.0168 346.714 96.2738L344.293 97.9445L343.991 95.3742C343.991 94.9887 343.688 94.7317 343.235 94.7317L340.209 94.4746L342.176 92.4184C342.478 92.1614 342.478 91.7758 342.176 91.5188L340.209 89.4625L343.235 89.2055H343.386ZM344.445 73.9123C343.688 73.6552 343.235 73.1412 343.083 72.6271C342.932 72.1131 342.932 71.4705 343.083 70.9564H351.554C351.857 71.4705 351.857 72.1131 351.554 72.6271C351.252 73.2697 350.798 73.6552 350.193 74.0408C349.89 74.0408 349.739 74.4263 349.739 74.6833L347.319 76.9966L344.898 74.6833C344.898 74.4263 344.747 74.1693 344.445 74.0408V73.9123ZM347.319 79.6954L349.739 84.4505L347.319 86.2497L344.898 84.4505L347.319 79.6954ZM338.243 106.298C338.696 105.398 340.209 104.756 341.117 104.499C341.571 105.27 342.176 106.555 341.722 107.455C341.722 107.712 341.419 107.969 341.117 108.226H338.394C338.091 107.583 338.091 106.812 338.394 106.298H338.243ZM347.319 104.113L344.898 99.3582L347.319 97.559L349.739 99.3582L347.319 104.113ZM347.319 107.583L348.075 108.226H346.562L347.319 107.583ZM352.764 107.583C352.311 106.684 352.764 105.398 353.369 104.627C354.277 104.884 355.79 105.398 356.244 106.427C356.546 107.069 356.395 107.84 356.244 108.483H353.521C353.218 108.226 352.916 107.969 352.764 107.712V107.583ZM358.513 106.555C358.513 106.684 358.513 106.812 358.513 106.941C358.361 107.455 358.513 107.969 358.513 108.354H357.756C358.059 107.583 358.059 106.684 357.756 105.784C356.697 103.728 353.218 103.085 353.067 103.085C352.764 103.085 352.462 103.085 352.159 103.342C352.159 103.342 350.193 106.041 351.1 108.097C351.1 108.097 351.1 108.226 351.1 108.354H349.89L347.621 106.169L350.798 100.001L358.059 102.443V106.555H358.513ZM351.706 98.7156L352.008 96.0168L355.185 95.7598L357.454 100.643L351.706 98.7156ZM355.941 94.0891L353.823 92.0328L355.941 89.9766L361.538 92.0328L355.941 94.0891ZM355.185 88.1774L352.008 87.9204L351.706 85.2216L357.454 83.2938L355.185 88.1774ZM342.629 87.9204L339.453 88.1774L337.184 83.2938L342.932 85.2216L342.629 87.9204ZM338.696 89.8481L340.814 91.9043L338.696 93.9606L333.1 91.9043L338.696 89.8481ZM339.453 95.7598L342.629 96.0168L342.932 98.7156L337.184 100.643L339.453 95.7598ZM360.479 108.354C360.328 107.84 360.479 107.455 360.479 106.941C360.479 106.684 360.479 106.426 360.328 106.169V103.085H363.807C364.11 103.471 364.412 103.471 364.715 103.342C365.471 103.085 366.076 103.214 366.832 103.342C367.286 103.599 367.74 103.856 368.042 104.37C367.589 105.655 367.135 106.941 366.681 108.226H360.63L360.479 108.354ZM367.589 102.314C366.681 101.928 365.622 101.8 364.563 101.928C364.563 101.928 364.261 101.928 364.11 101.928H359.571C359.571 101.671 359.571 101.671 359.571 101.543L356.697 95.2457L363.504 92.6754L367.135 95.5027C367.135 95.5027 367.437 95.6313 367.589 95.6313C368.194 96.5309 369.101 96.9164 369.858 97.1734C369.858 97.816 369.555 98.4586 369.404 99.1012C369.253 98.5871 368.496 96.0168 366.227 95.2457C363.807 94.3461 360.782 96.0168 360.63 96.1453C360.328 96.2738 360.177 96.5309 360.328 96.9164C360.328 96.9164 361.084 100.001 363.504 100.9C363.958 101.029 364.563 101.157 365.017 101.157C366.984 101.157 368.95 100.129 368.95 100.001C368.648 101.029 368.496 101.928 368.194 102.957C367.891 102.7 367.589 102.571 367.286 102.443L367.589 102.314ZM367.74 99.1012C366.832 99.4867 365.32 100.001 364.261 99.6152C363.202 99.2297 362.446 97.9445 362.143 97.1734C362.899 96.7879 364.563 96.2738 365.622 96.6594C366.681 97.0449 367.437 98.3301 367.74 99.1012ZM370.009 87.2778C368.95 87.5348 368.194 88.0489 367.589 88.82C367.437 88.82 367.286 88.82 367.135 88.9485L364.11 91.3903L356.849 88.6915L359.571 82.9083H364.261C364.412 82.7798 364.563 82.6513 364.715 82.6513C365.773 82.9083 366.681 82.6513 367.74 82.2657C368.648 81.8802 369.404 81.2376 369.706 80.4665C370.16 82.7798 370.614 84.9645 370.765 87.1493C370.614 87.1493 370.463 87.1493 370.16 87.1493L370.009 87.2778ZM365.925 73.5267C365.471 73.5267 365.017 73.2697 364.412 73.2697C362.143 73.0127 360.177 73.7837 359.269 75.3259C358.815 76.097 358.664 76.9966 358.966 77.7677C358.966 77.7677 358.966 78.0247 358.815 78.1532V81.6231L351.403 84.0649L348.529 78.2818L351.554 75.5829C351.554 75.5829 351.706 75.3259 351.706 75.1974C352.613 74.8119 353.218 74.0408 353.521 73.1412C353.823 72.3701 353.823 71.7275 353.521 70.9564H366.681C366.984 71.599 367.286 72.3701 367.589 73.0126L366.227 73.3982L365.925 73.5267ZM328.41 71.0849H341.419C341.268 71.7275 341.268 72.3701 341.419 73.1412C341.722 74.0408 342.327 74.6833 343.235 75.0689C343.235 75.1974 343.235 75.3259 343.386 75.4544L346.26 78.1532L343.235 83.9364L336.125 81.6231V78.1532C335.974 78.0247 335.822 77.8962 335.822 77.7677C336.125 76.8681 335.822 76.097 335.369 75.1974C334.461 73.6552 332.343 72.8841 330.225 73.1412C329.62 73.1412 329.167 73.3982 328.713 73.3982L327.503 73.0126C327.805 72.3701 327.956 71.599 328.259 70.9564L328.41 71.0849ZM327.2 82.2657C328.108 82.6513 329.167 82.7798 330.225 82.6513C330.225 82.6513 330.528 82.6513 330.679 82.6513H335.217L337.94 88.5629L330.679 91.2618L327.654 88.9485C327.654 88.9485 327.351 88.82 327.2 88.82C326.746 88.0489 325.839 87.5348 324.78 87.2778C324.629 87.2778 324.477 87.2778 324.175 87.2778C324.175 85.093 324.629 82.9083 325.234 80.595C325.687 81.3661 326.292 82.0087 327.2 82.3942V82.2657ZM330.377 99.6152C329.318 100.001 327.654 99.6152 326.898 99.1012C327.2 98.3301 327.956 97.0449 329.015 96.6594C330.074 96.2738 331.587 96.6594 332.494 97.1734C332.192 97.9445 331.587 99.2297 330.377 99.6152ZM329.469 101.157C329.923 101.157 330.528 101.157 330.982 100.9C333.402 100.001 334.158 97.0449 334.158 96.9164C334.158 96.6594 334.158 96.4023 333.856 96.1453C333.856 96.1453 330.679 94.4746 328.259 95.2457C326.292 95.8883 325.536 97.816 325.234 98.7156C325.234 98.2015 324.931 97.6875 324.931 97.0449C325.839 96.7879 326.595 96.2738 327.2 95.5027C327.351 95.5027 327.503 95.5027 327.654 95.3742L331.284 92.5469L337.94 94.9887L335.066 101.286C335.066 101.286 335.066 101.286 335.066 101.414H330.831C330.679 101.543 330.528 101.671 330.377 101.671C329.469 101.414 328.41 101.671 327.351 102.057C327.049 102.186 326.746 102.443 326.444 102.571C326.141 101.671 325.839 100.772 325.687 99.8722C326.141 100.129 327.805 100.9 329.62 100.9L329.469 101.157ZM327.956 103.599C328.41 103.471 328.713 103.342 329.167 103.342C329.62 103.342 329.772 103.342 330.074 103.471C330.377 103.471 330.679 103.471 330.982 103.342H334.612V106.298H334.461C334.158 106.555 334.158 106.812 334.31 107.069C334.461 107.455 334.461 107.969 334.31 108.354H328.259C327.654 107.069 327.2 105.784 326.746 104.499C327.049 104.113 327.351 103.856 327.805 103.599H327.956ZM328.864 55.5346C328.864 55.5346 329.015 55.5346 329.167 55.5346C329.469 55.5346 329.772 55.5346 330.074 55.6632C330.377 55.6632 330.679 55.6632 330.982 55.5346H334.612V58.4905H334.461C334.158 58.7475 334.158 59.0045 334.31 59.2616C334.612 59.9041 334.612 60.4182 334.31 61.0608C334.007 61.5748 333.553 61.9604 332.948 62.0889H332.192C331.284 61.5748 328.562 59.3901 329.167 55.5346H328.864ZM329.62 53.3499C330.074 53.3499 330.528 53.3499 330.982 53.0929C333.402 52.1933 334.158 49.2374 334.158 49.1089C334.158 49.1089 334.158 48.8519 334.158 48.7234C335.066 48.0808 335.822 47.5667 336.73 47.0527L337.638 47.4382L334.763 53.7354C334.763 53.7354 334.763 53.7354 334.763 53.8639H330.528C330.377 53.9925 330.225 54.121 330.074 54.121C329.772 54.121 329.469 54.121 329.318 54.121C329.318 53.8639 329.469 53.6069 329.62 53.3499ZM347.319 42.4261C347.924 42.5546 349.739 43.1972 352.008 43.9683C352.008 44.0968 352.008 44.3539 352.159 44.4824L354.126 46.5386L351.1 46.7956C350.647 46.7956 350.344 47.0527 350.344 47.4382L350.042 50.0085L347.621 48.3378C347.319 48.0808 346.865 48.0808 346.562 48.3378L344.142 50.0085L343.84 47.4382C343.84 47.0527 343.537 46.7956 343.083 46.7956L340.058 46.5386L342.024 44.4824C342.024 44.4824 342.024 44.3539 342.024 44.2253C344.445 43.1972 346.26 42.5546 347.016 42.2976L347.319 42.4261ZM364.261 51.8077C364.261 51.8077 364.261 51.8077 364.261 51.6792C364.261 51.6792 364.261 51.6792 364.412 51.8077H364.261ZM363.504 53.0929C363.958 53.2214 364.563 53.3499 365.017 53.3499C365.017 53.6069 365.168 53.8639 365.32 54.121C365.017 54.121 364.715 54.121 364.412 54.121C364.412 54.121 364.11 54.121 363.958 54.121H359.42C359.42 53.8639 359.42 53.8639 359.42 53.7354L356.546 47.4382L358.059 46.9242C358.966 47.4382 359.723 47.9523 360.479 48.4663C360.177 48.5948 360.025 48.8519 360.177 49.1089C360.177 49.1089 360.933 52.1933 363.353 53.0929H363.504ZM362.748 62.0889H361.992C361.387 61.8319 360.933 61.4463 360.63 60.9323C360.328 60.2897 360.177 59.7756 360.63 59.1331C360.63 58.876 360.63 58.619 360.479 58.362V55.2776H363.958C364.261 55.6632 364.563 55.6632 364.866 55.5346C365.32 55.5346 365.622 55.4061 366.076 55.5346C366.53 59.3901 363.958 61.5748 363.051 62.0889H362.748ZM352.764 59.7756C352.311 58.876 352.764 57.5909 353.369 56.8198C354.277 57.0768 355.79 57.5909 356.244 58.619C356.697 59.5186 356.244 60.8037 355.639 61.5748C354.731 61.3178 353.218 60.8037 352.764 59.7756ZM357.756 57.9764C356.697 55.9202 353.218 55.2776 353.067 55.2776C352.764 55.2776 352.462 55.2776 352.159 55.5346C352.159 55.5346 350.193 58.2334 351.1 60.2897C351.554 61.0608 352.159 61.7034 352.916 62.0889H351.706C351.554 61.9604 351.403 61.8319 351.1 61.7034C351.1 61.5748 351.1 61.4463 350.949 61.3178L347.773 58.362L350.949 52.1933L358.21 54.635V58.7475C358.361 58.876 358.513 59.0045 358.513 59.1331C358.21 60.1612 358.513 61.0608 358.966 61.5748C358.966 61.7033 359.118 61.8319 359.269 61.9604H357C357.605 61.0608 358.21 59.3901 357.605 57.8479L357.756 57.9764ZM338.243 58.4905C338.696 57.5909 340.209 56.9483 341.117 56.6913C341.571 57.3339 342.176 58.7475 341.722 59.6471C341.268 60.5467 339.755 61.1893 338.848 61.4463C338.394 60.6752 337.789 59.3901 338.243 58.4905ZM343.235 60.2897C344.293 58.2334 342.327 55.6632 342.176 55.5346C342.024 55.2776 341.722 55.1491 341.268 55.2776C341.268 55.2776 337.638 55.9202 336.579 57.9764C335.822 59.3901 336.579 61.1893 337.184 62.0889H335.066C335.066 61.9604 335.369 61.8319 335.369 61.7034C335.822 60.9323 335.974 60.0327 335.671 59.2616C335.671 59.2616 335.671 59.0045 335.822 58.876V54.7636C335.974 54.7636 335.974 54.7636 335.974 54.7636L343.083 52.4503L346.26 58.619L343.083 61.5748C343.083 61.5748 342.932 61.8319 342.932 61.9604C342.781 61.9604 342.478 62.2174 342.327 62.3459H340.965C341.722 61.9604 342.478 61.3178 342.781 60.5467L343.235 60.2897ZM339.453 47.9523L342.629 48.2093L342.932 50.9081L337.184 52.8358L339.453 47.9523ZM347.319 56.4342L344.898 51.6792L347.319 49.88L349.739 51.6792L347.319 56.4342ZM347.319 59.9041L349.739 62.0889H344.898L347.319 59.9041ZM355.185 47.9523L357.454 52.8358L351.706 50.9081L352.008 48.2093L355.185 47.9523ZM346.714 38.9562C346.714 39.2133 347.167 39.3418 347.47 39.3418C347.773 39.3418 348.075 39.2133 348.226 38.9562C348.529 39.2133 348.831 39.4703 348.831 39.8558C348.831 40.4984 348.226 41.0125 347.47 41.0125C346.714 41.0125 346.109 40.4984 346.109 39.8558C346.109 39.2133 346.411 39.0847 346.714 38.9562ZM324.931 66.5869C324.931 65.8158 325.234 65.0447 325.839 64.4022C326.444 63.7596 327.351 63.5026 328.41 63.5026H331.738H366.227C367.135 63.5026 368.042 63.8881 368.799 64.4022C369.404 65.0447 369.706 65.8158 369.706 66.5869C369.706 68.1291 368.042 69.2857 366.227 69.2857H328.108C326.292 69.2857 324.78 68.1291 324.629 66.5869H324.931ZM365.773 123.519C365.32 123.519 365.017 123.519 364.563 123.519C364.261 123.519 363.958 123.519 363.656 123.647H360.025V120.692H360.177C360.479 120.435 360.479 120.178 360.328 119.921C360.025 119.278 360.177 118.764 360.328 118.121C360.63 117.607 361.084 117.222 361.689 117.093H362.446C363.353 117.607 366.227 119.792 365.471 123.647L365.773 123.519ZM365.017 125.704C364.563 125.704 364.11 125.704 363.656 125.961C361.235 126.86 360.479 129.816 360.479 129.945C360.479 129.945 360.479 130.202 360.479 130.33C359.571 130.973 358.815 131.487 357.908 132.001L357 131.615L359.874 125.318C359.874 125.318 359.874 125.318 359.874 125.19H364.11C364.261 125.061 364.412 124.933 364.563 124.933C364.866 124.933 365.168 124.933 365.32 124.933C365.32 125.19 365.168 125.447 365.017 125.704ZM347.319 136.627C346.714 136.499 344.898 135.856 342.629 135.085C342.629 134.957 342.629 134.7 342.478 134.571L340.512 132.515L343.537 132.258C343.991 132.258 344.293 132.001 344.293 131.615L344.596 129.045L347.016 130.716C347.167 130.716 347.319 130.844 347.47 130.844C347.621 130.844 347.773 130.844 347.924 130.716L350.344 129.045L350.647 131.615C350.647 132.001 350.949 132.258 351.403 132.258L354.428 132.515L352.462 134.571C352.462 134.571 352.462 134.7 352.462 134.828C350.042 135.856 348.226 136.499 347.47 136.756L347.319 136.627ZM338.243 133.029L338.696 132.772L339.453 133.672C338.999 133.415 338.545 133.286 338.091 133.029H338.243ZM331.133 125.961C330.528 125.832 330.074 125.704 329.469 125.704C329.469 125.447 329.318 125.19 329.167 124.933C329.469 124.933 329.772 124.933 330.074 124.933C330.074 124.933 330.377 124.933 330.528 124.933H335.066C335.066 125.19 335.066 125.19 335.066 125.318L337.94 131.615L336.427 132.129C335.52 131.615 334.763 131.101 334.007 130.587C334.31 130.459 334.461 130.202 334.31 129.945C334.31 129.945 333.553 126.86 331.133 125.961ZM332.494 129.431C331.738 128.788 330.982 128.017 330.377 127.246C331.436 127.631 332.041 128.66 332.343 129.431H332.494ZM331.889 117.093H332.646C333.251 117.35 333.705 117.736 334.007 118.121C334.31 118.764 334.461 119.278 334.007 119.921C334.007 120.178 334.007 120.435 334.158 120.692V123.776H330.679C330.377 123.39 330.074 123.39 329.772 123.519C329.318 123.519 329.015 123.647 328.562 123.519C328.108 119.664 330.679 117.607 331.587 116.965L331.889 117.093ZM341.873 119.406C342.327 120.306 341.873 121.591 341.268 122.362C340.36 122.105 338.848 121.591 338.394 120.563C337.94 119.664 338.394 118.378 338.999 117.607C339.907 117.864 341.419 118.378 341.873 119.406ZM336.881 121.206C337.94 123.262 341.419 123.905 341.571 123.905C341.571 123.905 341.571 123.905 341.722 123.905C342.024 123.905 342.327 123.905 342.478 123.647C342.478 123.647 344.445 120.949 343.537 118.892C343.083 118.121 342.478 117.479 341.722 117.093H342.932C343.083 117.222 343.235 117.35 343.537 117.479C343.537 117.607 343.537 117.736 343.688 117.864L346.865 120.82L343.688 126.989L336.427 124.547V120.435C336.276 120.306 336.125 120.178 336.125 120.049C336.427 119.149 336.125 118.378 335.671 117.479C335.671 117.35 335.52 117.222 335.369 117.093H337.638C337.033 117.993 336.427 119.664 337.033 121.206H336.881ZM353.369 117.093C352.613 117.479 351.857 118.121 351.554 118.892C350.495 120.949 352.462 123.519 352.613 123.647C352.764 123.905 353.067 123.905 353.369 123.905C353.672 123.905 353.369 123.905 353.521 123.905C353.521 123.905 357.151 123.262 358.21 121.206C358.966 119.792 358.21 117.993 357.605 117.093H359.723C359.723 117.222 359.42 117.35 359.42 117.479C358.966 118.25 358.815 119.149 359.118 119.921C359.118 119.921 359.118 120.178 358.966 120.306V124.419C358.815 124.419 358.815 124.419 358.815 124.419L351.706 126.732L348.529 120.563L351.706 117.607C351.706 117.607 351.857 117.35 351.857 117.222C352.008 117.222 352.311 116.965 352.462 116.836H353.823L353.369 117.093ZM356.546 120.563C356.092 121.463 354.58 122.105 353.672 122.362C353.218 121.591 352.613 120.306 353.067 119.406C353.521 118.507 355.033 117.864 355.941 117.607C356.395 118.25 357 119.664 356.546 120.563ZM355.487 131.101L352.311 130.844L352.008 128.146L357.756 126.218L355.487 131.101ZM347.621 122.619L350.042 127.374L347.621 129.174L345.201 127.374L347.621 122.619ZM347.621 119.149L345.201 116.965H350.042L347.621 119.149ZM339.755 131.101L337.486 126.218L343.235 128.146L342.932 130.844L339.755 131.101ZM369.101 114.651C368.496 115.294 367.589 115.551 366.53 115.551H328.41C327.503 115.551 326.595 115.166 325.839 114.651C325.082 114.137 324.931 113.238 324.931 112.467C324.931 110.925 326.595 109.768 328.41 109.768H366.53C368.345 109.768 369.858 110.925 370.009 112.467C370.009 113.238 369.706 114.137 369.101 114.651Z" fill="white"/>
<path d="M346.768 218.679C355.556 208.609 363.552 200.617 359.798 196.568C356.045 192.519 295.325 215.063 298.751 220.95C300.793 224.456 355.045 263.826 360.397 266.995C366.682 270.713 376.779 266.361 375.889 259.446L367.696 196.033C367.696 196.033 371.843 201.603 373.125 205.451M388.525 264.326C387.638 257.415 380.332 200.909 380.332 200.909C380.332 200.909 384.479 206.479 385.761 210.331" stroke="#37BEC1" stroke-width="5.07" stroke-linecap="round" stroke-linejoin="round"/>
<path d="M364.932 290.251C364.932 268.358 357.573 219.796 357.573 219.796C357.573 219.796 361.721 225.362 363.006 229.214M342.705 222.218C341.423 218.366 337.279 212.796 337.279 212.796C337.279 212.796 339.367 238.174 351.507 243.209C318.953 227.439 303.458 279.044 289.392 263.94C279.354 253.166 297.385 238.026 297.385 238.026" stroke="#37BEC1" stroke-width="5.07" stroke-linecap="round" stroke-linejoin="round"/>
<path d="M398.496 220.397C397.211 216.549 393.067 210.979 393.067 210.979C393.067 210.979 400.2 273.984 401.721 290.25C402.443 298 388.081 301.552 382.751 288.525C377.42 275.498 382.307 271.79 385.564 271.79C388.821 271.79 394.155 282.649 385.564 287.683C376.973 292.718 362.661 296.373 358.32 301.404C353.979 306.435 346.374 317.987 341.339 317.987C336.304 317.987 326.435 312.562 337.688 290.25M410.935 280.674C410.044 269.125 404.024 222.333 404.024 222.333C404.024 222.333 408.171 227.9 409.453 231.752M314.267 202.49C320.337 198.712 332.85 196.346 339.364 191.237M296.621 266.742C288.526 275.639 290.797 293.701 300.279 290.743C303.817 289.638 308.077 282.279 315.183 279.096C327.108 273.759 342.36 271.033 341.441 262.513C340.258 251.507 329.695 245.103 329.695 245.103" stroke="#37BEC1" stroke-width="5.07" stroke-linecap="round" stroke-linejoin="round"/>
<path d="M355.901 273.171C350.841 270.935 349.187 268.358 349.187 268.358C353.285 277.512 356.443 283.089 356.545 287.483C356.647 291.877 333.987 305.918 324.259 305.918C312.936 305.918 304.648 297.778 307.866 284.265M300.684 222.88C293.24 226.33 288.625 242.656 294.3 241.008" stroke="#37BEC1" stroke-width="5.07" stroke-linecap="round" stroke-linejoin="round"/>
<path d="M172.223 279C172.223 279 171.807 284.406 166.609 285.029C171.807 285.653 172.223 291.059 172.223 291.059C172.223 291.059 172.638 285.653 177.836 285.029C172.638 284.613 172.223 279 172.223 279Z" fill="#FFD08A"/>
<path d="M450.816 364.24C450.816 364.24 450.401 369.646 445.203 370.27C450.401 370.893 450.816 376.299 450.816 376.299C450.816 376.299 451.232 370.893 456.43 370.27C451.232 369.854 450.816 364.24 450.816 364.24Z" fill="#FFD08A"/>
<path d="M247.069 343.451C247.069 343.451 246.653 348.856 241.455 349.48C246.653 350.104 247.069 355.509 247.069 355.509C247.069 355.509 247.484 350.104 252.682 349.48C247.484 349.064 247.069 343.451 247.069 343.451Z" fill="#FFD08A"/>
<path d="M704.462 486.906C704.462 486.906 704.046 492.312 698.848 492.936C704.046 493.559 704.462 498.965 704.462 498.965C704.462 498.965 704.877 493.559 710.075 492.936C704.669 492.52 704.462 486.906 704.462 486.906Z" fill="#FFD08A"/>
<path d="M462.459 610.818C462.459 610.818 462.043 616.223 456.846 616.847C462.043 617.47 462.459 622.876 462.459 622.876C462.459 622.876 462.875 617.47 468.073 616.847C462.667 616.431 462.459 610.818 462.459 610.818Z" fill="#FFD08A"/>
<path d="M370.565 424.535C370.565 424.535 369.525 439.089 355.803 440.336C369.525 441.792 370.565 456.137 370.565 456.137C370.565 456.137 371.604 441.584 385.326 440.336C371.604 439.089 370.565 424.535 370.565 424.535Z" fill="#FFD08A"/>
<path d="M112.761 401.041C112.761 401.041 111.722 415.595 98 416.842C111.722 418.297 112.761 432.643 112.761 432.643C112.761 432.643 113.801 418.09 127.523 416.842C113.801 415.595 112.761 401.041 112.761 401.041Z" fill="#FFD08A"/>
<path d="M356.219 279C356.219 279 355.388 289.603 345.408 290.643C355.388 291.682 356.219 302.285 356.219 302.285C356.219 302.285 357.051 291.682 367.03 290.643C357.051 289.395 356.219 279 356.219 279Z" fill="#FFD08A"/>
<path d="M203.2 476.51C203.2 476.51 202.577 485.866 193.637 486.906C202.577 487.737 203.2 497.301 203.2 497.301C203.2 497.301 203.824 487.945 212.764 486.906C204.032 485.866 203.2 476.51 203.2 476.51Z" fill="#FFD08A"/>
<path d="M288.234 684.209C288.234 684.209 287.61 693.565 278.67 694.605C287.61 695.436 288.234 705 288.234 705C288.234 705 288.858 695.644 297.798 694.605C288.858 693.565 288.234 684.209 288.234 684.209Z" fill="#FFD08A"/>
<g opacity="0.15" filter="url(#filter0_d_6_547)">
<path d="M345.482 576.307C447.573 576.307 530.333 557.036 530.333 533.264C530.333 509.493 447.573 490.222 345.482 490.222C243.391 490.222 160.63 509.493 160.63 533.264C160.63 557.036 243.391 576.307 345.482 576.307Z" fill="#393C97"/>
</g>
<g filter="url(#filter1_d_6_547)">
<path d="M490.25 325.544L345.482 375.05L200.566 325.544L131.265 426.319L345.482 499.623L559.551 426.319L490.25 325.544Z" fill="#6E71B5"/>
<path opacity="0.45" d="M156.519 422.205L334.176 490.221L273.097 429.697C273.097 429.697 172.816 405.458 156.519 422.205Z" fill="#393C97"/>
<path opacity="0.45" d="M534.444 422.205L356.787 490.221L417.866 429.697C417.719 429.697 518 405.458 534.444 422.205Z" fill="#393C97"/>
<path d="M345.482 499.624L131.265 426.32V435.869L345.482 509.173L559.551 435.869V426.32L345.482 499.624Z" fill="#5456A6"/>
<g filter="url(#filter2_d_6_547)">
<path d="M231.399 543.694L256.212 478.617L336.085 505.941L231.399 543.694Z" fill="#393C97"/>
<path opacity="0.45" d="M238.3 524.891L336.085 505.94L256.212 478.616L238.3 524.891Z" fill="#393C97"/>
<path d="M345.482 502.562L231.399 543.695L239.915 552.656L345.482 515.049L450.901 552.656L459.564 543.695L345.482 502.562Z" fill="#5456A6"/>
<path d="M459.564 543.694L434.604 478.616L354.731 505.94L459.564 543.694Z" fill="#393C97"/>
<path opacity="0.45" d="M452.516 524.891L354.731 505.94L434.604 478.616L452.516 524.891Z" fill="#393C97"/>
</g>
<path d="M345.482 515.048C349.779 515.048 353.263 511.562 353.263 507.262C353.263 502.962 349.779 499.476 345.482 499.476C341.184 499.476 337.7 502.962 337.7 507.262C337.7 511.562 341.184 515.048 345.482 515.048Z" fill="#37BEC1"/>
<path d="M484.084 325.545L345.482 394.589L206.88 325.545C200.566 333.918 149.765 418.681 149.765 418.681C150.352 418.681 150.793 418.828 151.38 418.828C278.823 431.608 314.208 471.713 325.954 481.408C337.7 491.251 345.628 490.222 345.628 490.222C345.628 490.222 353.557 491.251 365.303 481.408C377.049 471.713 412.433 431.608 539.877 418.828C540.464 418.828 540.905 418.681 541.492 418.681C541.198 418.681 490.25 334.065 484.084 325.545Z" fill="#E0AD70"/>
<path d="M541.198 418.681C540.611 418.681 540.17 418.828 539.583 418.828C412.14 431.608 376.755 471.713 365.009 481.408C353.263 491.251 345.335 490.222 345.335 490.222C345.335 490.222 337.406 491.251 325.66 481.408C313.914 471.713 278.53 431.608 151.086 418.828C150.499 418.828 150.058 418.681 149.471 418.681C148.443 420.297 149.471 421.472 149.471 421.472C278.236 433.959 312.446 474.21 324.192 484.052C335.938 493.748 345.188 493.013 345.188 493.013C345.188 493.013 354.438 493.748 366.184 484.052C377.93 474.357 412.14 434.106 540.905 421.472C541.198 421.472 542.226 420.297 541.198 418.681Z" fill="#5456A6"/>
<path d="M478.798 317.465C407.882 300.425 345.335 358.745 345.335 358.745C345.335 358.745 282.788 300.425 211.872 317.465C211.872 317.465 191.757 348.315 164.007 400.759C164.007 400.759 303.637 416.477 345.335 475.091C387.033 416.477 526.663 400.759 526.663 400.759C498.913 348.315 478.798 317.465 478.798 317.465Z" fill="#E2F6EE"/>
<path d="M526.663 400.758C526.663 400.758 387.033 416.476 345.335 475.09C303.784 416.476 164.154 400.758 164.154 400.758C164.154 400.758 164.154 405.459 156.372 414.714C156.372 414.714 283.081 423.822 329.184 476.413C340.049 488.752 345.335 487.283 345.335 487.283C345.335 487.283 350.767 488.752 361.485 476.413C407.441 423.822 534.298 414.714 534.298 414.714C526.663 405.312 526.663 400.758 526.663 400.758Z" fill="#8DDAD7"/>
<path d="M470.869 323.634C470.869 323.634 417.866 310.119 345.335 366.383C272.95 310.266 219.8 323.634 219.8 323.634L183.975 393.266C292.918 400.758 345.335 455.846 345.335 455.846C345.335 455.846 397.751 400.758 506.694 393.266L470.869 323.634ZM345.481 449.236C345.481 449.236 296.442 398.995 192.491 389.153L222.59 326.572C222.59 326.572 274.712 316.436 345.481 369.615C416.251 316.436 468.373 326.572 468.373 326.572L498.472 389.153C394.521 398.995 345.481 449.236 345.481 449.236Z" fill="#37BEC1"/>
<path opacity="0.2" d="M358.843 418.819C378.419 404.373 439.596 372.407 480.707 376.814" stroke="#E0AD70" stroke-width="6.23718" stroke-linecap="round"/>
<path opacity="0.2" d="M358.843 378.283C376.217 364.672 421.39 338.003 463.088 340.218" stroke="#E0AD70" stroke-width="6.23718" stroke-linecap="round"/>
<path opacity="0.2" d="M358.843 398.848C377.685 384.19 426.675 355.47 471.897 357.855" stroke="#E0AD70" stroke-width="6.23718" stroke-linecap="round"/>
<path opacity="0.2" d="M333.882 418.819C314.306 404.373 253.129 372.407 212.018 376.814" stroke="#E0AD70" stroke-width="6.23718" stroke-linecap="round"/>
<path opacity="0.2" d="M333.882 378.283C316.508 364.672 271.335 338.003 229.637 340.218" stroke="#E0AD70" stroke-width="6.23718" stroke-linecap="round"/>
<path opacity="0.2" d="M333.882 398.848C315.04 384.19 266.05 355.47 220.828 357.855" stroke="#E0AD70" stroke-width="6.23718" stroke-linecap="round"/>
<path d="M345.482 358.744C345.482 358.744 346.95 353.602 349.74 355.071C349.74 355.071 347.978 438.365 350.914 470.83C351.648 478.91 358.696 489.927 361.485 494.041H357.815L356.787 497.419C356.787 497.419 345.922 479.057 345.482 471.858C343.279 439.54 344.454 366.53 345.482 358.744Z" fill="#70D1D0"/>
</g>
<defs>
<filter id="filter0_d_6_547" x="125.286" y="463.194" width="440.391" height="156.773" filterUnits="userSpaceOnUse" color-interpolation-filters="sRGB">
<feFlood flood-opacity="0" result="BackgroundImageFix"/>
<feColorMatrix in="SourceAlpha" type="matrix" values="0 0 0 0 0 0 0 0 0 0 0 0 0 0 0 0 0 0 127 0" result="hardAlpha"/>
<feOffset dy="8.31624"/>
<feGaussianBlur stdDeviation="17.672"/>
<feComposite in2="hardAlpha" operator="out"/>
<feColorMatrix type="matrix" values="0 0 0 0 0 0 0 0 0 0 0 0 0 0 0 0 0 0 0.85 0"/>
<feBlend mode="normal" in2="BackgroundImageFix" result="effect1_dropShadow_6_547"/>
<feBlend mode="normal" in="SourceGraphic" in2="effect1_dropShadow_6_547" result="shape"/>
</filter>
<filter id="filter1_d_6_547" x="0.284424" y="183.365" width="690.248" height="500.272" filterUnits="userSpaceOnUse" color-interpolation-filters="sRGB">
<feFlood flood-opacity="0" result="BackgroundImageFix"/>
<feColorMatrix in="SourceAlpha" type="matrix" values="0 0 0 0 0 0 0 0 0 0 0 0 0 0 0 0 0 0 127 0" result="hardAlpha"/>
<feOffset/>
<feGaussianBlur stdDeviation="65.4904"/>
<feComposite in2="hardAlpha" operator="out"/>
<feColorMatrix type="matrix" values="0 0 0 0 0.396078 0 0 0 0 0.839216 0 0 0 0 0.988235 0 0 0 1 0"/>
<feBlend mode="normal" in2="BackgroundImageFix" result="effect1_dropShadow_6_547"/>
<feBlend mode="normal" in="SourceGraphic" in2="effect1_dropShadow_6_547" result="shape"/>
</filter>
<filter id="filter2_d_6_547" x="200.213" y="455.747" width="290.537" height="136.411" filterUnits="userSpaceOnUse" color-interpolation-filters="sRGB">
<feFlood flood-opacity="0" result="BackgroundImageFix"/>
<feColorMatrix in="SourceAlpha" type="matrix" values="0 0 0 0 0 0 0 0 0 0 0 0 0 0 0 0 0 0 127 0" result="hardAlpha"/>
<feOffset dy="8.31624"/>
<feGaussianBlur stdDeviation="15.5929"/>
<feComposite in2="hardAlpha" operator="out"/>
<feColorMatrix type="matrix" values="0 0 0 0 0 0 0 0 0 0 0 0 0 0 0 0 0 0 0.49 0"/>
<feBlend mode="normal" in2="BackgroundImageFix" result="effect1_dropShadow_6_547"/>
<feBlend mode="normal" in="SourceGraphic" in2="effect1_dropShadow_6_547" result="shape"/>
</filter>
<radialGradient id="paint0_radial_6_547" cx="0" cy="0" r="1" gradientUnits="userSpaceOnUse" gradientTransform="translate(392.394 357.155) scale(540.165 395.002)">
<stop stop-color="#393C97"/>
<stop offset="1" stop-color="#37BEC1"/>
</radialGradient>
</defs>
</svg>
