<svg width="120" height="40" viewBox="0 0 120 40" fill="none" xmlns="http://www.w3.org/2000/svg">
<path d="M8 0.5H112C116.142 0.5 119.5 3.85786 119.5 8V32C119.5 36.1421 116.142 39.5 112 39.5H8C3.85786 39.5 0.5 36.1421 0.5 32V8C0.5 3.85786 3.85786 0.5 8 0.5Z" stroke="#B7B7B7"/>
<path d="M23.9656 23C23.6056 23 23.2856 22.936 23.0056 22.808C22.7256 22.672 22.4736 22.468 22.2496 22.196C21.6096 22.764 20.8616 23.048 20.0056 23.048C19.4376 23.048 18.9496 22.96 18.5416 22.784C18.1336 22.608 17.7656 22.4 17.4376 22.16L17.9656 21.212C18.2776 21.388 18.5736 21.532 18.8536 21.644C19.1416 21.748 19.4896 21.8 19.8976 21.8C20.5536 21.8 21.1536 21.624 21.6976 21.272L20.0176 17.348L21.0136 16.82L22.6576 20.708C22.8096 21.076 22.9816 21.332 23.1736 21.476C23.3656 21.612 23.6296 21.68 23.9656 21.68H24.0976L24.1696 22.34L24.0976 23H23.9656ZM23.9791 21.68H24.2551C24.9751 21.68 25.6551 21.6 26.2951 21.44C25.8391 21.016 25.3031 20.412 24.6871 19.628L24.7351 18.764C25.0711 18.428 25.4911 18.176 25.9951 18.008C26.5071 17.832 27.0351 17.744 27.5791 17.744C28.2031 17.744 28.7511 17.856 29.2231 18.08C29.7031 18.296 29.9991 18.6 30.1111 18.992C30.1271 19.04 30.1351 19.12 30.1351 19.232C30.1351 19.552 30.0071 19.912 29.7511 20.312C29.4951 20.712 29.1431 21.092 28.6951 21.452C29.1831 21.604 29.7591 21.68 30.4231 21.68H30.7471L30.8191 22.34L30.7471 23H30.4231C29.7911 23 29.2311 22.944 28.7431 22.832C28.2631 22.712 27.8111 22.524 27.3871 22.268C26.3951 22.756 25.3511 23 24.2551 23H23.9791V21.68ZM25.8991 19.388C26.4911 20.076 27.0511 20.592 27.5791 20.936C28.0111 20.696 28.3511 20.436 28.5991 20.156C28.8471 19.868 29.0151 19.616 29.1031 19.4C29.0231 19.24 28.8471 19.112 28.5751 19.016C28.3111 18.92 28.0031 18.872 27.6511 18.872C27.3231 18.872 27.0031 18.916 26.6911 19.004C26.3871 19.084 26.1231 19.212 25.8991 19.388ZM30.6236 21.68H31.2476C31.8716 21.68 32.3196 21.604 32.5916 21.452C32.8636 21.3 32.9996 21.064 32.9996 20.744C32.9996 20.528 32.9156 20.16 32.7476 19.64C32.5876 19.112 32.4596 18.748 32.3636 18.548L33.3596 18.008C33.5116 18.32 33.6676 18.756 33.8276 19.316C33.9876 19.868 34.0676 20.344 34.0676 20.744C34.0676 21.488 33.8236 22.052 33.3356 22.436C32.8556 22.812 32.1596 23 31.2476 23H30.6236V21.68ZM30.5996 25.004C30.5996 25.004 30.8076 24.796 31.2236 24.38L31.5356 24.068L31.8476 24.38C32.2636 24.796 32.4716 25.004 32.4716 25.004L32.1596 25.316C31.7436 25.732 31.5356 25.94 31.5356 25.94C31.5356 25.94 31.3276 25.732 30.9116 25.316L30.5996 25.004ZM43.6054 23C42.8374 23 42.2814 22.732 41.9374 22.196C41.4734 22.34 41.0214 22.412 40.5814 22.412C39.9094 22.412 39.3574 22.256 38.9254 21.944C38.4934 21.624 38.2774 21.192 38.2774 20.648C38.2774 20.016 38.5294 19.48 39.0334 19.04C39.5454 18.592 40.2334 18.204 41.0974 17.876L41.0134 17.168L42.1294 16.94C42.2654 18.38 42.3814 19.476 42.4774 20.228C42.5174 20.636 42.5734 20.94 42.6454 21.14C42.7174 21.34 42.8254 21.48 42.9694 21.56C43.1134 21.64 43.3254 21.68 43.6054 21.68H43.7974L43.8694 22.34L43.7974 23H43.6054ZM39.3214 20.396C39.2974 20.612 39.3934 20.792 39.6094 20.936C39.8334 21.072 40.1294 21.14 40.4974 21.14C40.8094 21.14 41.1374 21.088 41.4814 20.984C41.4574 20.864 41.4294 20.668 41.3974 20.396C41.3254 19.772 41.2734 19.336 41.2414 19.088C40.7214 19.248 40.2774 19.452 39.9094 19.7C39.5414 19.94 39.3454 20.172 39.3214 20.396ZM52.7388 23C52.0188 22.992 51.4268 22.868 50.9628 22.628C50.4988 22.38 50.1548 22.008 49.9308 21.512C48.9628 22.008 48.0668 22.38 47.2428 22.628C46.4268 22.876 45.5308 23 44.5548 23H43.6428V21.68H44.6748C45.6588 21.68 46.5788 21.564 47.4348 21.332C48.2908 21.1 49.1628 20.748 50.0508 20.276L50.2548 20.168C49.8388 20.048 49.4028 19.872 48.9468 19.64C48.2028 19.248 47.5748 19.052 47.0628 19.052C46.7348 19.052 46.4388 19.148 46.1748 19.34C45.9108 19.532 45.7148 19.752 45.5868 20L44.8188 19.46C45.0908 18.916 45.4188 18.504 45.8028 18.224C46.1868 17.944 46.6148 17.804 47.0868 17.804C47.4308 17.804 47.7548 17.864 48.0588 17.984C48.3708 18.096 48.8068 18.296 49.3668 18.584C49.8868 18.848 50.3028 19.044 50.6148 19.172C50.9268 19.3 51.2748 19.404 51.6588 19.484L51.7068 20.648C51.4988 20.704 51.2028 20.836 50.8188 21.044C51.0028 21.244 51.2428 21.4 51.5388 21.512C51.8348 21.624 52.1828 21.68 52.5828 21.68H52.8588L52.9308 22.34L52.8588 23H52.7388ZM52.7009 21.68H52.9889C53.4209 21.68 53.8049 21.668 54.1409 21.644C53.7969 21.236 53.6249 20.792 53.6249 20.312C53.6249 20.256 53.6329 20.164 53.6489 20.036C53.7129 19.604 53.8489 19.208 54.0569 18.848C54.2729 18.48 54.5329 18.192 54.8369 17.984C55.1489 17.776 55.4769 17.672 55.8209 17.672C56.1969 17.672 56.5329 17.792 56.8289 18.032C57.1249 18.264 57.3569 18.568 57.5249 18.944C57.6929 19.32 57.7769 19.704 57.7769 20.096C57.7769 20.168 57.7689 20.276 57.7529 20.42C57.6809 20.916 57.5089 21.336 57.2369 21.68H57.4169H58.5689L58.6409 22.34L58.5689 23H57.8609C57.0609 23 56.3449 22.884 55.7129 22.652C55.0169 22.884 54.1089 23 52.9889 23H52.7009V21.68ZM55.8809 15.104C56.1849 15.424 56.4969 15.736 56.8169 16.04L55.8809 16.988L54.9329 16.04L55.8809 15.104ZM54.6569 20.156C54.6489 20.396 54.7289 20.62 54.8969 20.828C55.0729 21.036 55.3249 21.212 55.6529 21.356C55.9649 21.244 56.2049 21.104 56.3729 20.936C56.5409 20.76 56.6649 20.552 56.7449 20.312C56.7689 20.104 56.7409 19.896 56.6609 19.688C56.5889 19.472 56.4729 19.296 56.3129 19.16C56.1529 19.024 55.9609 18.956 55.7369 18.956C55.4649 18.956 55.2249 19.076 55.0169 19.316C54.8169 19.548 54.6969 19.828 54.6569 20.156ZM58.4202 21.68H58.6002C58.9922 21.68 59.3122 21.596 59.5602 21.428C59.8082 21.252 60.0042 20.98 60.1482 20.612C60.3002 20.244 60.4202 19.748 60.5082 19.124L61.5042 19.328C61.4562 19.624 61.4322 19.896 61.4322 20.144C61.4322 20.736 61.5802 21.176 61.8762 21.464C62.4842 20.384 63.1602 19.544 63.9042 18.944C64.6562 18.336 65.4002 18.032 66.1362 18.032C66.5682 18.032 66.9602 18.124 67.3122 18.308C67.6642 18.492 67.9362 18.748 68.1282 19.076C68.3282 19.396 68.4282 19.76 68.4282 20.168C68.4282 20.784 68.2282 21.324 67.8282 21.788C67.4282 22.252 66.8722 22.612 66.1602 22.868C65.4562 23.124 64.6602 23.252 63.7722 23.252C62.1482 23.252 61.1562 22.752 60.7962 21.752C60.5802 22.16 60.3002 22.472 59.9562 22.688C59.6122 22.896 59.1562 23 58.5882 23H58.4202V21.68ZM62.7882 21.884C63.0842 21.924 63.3802 21.944 63.6762 21.944C64.4042 21.944 65.0522 21.86 65.6202 21.692C66.1882 21.524 66.6282 21.304 66.9402 21.032C67.2602 20.76 67.4202 20.476 67.4202 20.18C67.4202 19.924 67.3122 19.712 67.0962 19.544C66.8882 19.368 66.6002 19.28 66.2322 19.28C65.6562 19.28 65.0682 19.508 64.4682 19.964C63.8682 20.412 63.3082 21.052 62.7882 21.884Z" fill="#B7B7B7"/>
<path d="M93.57 13.9297L87.5 19.9997L93.57 26.0697" stroke="#B7B7B7" stroke-width="1.5" stroke-miterlimit="10" stroke-linecap="round" stroke-linejoin="round"/>
<path opacity="0.4" d="M104.502 20H87.6719" stroke="#B7B7B7" stroke-width="1.5" stroke-miterlimit="10" stroke-linecap="round" stroke-linejoin="round"/>
</svg>
