<svg width="29" height="28" viewBox="0 0 29 28" fill="none" xmlns="http://www.w3.org/2000/svg">
<path d="M12.2059 20.5547C12.2059 21.8381 11.7159 23.0631 10.7943 23.9964C10.0826 24.7081 9.11426 25.1981 7.95926 25.3497L5.08926 25.6647C3.52592 25.8397 2.18426 24.5097 2.37092 22.9231L2.68592 20.0531C2.96592 17.4981 5.10093 15.8647 7.36426 15.8181C7.59759 15.8064 7.84259 15.8181 8.06426 15.8297C9.05593 15.9581 10.0243 16.4131 10.8176 17.2181C11.5993 17.9997 12.0426 18.9097 12.1709 19.8897C12.1826 20.1114 12.2059 20.3331 12.2059 20.5547Z" stroke="#37BEC1" stroke-width="1.75" stroke-linecap="round" stroke-linejoin="round"/>
<g opacity="0.4">
<path d="M25.4825 4.59408C23.6858 9.07408 19.1825 15.1641 15.4142 18.1857L13.1158 20.0291C12.8242 20.2391 12.5325 20.4257 12.2058 20.5541C12.2058 20.3441 12.1942 20.1107 12.1592 19.8891C12.0308 18.9091 11.5875 17.9991 10.8059 17.2174C10.0125 16.4241 9.04421 15.9574 8.05254 15.8291C7.81921 15.8174 7.58587 15.7941 7.35254 15.8174C7.48087 15.4557 7.67921 15.1174 7.92421 14.8374L9.74421 12.5391C12.7542 8.77075 18.8675 4.24408 23.3358 2.45908C24.0242 2.20242 24.6892 2.38908 25.1092 2.82075C25.5525 3.25242 25.7625 3.91742 25.4825 4.59408Z" stroke="#37BEC1" stroke-width="1.75" stroke-linecap="round" stroke-linejoin="round"/>
<path d="M16.6512 16.879C16.6512 13.834 14.1778 11.3606 11.1328 11.3606" stroke="#37BEC1" stroke-width="1.75" stroke-linecap="round" stroke-linejoin="round"/>
</g>
<path d="M23.5122 14.8528L24.3756 15.7044C26.1139 17.4428 26.1139 19.1578 24.3756 20.8961L20.9222 24.3494C19.2072 26.0644 17.4689 26.0644 15.7539 24.3494" stroke="#37BEC1" stroke-width="1.75" stroke-linecap="round"/>
<path d="M3.66711 12.2606C1.95211 10.5223 1.95211 8.80726 3.66711 7.06893L7.12044 3.6156C8.83544 1.9006 10.5738 1.9006 12.2888 3.6156L13.1521 4.47893" stroke="#37BEC1" stroke-width="1.75" stroke-linecap="round"/>
<path opacity="0.4" d="M13.1643 4.49292L8.84766 8.80959" stroke="#37BEC1" stroke-width="1.75" stroke-linecap="round"/>
<path opacity="0.4" d="M23.5119 14.8528L20.0586 18.2944" stroke="#37BEC1" stroke-width="1.75" stroke-linecap="round"/>
</svg>
