<svg width="120" height="40" viewBox="0 0 120 40" fill="none" xmlns="http://www.w3.org/2000/svg">
<path d="M8 0.5H112C116.142 0.5 119.5 3.85786 119.5 8V32C119.5 36.1421 116.142 39.5 112 39.5H8C3.85786 39.5 0.5 36.1421 0.5 32V8C0.5 3.85786 3.85786 0.5 8 0.5Z" stroke="#B7B7B7"/>
<path d="M25.3961 23C24.9161 23 24.5121 22.844 24.1841 22.532C24.1201 23.644 23.7761 24.508 23.1521 25.124C22.5281 25.74 21.6801 26.048 20.6081 26.048C19.9841 26.048 19.4161 25.92 18.9041 25.664C18.3921 25.416 17.9841 25.056 17.6801 24.584C17.3841 24.12 17.2361 23.584 17.2361 22.976C17.2361 22.536 17.3121 22.044 17.4641 21.5C17.6241 20.948 17.8161 20.456 18.0401 20.024L18.9641 20.456C18.7561 20.896 18.5961 21.308 18.4841 21.692C18.3721 22.068 18.3161 22.44 18.3161 22.808C18.3161 23.384 18.5241 23.848 18.9401 24.2C19.3561 24.56 19.9121 24.74 20.6081 24.74C22.3681 24.74 23.2121 23.808 23.1401 21.944C23.0761 20.312 23.0041 18.864 22.9241 17.6C22.8521 16.328 22.7801 15.368 22.7081 14.72L23.8361 14.468C23.9321 15.436 24.0321 17.392 24.1361 20.336H24.1481C24.1721 20.704 24.2201 20.984 24.2921 21.176C24.3721 21.36 24.4961 21.492 24.6641 21.572C24.8321 21.644 25.0761 21.68 25.3961 21.68H25.5401L25.6121 22.34L25.5401 23H25.3961ZM25.4029 21.68H25.4989C26.0829 21.68 26.5189 21.62 26.8069 21.5C27.1029 21.372 27.2949 21.168 27.3829 20.888C27.4149 20.784 27.4309 20.644 27.4309 20.468C27.4309 20.212 27.3829 19.788 27.2869 19.196L28.2829 18.992C28.3949 19.528 28.4509 20.176 28.4509 20.936C28.4909 21.168 28.5989 21.352 28.7749 21.488C28.9589 21.616 29.1909 21.68 29.4709 21.68H29.5549L29.6269 22.34L29.5549 23H29.4709C29.1429 23 28.8429 22.92 28.5709 22.76C28.2989 22.592 28.0789 22.372 27.9109 22.1C27.7109 22.42 27.4109 22.652 27.0109 22.796C26.6189 22.932 26.1149 23 25.4989 23H25.4029V21.68ZM25.2229 25.016C25.2229 25.016 25.4309 24.808 25.8469 24.392L26.1589 24.08L26.4709 24.392C26.8869 24.808 27.0949 25.016 27.0949 25.016L26.7829 25.328C26.3669 25.744 26.1589 25.952 26.1589 25.952C26.1589 25.952 25.9509 25.744 25.5349 25.328L25.2229 25.016ZM29.4221 21.68H29.5781C30.5701 21.68 31.3621 21.62 31.9541 21.5C32.5541 21.372 32.9861 21.16 33.2501 20.864C33.0581 20.888 32.8661 20.9 32.6741 20.9C32.1301 20.9 31.6461 20.812 31.2221 20.636C30.7981 20.452 30.4901 20.18 30.2981 19.82C30.1461 19.524 30.0701 19.192 30.0701 18.824C30.0701 18.408 30.1581 18.004 30.3341 17.612C30.5181 17.212 30.7661 16.888 31.0781 16.64C31.3981 16.384 31.7501 16.256 32.1341 16.256C32.5821 16.256 32.9821 16.432 33.3341 16.784C33.6861 17.128 33.9581 17.58 34.1501 18.14C34.3421 18.692 34.4381 19.264 34.4381 19.856C34.4381 20.016 34.4341 20.136 34.4261 20.216C34.3621 21.112 33.9261 21.8 33.1181 22.28C32.3101 22.76 31.1301 23 29.5781 23H29.4221V21.68ZM31.1261 13.7L32.0261 14.6L31.1261 15.512C30.7261 15.112 30.5261 14.912 30.5261 14.912L30.2141 14.6L31.1261 13.7ZM33.2621 13.7L34.1621 14.6L33.2621 15.512C32.8621 15.112 32.6621 14.912 32.6621 14.912L32.3501 14.6L33.2621 13.7ZM31.1501 19.076C31.2701 19.26 31.4941 19.404 31.8221 19.508C32.1501 19.612 32.5141 19.664 32.9141 19.664C33.1061 19.664 33.2981 19.652 33.4901 19.628C33.4101 19.052 33.2421 18.548 32.9861 18.116C32.7301 17.684 32.4221 17.468 32.0621 17.468C31.8781 17.468 31.7061 17.528 31.5461 17.648C31.3941 17.768 31.2701 17.924 31.1741 18.116C31.0861 18.3 31.0421 18.484 31.0421 18.668C31.0421 18.82 31.0781 18.956 31.1501 19.076ZM43.9629 23C43.1949 23 42.6389 22.732 42.2949 22.196C41.8309 22.34 41.3789 22.412 40.9389 22.412C40.2669 22.412 39.7149 22.256 39.2829 21.944C38.8509 21.624 38.6349 21.192 38.6349 20.648C38.6349 20.016 38.8869 19.48 39.3909 19.04C39.9029 18.592 40.5909 18.204 41.4549 17.876L41.3709 17.168L42.4869 16.94C42.6229 18.38 42.7389 19.476 42.8349 20.228C42.8749 20.636 42.9309 20.94 43.0029 21.14C43.0749 21.34 43.1829 21.48 43.3269 21.56C43.4709 21.64 43.6829 21.68 43.9629 21.68H44.1549L44.2269 22.34L44.1549 23H43.9629ZM39.6789 20.396C39.6549 20.612 39.7509 20.792 39.9669 20.936C40.1909 21.072 40.4869 21.14 40.8549 21.14C41.1669 21.14 41.4949 21.088 41.8389 20.984C41.8149 20.864 41.7869 20.668 41.7549 20.396C41.6829 19.772 41.6309 19.336 41.5989 19.088C41.0789 19.248 40.6349 19.452 40.2669 19.7C39.8989 19.94 39.7029 20.172 39.6789 20.396ZM53.0963 23C52.3763 22.992 51.7843 22.868 51.3203 22.628C50.8563 22.38 50.5123 22.008 50.2883 21.512C49.3203 22.008 48.4243 22.38 47.6003 22.628C46.7843 22.876 45.8883 23 44.9123 23H44.0003V21.68H45.0323C46.0163 21.68 46.9363 21.564 47.7923 21.332C48.6483 21.1 49.5203 20.748 50.4083 20.276L50.6123 20.168C50.1963 20.048 49.7603 19.872 49.3043 19.64C48.5603 19.248 47.9323 19.052 47.4203 19.052C47.0923 19.052 46.7963 19.148 46.5323 19.34C46.2683 19.532 46.0723 19.752 45.9443 20L45.1763 19.46C45.4483 18.916 45.7763 18.504 46.1603 18.224C46.5443 17.944 46.9723 17.804 47.4443 17.804C47.7883 17.804 48.1123 17.864 48.4163 17.984C48.7283 18.096 49.1643 18.296 49.7243 18.584C50.2443 18.848 50.6603 19.044 50.9723 19.172C51.2843 19.3 51.6323 19.404 52.0163 19.484L52.0643 20.648C51.8563 20.704 51.5603 20.836 51.1763 21.044C51.3603 21.244 51.6003 21.4 51.8963 21.512C52.1923 21.624 52.5403 21.68 52.9403 21.68H53.2163L53.2883 22.34L53.2163 23H53.0963ZM53.0583 21.68H53.3463C53.7783 21.68 54.1623 21.668 54.4983 21.644C54.1543 21.236 53.9823 20.792 53.9823 20.312C53.9823 20.256 53.9903 20.164 54.0063 20.036C54.0703 19.604 54.2063 19.208 54.4143 18.848C54.6303 18.48 54.8903 18.192 55.1943 17.984C55.5063 17.776 55.8343 17.672 56.1783 17.672C56.5543 17.672 56.8903 17.792 57.1863 18.032C57.4823 18.264 57.7143 18.568 57.8823 18.944C58.0503 19.32 58.1343 19.704 58.1343 20.096C58.1343 20.168 58.1263 20.276 58.1103 20.42C58.0383 20.916 57.8663 21.336 57.5943 21.68H57.7743H58.9263L58.9983 22.34L58.9263 23H58.2183C57.4183 23 56.7023 22.884 56.0703 22.652C55.3743 22.884 54.4663 23 53.3463 23H53.0583V21.68ZM56.2383 15.104C56.5423 15.424 56.8543 15.736 57.1743 16.04L56.2383 16.988L55.2903 16.04L56.2383 15.104ZM55.0143 20.156C55.0063 20.396 55.0863 20.62 55.2543 20.828C55.4303 21.036 55.6823 21.212 56.0103 21.356C56.3223 21.244 56.5623 21.104 56.7303 20.936C56.8983 20.76 57.0223 20.552 57.1023 20.312C57.1263 20.104 57.0983 19.896 57.0183 19.688C56.9463 19.472 56.8303 19.296 56.6703 19.16C56.5103 19.024 56.3183 18.956 56.0943 18.956C55.8223 18.956 55.5823 19.076 55.3743 19.316C55.1743 19.548 55.0543 19.828 55.0143 20.156ZM58.7776 21.68H58.9576C59.3496 21.68 59.6696 21.596 59.9176 21.428C60.1656 21.252 60.3616 20.98 60.5056 20.612C60.6576 20.244 60.7776 19.748 60.8656 19.124L61.8616 19.328C61.8136 19.624 61.7896 19.896 61.7896 20.144C61.7896 20.736 61.9376 21.176 62.2336 21.464C62.8416 20.384 63.5176 19.544 64.2616 18.944C65.0136 18.336 65.7576 18.032 66.4936 18.032C66.9256 18.032 67.3176 18.124 67.6696 18.308C68.0216 18.492 68.2936 18.748 68.4856 19.076C68.6856 19.396 68.7856 19.76 68.7856 20.168C68.7856 20.784 68.5856 21.324 68.1856 21.788C67.7856 22.252 67.2296 22.612 66.5176 22.868C65.8136 23.124 65.0176 23.252 64.1296 23.252C62.5056 23.252 61.5136 22.752 61.1536 21.752C60.9376 22.16 60.6576 22.472 60.3136 22.688C59.9696 22.896 59.5136 23 58.9456 23H58.7776V21.68ZM63.1456 21.884C63.4416 21.924 63.7376 21.944 64.0336 21.944C64.7616 21.944 65.4096 21.86 65.9776 21.692C66.5456 21.524 66.9856 21.304 67.2976 21.032C67.6176 20.76 67.7776 20.476 67.7776 20.18C67.7776 19.924 67.6696 19.712 67.4536 19.544C67.2456 19.368 66.9576 19.28 66.5896 19.28C66.0136 19.28 65.4256 19.508 64.8256 19.964C64.2256 20.412 63.6656 21.052 63.1456 21.884Z" fill="#B7B7B7"/>
<path d="M98.43 13.9297L104.5 19.9997L98.43 26.0697" stroke="#B7B7B7" stroke-width="1.5" stroke-miterlimit="10" stroke-linecap="round" stroke-linejoin="round"/>
<path opacity="0.4" d="M87.4981 20H104.328" stroke="#B7B7B7" stroke-width="1.5" stroke-miterlimit="10" stroke-linecap="round" stroke-linejoin="round"/>
</svg>
