<svg width="24" height="24" viewBox="0 0 24 24" fill="none" xmlns="http://www.w3.org/2000/svg">
<path d="M9 22H15C20 22 22 20 22 15V9C22 4 20 2 15 2H9C4 2 2 4 2 9V15C2 20 4 22 9 22Z" stroke="#393C97" stroke-width="1.5" stroke-linecap="round" stroke-linejoin="round"/>
<path d="M9.30994 10.42L13.5799 14.69M6.98994 15.08L8.92994 17.02C9.56994 17.66 10.6299 17.66 11.2699 17.02L17.0199 11.27C17.6599 10.63 17.6599 9.57001 17.0199 8.93001L15.0799 6.99001C14.4399 6.35001 13.3799 6.35001 12.7399 6.99001L6.98994 12.74C6.33994 13.38 6.33994 14.43 6.98994 15.08Z" stroke="#393C97" stroke-width="1.5" stroke-linecap="round" stroke-linejoin="round"/>
</svg>
