<svg width="18" height="18" viewBox="0 0 18 18" fill="none" xmlns="http://www.w3.org/2000/svg">
<path d="M10.21 2.73493L11.4541 5.29121C11.6246 5.64208 12.0801 5.99072 12.4663 6.0548L14.7638 6.46624C16.235 6.72648 16.5619 7.79728 15.4967 8.84538L13.6825 10.6204C13.3796 10.918 13.1997 11.5064 13.2935 11.9216L13.7804 14.1483C14.163 15.9063 13.2257 16.5777 11.689 15.6438L9.54215 14.3389C9.15121 14.1005 8.51054 14.0988 8.11985 14.3232L5.946 15.5744C4.3899 16.4687 3.46547 15.7782 3.88792 14.0307L4.42751 11.8195C4.52828 11.4061 4.36938 10.8137 4.07186 10.5108L2.2867 8.69328C1.24529 7.62468 1.59592 6.56202 3.06999 6.33253L5.37155 5.97585C5.76016 5.91244 6.22384 5.58347 6.39889 5.23327L7.70074 2.70078C8.41128 1.3368 9.53841 1.35151 10.21 2.73493Z" fill="#E0AD70"/>
</svg>
