<svg width="25" height="25" viewBox="0 0 25 25" fill="none" xmlns="http://www.w3.org/2000/svg">
<g clip-path="url(#clip0_44_2999)">
<path d="M19.306 3.66318L17.073 4.55404L16.6365 3.55859L15.6458 3.66564C14.6517 3.77265 13.786 4.13088 12.9582 4.78283C12.1303 4.12929 11.2707 3.77138 10.2902 3.6656L9.29919 3.55859L8.86305 4.55404L6.62958 3.66318L2.43994 13.413L4.94168 14.3645V21.4411L12.9577 17.4439L20.9738 21.4411V14.371L23.4961 13.4133L19.306 3.66318ZM6.17494 19.4511V14.834L11.4269 16.8322L6.17494 19.4511ZM12.3412 15.8633L4.07932 12.72L7.28902 5.25061L8.3684 5.68148L5.6114 11.9702L12.3411 14.5514L12.3412 15.8633ZM12.3412 13.2333L7.69674 11.452C8.49017 11.0476 9.43235 10.9952 10.2923 11.3442L12.3411 12.2387L12.3412 13.2333ZM12.3412 10.8961L10.7659 10.2084C9.78998 9.80995 8.73725 9.78255 7.78191 10.0892L10.0666 4.87876C10.1935 4.911 11.1722 4.87991 12.3412 5.86925V10.8961ZM13.5743 5.87003C14.7215 4.90411 15.8044 4.89529 15.8694 4.8788L18.1447 10.069C17.2444 9.78288 16.2656 9.82147 15.3173 10.2084L13.5743 10.9202V5.87003ZM13.5743 12.2494L15.7843 11.3469C16.6199 11.0055 17.492 11.0502 18.2487 11.447L13.5743 13.2346V12.2494ZM19.7405 19.451L14.4898 16.8326L19.7405 14.8391V19.451ZM13.5743 15.8641V14.5517L20.3246 11.9706L17.5671 5.68148L18.6467 5.25065L21.8564 12.7196L13.5743 15.8641Z" fill="#E0AD70"/>
</g>
<defs>
<clipPath id="clip0_44_2999">
<rect width="21.0561" height="21" fill="white" transform="translate(2.43994 2)"/>
</clipPath>
</defs>
</svg>
