<svg width="21" height="18" viewBox="0 0 21 18" fill="none" xmlns="http://www.w3.org/2000/svg">
<path d="M4.17896 0.173193L6.40598 1.06405L6.84128 0.0686035L7.82935 0.175654C8.82078 0.282664 9.68416 0.640894 10.5098 1.29284C11.3355 0.639295 12.1928 0.281393 13.1707 0.175613L14.159 0.0686035L14.594 1.06405L16.8215 0.173193L21 9.92298L18.5049 10.8745V17.9511L10.5103 13.9539L2.51557 17.9511V10.881L0 9.92326L4.17896 0.173193ZM17.275 15.9611V11.344L12.037 13.3422L17.275 15.9611ZM11.1252 12.3733L19.365 9.22998L16.1638 1.76062L15.0874 2.19149L17.837 8.48017L11.1252 11.0614L11.1252 12.3733ZM11.1252 9.74333L15.7572 7.96202C14.9659 7.55761 14.0262 7.50523 13.1686 7.85419L11.1252 8.7487L11.1252 9.74333ZM11.1252 7.40609L12.6963 6.71843C13.6696 6.31996 14.7195 6.29256 15.6723 6.59923L13.3937 1.38877C13.2671 1.42101 12.2911 1.38992 11.1252 2.37926V7.40609ZM9.89535 2.38004C8.75122 1.41412 7.67119 1.4053 7.60631 1.38881L5.33716 6.57901C6.23499 6.29289 7.2112 6.33148 8.15698 6.71843L9.89535 7.43025V2.38004ZM9.89535 8.75945L7.69125 7.85694C6.85781 7.51548 5.98812 7.56019 5.23335 7.95706L9.89535 9.7446V8.75945ZM3.74555 15.9611L8.98226 13.3426L3.74555 11.3491V15.9611ZM9.89535 12.3741V11.0617L3.16304 8.48062L5.91314 2.19149L4.83648 1.76066L1.63533 9.22965L9.89535 12.3741Z" fill="#393C97"/>
</svg>
