<svg width="33" height="32" viewBox="0 0 33 32" fill="none" xmlns="http://www.w3.org/2000/svg">
<circle cx="16" cy="16" r="16" transform="matrix(-1 0 0 1 32 0)" fill="#E2F6EE"/>
<g clip-path="url(#clip0_45_3479)">
<path d="M23.4785 6.34824C23.3715 6.09923 23.0856 5.98082 22.8338 6.08125L21.1833 6.73975C20.9329 6.83966 20.6483 6.72304 20.5401 6.47613L20.3826 6.11696C20.295 5.91713 20.0879 5.79719 19.871 5.82063L19.1032 5.90359C18.093 6.01234 17.1988 6.34808 16.3479 6.94496C16.1586 7.07773 15.9047 7.0776 15.7157 6.94451C14.866 6.34638 13.9789 6.01104 12.9825 5.90355L12.2144 5.82061C11.9974 5.79718 11.7903 5.91718 11.7027 6.11707L11.5455 6.47598C11.4373 6.72296 11.1527 6.83965 10.9023 6.73975L9.25125 6.08121C8.99952 5.9808 8.71363 6.09923 8.60663 6.34822L4.2167 16.5641C4.10439 16.8255 4.23245 17.1277 4.49833 17.2288L6.54762 18.0083C6.74162 18.0821 6.86987 18.2681 6.86987 18.4756V25.4104C6.86987 25.7818 7.26057 26.0236 7.59299 25.8578L15.808 21.7614C15.9485 21.6913 16.1137 21.6913 16.2542 21.7614L24.4692 25.8578C24.8016 26.0236 25.1923 25.7818 25.1923 25.4104V18.4833C25.1923 18.2756 25.3207 18.0896 25.5148 18.0158L27.5869 17.229C27.853 17.128 27.9812 16.8256 27.8688 16.5642L23.4785 6.34824ZM9.00244 23.5835C8.67002 23.7493 8.27931 23.5075 8.27931 23.1361V19.3926C8.27931 19.0425 8.62988 18.8008 8.95711 18.9253L13.2153 20.5454C13.6225 20.7003 13.6506 21.2657 13.2606 21.4601L9.00244 23.5835ZM15.3264 19.1185C15.3264 19.4687 14.9759 19.7104 14.6486 19.5859L6.37184 16.4369C6.10599 16.3357 5.97795 16.0335 6.09025 15.7722L9.36023 8.16255C9.46725 7.9135 9.75322 7.79509 10.005 7.89559L10.306 8.01575C10.5685 8.12055 10.6921 8.42198 10.5786 8.68087L7.84567 14.9145C7.7311 15.1759 7.85811 15.4799 8.12454 15.5821L15.0055 18.2214C15.1988 18.2956 15.3264 18.4812 15.3264 18.6882L15.3264 19.1185ZM15.3264 16.1108C15.3264 16.4615 14.9748 16.7032 14.6474 16.5776L11.0673 15.2045C10.663 15.0495 10.6548 14.5243 11.0826 14.4572C11.71 14.3587 12.366 14.428 12.9848 14.6791L15.0265 15.5704C15.2086 15.65 15.3264 15.8298 15.3264 16.0286L15.3264 16.1108ZM15.3264 13.4031C15.3264 13.7635 14.9567 14.0056 14.6264 13.8614L13.5261 13.381C12.7707 13.0726 11.9751 12.9587 11.201 13.0262C10.7719 13.0636 10.3883 12.6234 10.5613 12.2289L12.5567 7.67819C12.6549 7.45423 12.9055 7.30342 13.1466 7.34479C13.5856 7.42014 14.3156 7.62623 15.1461 8.27526C15.262 8.36581 15.3264 8.50681 15.3264 8.65388V13.4031ZM16.7357 8.65553C16.7357 8.50803 16.8004 8.36664 16.9172 8.27651C17.7264 7.65184 18.4878 7.43004 18.9396 7.34634C19.18 7.30181 19.4307 7.45418 19.5288 7.67807L21.5154 12.2098C21.6881 12.6037 21.3051 13.0453 20.8759 13.0175C20.1684 12.9716 19.4405 13.0902 18.7277 13.381L17.4247 13.9132C17.0958 14.0475 16.7357 13.8056 16.7357 13.4503V8.65553ZM16.7357 16.0495C16.7357 15.8464 16.8586 15.6635 17.0467 15.5866L19.2614 14.6822C19.8488 14.4422 20.4519 14.3691 21.0304 14.454C21.4563 14.5164 21.4457 15.0384 21.0436 15.1922L17.4143 16.58C17.0869 16.7052 16.7357 16.4635 16.7357 16.113V16.0495ZM23.7828 23.136C23.7828 23.5074 23.3921 23.7492 23.0597 23.5834L18.8039 21.4611C18.4138 21.2666 18.4421 20.701 18.8496 20.5462L23.1054 18.9305C23.4326 18.8063 23.7828 19.048 23.7828 19.3979V23.136ZM17.4132 19.5875C17.086 19.7117 16.7357 19.47 16.7357 19.12V18.6889C16.7357 18.4817 16.8636 18.2959 17.0571 18.2219L23.9603 15.5823C24.2271 15.4804 24.3544 15.1761 24.2397 14.9145L21.5066 8.68092C21.3931 8.42201 21.5166 8.12055 21.7792 8.01576L22.0803 7.89557C22.3321 7.79511 22.618 7.91352 22.725 8.16255L25.9949 15.7714C26.1072 16.0329 25.979 16.3353 25.713 16.4363L17.4132 19.5875Z" fill="#E0AD70"/>
</g>
<defs>
<clipPath id="clip0_45_3479">
<rect width="24.0642" height="24" fill="white" transform="translate(4.01074 4)"/>
</clipPath>
</defs>
</svg>
