<svg width="32" height="32" viewBox="0 0 32 32" fill="none" xmlns="http://www.w3.org/2000/svg">
<path d="M32 16C32 24.8366 24.8366 32 16 32C7.16344 32 -3.18845e-06 24.8366 -2.41593e-06 16C-1.64342e-06 7.16344 7.16344 -5.98598e-06 16 -5.21346e-06C24.8366 -4.44095e-06 32 7.16344 32 16Z" fill="#F3F5FF"/>
<g clip-path="url(#clip0_302_4737)">
<path d="M10.179 7.66318L12.406 8.55404L12.8413 7.55859L13.8293 7.66564C14.8208 7.77265 15.6842 8.13088 16.5098 8.78283C17.3355 8.12929 18.1928 7.77138 19.1707 7.6656L20.159 7.55859L20.594 8.55404L22.8215 7.66318L27 17.413L24.5049 18.3645V25.4411L16.5103 21.4439L8.51557 25.4411V18.371L6 17.4133L10.179 7.66318ZM23.275 23.4511V18.834L18.037 20.8322L23.275 23.4511ZM17.1252 19.8633L25.365 16.72L22.1638 9.25061L21.0874 9.68148L23.837 15.9702L17.1252 18.5514L17.1252 19.8633ZM17.1252 17.2333L21.7572 15.452C20.9659 15.0476 20.0262 14.9952 19.1686 15.3442L17.1252 16.2387L17.1252 17.2333ZM17.1252 14.8961L18.6963 14.2084C19.6696 13.8099 20.7195 13.7826 21.6723 14.0892L19.3937 8.87876C19.2671 8.911 18.2911 8.87991 17.1252 9.86925V14.8961ZM15.8953 9.87003C14.7512 8.90411 13.6712 8.89529 13.6063 8.8788L11.3372 14.069C12.235 13.7829 13.2112 13.8215 14.157 14.2084L15.8953 14.9202V9.87003ZM15.8953 16.2494L13.6912 15.3469C12.8578 15.0055 11.9881 15.0502 11.2333 15.447L15.8953 17.2346V16.2494ZM9.74555 23.451L14.9823 20.8326L9.74555 18.8391V23.451ZM15.8953 19.8641V18.5517L9.16304 15.9706L11.9131 9.68148L10.8365 9.25065L7.63533 16.7196L15.8953 19.8641Z" fill="#393C97"/>
</g>
<defs>
<clipPath id="clip0_302_4737">
<rect width="21" height="21" fill="white" transform="matrix(-1 0 0 1 27 6)"/>
</clipPath>
</defs>
</svg>
