<svg width="24" height="24" viewBox="0 0 24 24" fill="none" xmlns="http://www.w3.org/2000/svg">
<g clip-path="url(#clip0_302_4738)">
<path d="M6.17896 3.66318L8.40598 4.55404L8.84128 3.55859L9.82935 3.66564C10.8208 3.77265 11.6842 4.13088 12.5098 4.78283C13.3355 4.12929 14.1928 3.77138 15.1707 3.6656L16.159 3.55859L16.594 4.55404L18.8215 3.66318L23 13.413L20.5049 14.3645V21.4411L12.5103 17.4439L4.51557 21.4411V14.371L2 13.4133L6.17896 3.66318ZM19.275 19.4511V14.834L14.037 16.8322L19.275 19.4511ZM13.1252 15.8633L21.365 12.72L18.1638 5.25061L17.0874 5.68148L19.837 11.9702L13.1252 14.5514L13.1252 15.8633ZM13.1252 13.2333L17.7572 11.452C16.9659 11.0476 16.0262 10.9952 15.1686 11.3442L13.1252 12.2387L13.1252 13.2333ZM13.1252 10.8961L14.6963 10.2084C15.6696 9.80995 16.7195 9.78255 17.6723 10.0892L15.3937 4.87876C15.2671 4.911 14.2911 4.87991 13.1252 5.86925V10.8961ZM11.8953 5.87003C10.7512 4.90411 9.67119 4.89529 9.60631 4.8788L7.33716 10.069C8.23499 9.78288 9.2112 9.82147 10.157 10.2084L11.8953 10.9202V5.87003ZM11.8953 12.2494L9.69125 11.3469C8.85781 11.0055 7.98812 11.0502 7.23335 11.447L11.8953 13.2346V12.2494ZM5.74555 19.451L10.9823 16.8326L5.74555 14.8391V19.451ZM11.8953 15.8641V14.5517L5.16304 11.9706L7.91314 5.68148L6.83648 5.25065L3.63533 12.7196L11.8953 15.8641Z" fill="#393C97"/>
</g>
<defs>
<clipPath id="clip0_302_4738">
<rect width="21" height="21" fill="white" transform="matrix(-1 0 0 1 23 2)"/>
</clipPath>
</defs>
</svg>
