<svg width="63" height="24" viewBox="0 0 63 24" fill="none" xmlns="http://www.w3.org/2000/svg">
<path d="M6.58831 15.5C6.24698 15.5 5.93231 15.436 5.64431 15.308C5.58031 16.3107 5.14298 17.2333 4.33231 18.076C3.52165 18.9293 2.44965 19.628 1.11631 20.172L0.140312 18.156C0.844312 17.868 1.48965 17.532 2.07631 17.148C2.66298 16.7747 3.12165 16.4013 3.45231 16.028C3.79365 15.6547 3.96431 15.3347 3.96431 15.068C3.96431 14.6307 3.68165 13.4413 3.11631 11.5L3.03631 11.18L4.82831 10.476C4.94565 10.8067 5.08431 11.2813 5.24431 11.9C5.38298 12.3373 5.55365 12.652 5.75631 12.844C5.96965 13.0253 6.24698 13.116 6.58831 13.116H6.74831L6.87631 14.316L6.74831 15.5H6.58831ZM6.44756 13.116H6.54356C7.50356 13.116 8.21823 13.068 8.68756 12.972C9.1569 12.8653 9.46623 12.7107 9.61556 12.508C9.7649 12.3053 9.83956 12.012 9.83956 11.628C9.83956 11.3187 9.78623 10.812 9.67956 10.108L11.3276 9.788C11.4769 10.5667 11.5516 11.4467 11.5516 12.428C11.5942 12.6093 11.7116 12.7693 11.9036 12.908C12.0956 13.0467 12.3782 13.116 12.7516 13.116H12.8316L12.9596 14.316L12.8316 15.5H12.7356C12.3089 15.5 11.9142 15.3987 11.5516 15.196C11.1889 14.9933 10.8796 14.7267 10.6236 14.396C10.3142 14.7907 9.8449 15.0733 9.21556 15.244C8.58623 15.4147 7.69556 15.5 6.54356 15.5H6.43156L6.44756 13.116ZM7.69556 5.964L9.03956 7.308L7.69556 8.668L6.33556 7.308L7.69556 5.964ZM10.5116 5.964L11.8556 7.308L10.5116 8.668L9.15156 7.308L10.5116 5.964ZM17.3379 15.5C16.9326 15.5 16.5379 15.3933 16.1539 15.18C15.7806 14.9667 15.4499 14.6733 15.1619 14.3C14.9166 14.6733 14.5966 14.9667 14.2019 15.18C13.8179 15.3933 13.3806 15.5 12.8899 15.5H12.5059V13.116H12.8419C13.3753 13.116 13.7593 13.02 13.9939 12.828C14.2393 12.6253 14.3619 12.2893 14.3619 11.82V11.788C14.3299 11.0307 14.2659 9.756 14.1699 7.964C14.0739 6.172 13.9886 4.892 13.9139 4.124L15.9139 3.676C15.9993 4.54 16.0899 6.49733 16.1859 9.548L16.2819 11.804C16.3033 12.2733 16.3993 12.6093 16.5699 12.812C16.7513 13.0147 17.0073 13.116 17.3379 13.116H17.5139L17.6419 14.316L17.5139 15.5H17.3379ZM17.1901 13.116H17.2861C18.2461 13.116 18.9607 13.068 19.4301 12.972C19.8994 12.8653 20.2087 12.7107 20.3581 12.508C20.5074 12.3053 20.5821 12.012 20.5821 11.628C20.5821 11.3187 20.5287 10.812 20.4221 10.108L22.0701 9.788C22.2194 10.5667 22.2941 11.4467 22.2941 12.428C22.3367 12.6093 22.4541 12.7693 22.6461 12.908C22.8381 13.0467 23.1207 13.116 23.4941 13.116H23.5741L23.7021 14.316L23.5741 15.5H23.4781C23.0514 15.5 22.6567 15.3987 22.2941 15.196C21.9314 14.9933 21.6221 14.7267 21.3661 14.396C21.0567 14.7907 20.5874 15.0733 19.9581 15.244C19.3287 15.4147 18.4381 15.5 17.2861 15.5H17.1741L17.1901 13.116ZM19.9741 19.548L18.6301 18.204L19.9741 16.844L20.4221 17.292L21.3341 18.204L19.9741 19.548ZM17.1581 19.548L15.8141 18.204L17.1581 16.844L17.6061 17.292L18.5181 18.204L17.1581 19.548ZM23.2484 13.116H23.4884C24.7578 13.116 25.7658 13.0573 26.5124 12.94C27.2698 12.812 27.8298 12.588 28.1924 12.268C27.8938 12.2893 27.6751 12.3 27.5364 12.3C26.7684 12.3 26.0858 12.1667 25.4884 11.9C24.9018 11.6333 24.4804 11.244 24.2244 10.732C24.0324 10.316 23.9364 9.85733 23.9364 9.356C23.9364 8.748 24.0644 8.156 24.3204 7.58C24.5764 7.004 24.9338 6.53467 25.3924 6.172C25.8511 5.79867 26.3578 5.612 26.9124 5.612C27.5418 5.612 28.1071 5.86267 28.6084 6.364C29.1098 6.85467 29.4991 7.50533 29.7764 8.316C30.0644 9.12667 30.2084 9.98533 30.2084 10.892C30.2084 12.364 29.6538 13.5 28.5444 14.3C27.4458 15.1 25.7498 15.5 23.4564 15.5H23.2484V13.116ZM25.6324 2.636C25.9524 2.30533 26.2778 1.98 26.6084 1.66C27.1098 2.14 27.6004 2.63067 28.0804 3.132C27.7604 3.46267 27.4351 3.788 27.1044 4.108L26.6084 4.604L25.1364 3.132L25.6324 2.636ZM25.6484 9.42C25.8084 9.62267 26.0964 9.788 26.5124 9.916C26.9284 10.0333 27.3978 10.092 27.9204 10.092C28.0591 10.092 28.2671 10.0813 28.5444 10.06C28.4058 9.37733 28.1711 8.80667 27.8404 8.348C27.5098 7.87867 27.1418 7.644 26.7364 7.644C26.4058 7.644 26.1231 7.79333 25.8884 8.092C25.6538 8.38 25.5364 8.684 25.5364 9.004C25.5364 9.17467 25.5738 9.31333 25.6484 9.42Z" fill="#393C97"/>
<path d="M58 22V11" stroke="#393C97" stroke-width="1.5" stroke-miterlimit="10" stroke-linecap="round" stroke-linejoin="round"/>
<path d="M58 7V2" stroke="#393C97" stroke-width="1.5" stroke-miterlimit="10" stroke-linecap="round" stroke-linejoin="round"/>
<path d="M51 22V17" stroke="#393C97" stroke-width="1.5" stroke-miterlimit="10" stroke-linecap="round" stroke-linejoin="round"/>
<path d="M51 13V2" stroke="#393C97" stroke-width="1.5" stroke-miterlimit="10" stroke-linecap="round" stroke-linejoin="round"/>
<path d="M44 22V11" stroke="#393C97" stroke-width="1.5" stroke-miterlimit="10" stroke-linecap="round" stroke-linejoin="round"/>
<path d="M44 7V2" stroke="#393C97" stroke-width="1.5" stroke-miterlimit="10" stroke-linecap="round" stroke-linejoin="round"/>
<path d="M42 11H46" stroke="#393C97" stroke-width="1.5" stroke-miterlimit="10" stroke-linecap="round" stroke-linejoin="round"/>
<path d="M56 11H60" stroke="#393C97" stroke-width="1.5" stroke-miterlimit="10" stroke-linecap="round" stroke-linejoin="round"/>
<path d="M49 13H53" stroke="#393C97" stroke-width="1.5" stroke-miterlimit="10" stroke-linecap="round" stroke-linejoin="round"/>
</svg>
